titillium_bold-upright.sfdir
StartChar: exclam
Encoding: 33 33 145
Width: 265
Flags: MW
HStem: 0 153<65 201 65 201> 680 20G<65 201 201 201>
VStem: 66 133
LayerCount: 2
Back
Fore
SplineSet
67 258 m 1
 65 700 l 1
 201 700 l 1
 197 258 l 1
 67 258 l 1
65 0 m 1
 65 153 l 1
 201 153 l 1
 201 0 l 1
 65 0 l 1
EndSplineSet
EndChar
StartChar: quotedbl
Encoding: 34 34 228
Width: 388
Flags: MW
HStem: 437 251<53 168 53 53 220 220 220 335>
VStem: 50.5 120 217.5 120
LayerCount: 2
Back
Fore
SplineSet
168 437 m 1
 53 437 l 1
 48 688 l 1
 173 688 l 1
 168 437 l 1
335 437 m 1
 220 437 l 1
 215 688 l 1
 340 688 l 1
 335 437 l 1
EndSplineSet
EndChar
StartChar: numbersign
Encoding: 35 35 150
Width: 560
Flags: MW
HStem: 0 21G<112 228 112 112 332 448 332 332> 165 112<16 112 16 112 228 332 448 544> 383 112<16 112 16 112 228 332 448 544>
VStem: 112 116<0 165 0 165 277 383 495 660> 332 116<0 165 0 165 277 383 495 660>
LayerCount: 2
Back
Fore
SplineSet
544 165 m 1
 448 165 l 1
 448 0 l 1
 332 0 l 1
 332 165 l 1
 228 165 l 1
 228 0 l 1
 112 0 l 1
 112 165 l 1
 16 165 l 1
 16 277 l 1
 112 277 l 1
 112 383 l 1
 16 383 l 1
 16 495 l 1
 112 495 l 1
 112 660 l 1
 228 660 l 1
 228 495 l 1
 332 495 l 1
 332 660 l 1
 448 660 l 1
 448 495 l 1
 544 495 l 1
 544 383 l 1
 448 383 l 1
 448 277 l 1
 544 277 l 1
 544 165 l 1
332 277 m 1
 332 383 l 1
 228 383 l 1
 228 277 l 1
 332 277 l 1
EndSplineSet
EndChar
StartChar: dollar
Encoding: 36 36 144
Width: 560
Flags: MW
HStem: -12 117<275 303 275 348> -11 21G<250 250> -4 21G<167 167> 555 116<284 284> 662 21G<392 392> 662 109<392 392>
VStem: 64 136<469.5 511 469.5 539> 358 136<152.5 202>
LayerCount: 2
Back
Fore
SplineSet
471 647 m 1x2b
 465 542 l 1
 465 542 417 547 368 551 c 1
 334 389 l 1
 450 347 494 313 494 193 c 0
 494 50 424 -12 272 -12 c 0
 265 -12 258 -12 250 -11 c 1x93
 228 -119 l 1
 143 -119 l 1
 167 -4 l 1x2b
 118 2 80 11 80 11 c 1
 86 118 l 1
 86 118 138 112 190 108 c 1
 228 285 l 1
 113 326 64 374 64 468 c 0
 64 610 135 671 287 671 c 0
 294 671 301 671 309 670 c 1
 330 771 l 1
 415 771 l 1x47
 392 662 l 1
 437 655 471 647 471 647 c 1x2b
358 181 m 0
 358 223 345 241 307 258 c 1
 275 105 l 1
 331 105 358 124 358 181 c 0
200 487 m 0
 200 452 212 438 256 419 c 1
 284 555 l 1
 223 553 200 535 200 487 c 0
EndSplineSet
EndChar
StartChar: percent
Encoding: 37 37 252
Width: 560
Flags: MW
HStem: 0 80<412 430 412 459.5> 211 80<412 430> 490 131<130 148> 690 21G<444 444>
VStem: 117 44<533 579> 301 98<123 169 123 194.5> 443 98<123 169>
LayerCount: 2
Back
Fore
SplineSet
139 621 m 0
 157 621 161 602 161 556 c 0
 161 510 157 490 139 490 c 0
 121 490 117 510 117 556 c 0
 117 602 121 621 139 621 c 0
112 6 m 1
 358 720 l 1
 444 690 l 1
 198 -24 l 1
 112 6 l 1
19 556 m 0
 19 459 62 410 139 410 c 0
 216 410 259 459 259 556 c 0
 259 653 216 701 139 701 c 0
 62 701 19 653 19 556 c 0
301 146 m 0
 301 243 344 291 421 291 c 0
 498 291 541 243 541 146 c 0
 541 49 498 0 421 0 c 0
 344 0 301 49 301 146 c 0
399 146 m 0
 399 100 403 80 421 80 c 0
 439 80 443 100 443 146 c 0
 443 192 439 211 421 211 c 0
 403 211 399 192 399 146 c 0
EndSplineSet
EndChar
StartChar: ampersand
Encoding: 38 38 247
Width: 639
Flags: MW
HStem: -12 114<221.5 274 221.5 294.5> 580 112<274.5 315.5>
VStem: 20 138<165.5 216.5 165.5 248> 103 138<497 531 496 584.5> 349 138<490 530> 472 121<365 365>
LayerCount: 2
Back
Fore
SplineSet
295 692 m 0xe8
 420 692 487 646 487 521 c 0xe8
 487 451 452 405 359 348 c 1
 445 259 l 1
 457 280 468 339 472 365 c 1
 593 365 l 1
 591 304 561 214 534 170 c 1
 551 154 609 95 630 76 c 1
 630 76 548 -12 543 -12 c 2
 457 71 l 1
 395 18 344 -12 245 -12 c 0
 97 -12 20 67 20 198 c 0xe4
 20 298 76 353 158 392 c 1
 121 440 103 472 103 522 c 0xd8
 103 647 170 692 295 692 c 0xe8
249 102 m 0
 299 102 333 115 371 146 c 1
 224 312 l 1
 179 280 158 244 158 189 c 0
 158 142 194 102 249 102 c 0
241 513 m 0xd8
 241 479 251 461 293 420 c 1
 329 445 349 468 349 512 c 0
 349 548 336 580 295 580 c 0
 254 580 241 549 241 513 c 0xd8
EndSplineSet
EndChar
StartChar: parenleft
Encoding: 40 40 230
Width: 285
Flags: MW
HStem: -124 872<140 264 140 264>
VStem: 34 139<208 394 208 411>
LayerCount: 2
Back
Fore
SplineSet
140 748 m 1
 264 748 l 1
 264 748 173 487 173 301 c 0
 173 115 264 -124 264 -124 c 1
 140 -124 l 1
 140 -124 34 81 34 301 c 0
 34 521 140 748 140 748 c 1
EndSplineSet
Substitution2: "'case' Case-Sensitive Forms in Latin lookup 4 subtable" parenleft.cap
EndChar
StartChar: parenright
Encoding: 41 41 231
Width: 285
Flags: MW
HStem: -118 872<21 145 21 145>
VStem: 112 139<236 422>
LayerCount: 2
Back
Fore
SplineSet
145 -118 m 1
 21 -118 l 1
 21 -118 112 143 112 329 c 0
 112 515 21 754 21 754 c 1
 145 754 l 1
 145 754 251 549 251 329 c 0
 251 109 145 -118 145 -118 c 1
EndSplineSet
Substitution2: "'case' Case-Sensitive Forms in Latin lookup 4 subtable" parenright.cap
EndChar
StartChar: asterisk
Encoding: 42 42 248
Width: 407
Flags: MW
HStem: 499 74<257 380 257 380>
VStem: 31 349<458 499>
LayerCount: 2
Back
Fore
SplineSet
380 499 m 1
 257 499 l 1
 295 379 l 1
 222 357 l 1
 181 478 l 1
 78 399 l 1
 31 458 l 1
 136 536 l 1
 34 609 l 1
 80 672 l 1
 181 599 l 1
 220 720 l 1
 295 695 l 1
 257 573 l 1
 380 573 l 1
 380 499 l 1
EndSplineSet
EndChar
StartChar: comma
Encoding: 44 44 232
Width: 242
Flags: MW
HStem: -130 282<61 129 21 203>
VStem: 21 182
LayerCount: 2
Back
Fore
SplineSet
129 -130 m 1
 21 -130 l 1
 61 152 l 1
 203 152 l 1
 129 -130 l 1
EndSplineSet
EndChar
StartChar: hyphen
Encoding: 45 45 233
Width: 363
Flags: MW
HStem: 205 120<50 313 50 313>
VStem: 50 263<205 325 205 325>
LayerCount: 2
Back
Fore
SplineSet
50 205 m 1
 50 325 l 1
 313 325 l 1
 313 205 l 1
 50 205 l 1
EndSplineSet
EndChar
StartChar: period
Encoding: 46 46 234
Width: 236
Flags: MW
HStem: 0 153<50 186 50 186>
VStem: 50 136<0 153 0 153>
LayerCount: 2
Back
Fore
SplineSet
50 0 m 1
 50 153 l 1
 186 153 l 1
 186 0 l 1
 50 0 l 1
EndSplineSet
EndChar
StartChar: slash
Encoding: 47 47 385
Width: 436
Flags: MW
HStem: -24 742<146 290>
VStem: 24 388
LayerCount: 2
Back
Fore
SplineSet
146 -24 m 1
 24 20 l 1
 290 718 l 1
 412 675 l 1
 146 -24 l 1
EndSplineSet
Substitution2: "'frac' Diagonal Fractions in Latin lookup 3 subtable" fraction
EndChar
StartChar: zero
Encoding: 48 48 414
Width: 560
Flags: MW
HStem: -12 118<243.5 318.5 243.5 357> 554 118<243.5 318.5>
VStem: 35 141<245 407 245 456> 384 141<245 407>
LayerCount: 2
Back
Fore
SplineSet
280 672 m 0
 434 672 525 586 525 326 c 0
 525 66 434 -12 280 -12 c 0
 126 -12 35 66 35 326 c 0
 35 586 126 672 280 672 c 0
281 554 m 0
 206 554 176 488 176 326 c 0
 176 164 206 106 281 106 c 0
 356 106 384 164 384 326 c 0
 384 488 356 554 281 554 c 0
EndSplineSet
Substitution2: "'frac' Diagonal Fractions in Latin lookup 1 subtable" zerosuperior
EndChar
StartChar: one
Encoding: 49 49 415
Width: 560
Flags: MW
HStem: 0 21G<279 416 279 279>
VStem: 279 137<0 501 501 501>
LayerCount: 2
Back
Fore
SplineSet
78 516 m 1
 289 660 l 1
 416 660 l 1
 416 0 l 1
 279 0 l 1
 279 501 l 1
 142 408 l 1
 78 516 l 1
EndSplineSet
Substitution2: "'frac' Diagonal Fractions in Latin lookup 1 subtable" onesuperior
EndChar
StartChar: two
Encoding: 50 50 444
Width: 560
Flags: MW
HStem: 0 118<220 492 220 492> 554 118<224.5 280.5>
VStem: 340 141<433.5 495.5>
LayerCount: 2
Back
Fore
SplineSet
492 0 m 1
 67 0 l 1
 67 112 l 1
 209 261 l 2
 302 358 340 404 340 463 c 0
 340 528 315 554 246 554 c 0
 178 554 77 539 77 539 c 1
 71 641 l 1
 71 641 178 672 271 672 c 0
 399 672 481 616 481 483 c 0
 481 368 423 305 336 225 c 2
 220 118 l 1
 492 118 l 1
 492 0 l 1
EndSplineSet
Substitution2: "'frac' Diagonal Fractions in Latin lookup 1 subtable" twosuperior
EndChar
StartChar: three
Encoding: 51 51 416
Width: 560
Flags: MW
HStem: -12 118<224 284.5 203.5 348.5> 274 109.5 554 118<215 280.5>
VStem: 340 141<454 499> 352 141<165.5 220.5>
LayerCount: 2
Back
Fore
SplineSet
74 542 m 1xe8
 67 640 l 1
 67 640 175 672 255 672 c 0
 419 672 481 613 481 490 c 0xf0
 481 418 453 380 405 348 c 1
 460 318 493 288 493 199 c 0
 493 60 424 -12 273 -12 c 0
 175 -12 57 19 57 19 c 1
 69 117 l 1
 69 117 154 106 253 106 c 0
 316 106 352 135 352 196 c 0
 352 245 316 274 260 274 c 2xe8
 132 274 l 1
 132 379 l 1
 260 388 l 2
 305 391 340 435 340 468 c 0
 340 530 316 554 245 554 c 0xf0
 167 554 74 542 74 542 c 1xe8
EndSplineSet
Substitution2: "'frac' Diagonal Fractions in Latin lookup 1 subtable" threesuperior
EndChar
StartChar: four
Encoding: 52 52 445
Width: 560
Flags: MW
HStem: -4 21G<321 321 321 457> 113 114<179 321 179 321 457 518>
VStem: 321 136<-4 113 -4 113 227 407>
LayerCount: 2
Back
Fore
SplineSet
321 -4 m 1
 321 113 l 1
 43 113 l 1
 43 213 l 1
 210 660 l 1
 360 660 l 1
 179 227 l 1
 321 227 l 1
 321 407 l 1
 457 407 l 1
 457 227 l 1
 518 227 l 1
 518 113 l 1
 457 113 l 1
 457 -4 l 1
 321 -4 l 1
EndSplineSet
Substitution2: "'frac' Diagonal Fractions in Latin lookup 1 subtable" foursuperior
EndChar
StartChar: five
Encoding: 53 53 446
Width: 560
Flags: MW
HStem: -12 118<227.5 297.5 215 346> 300 118<272 305.5> 543 118<200 485 200 200>
VStem: 364 141<175.5 240.5>
LayerCount: 2
Back
Fore
SplineSet
92 661 m 1
 485 661 l 1
 485 543 l 1
 200 543 l 1
 182 392 l 1
 182 392 245 418 299 418 c 0
 425 418 505 368 505 215 c 0
 505 61 418 -12 274 -12 c 0
 181 -12 53 26 53 26 c 1
 68 125 l 1
 68 125 163 106 267 106 c 0
 328 106 364 144 364 207 c 0
 364 274 335 300 276 300 c 0
 206 300 157 280 157 280 c 1
 70 302 l 1
 92 661 l 1
EndSplineSet
Substitution2: "'frac' Diagonal Fractions in Latin lookup 1 subtable" fivesuperior
EndChar
StartChar: six
Encoding: 54 54 213
Width: 560
Flags: MW
HStem: -12 118<252.5 317.5 252.5 362.5> 302 118<275.5 319.5> 554 118<267 347 230.5 349.5>
VStem: 41 141<222 270 222 442> 384 141<177 240>
LayerCount: 2
Back
Fore
SplineSet
503 650 m 1
 491 539 l 1
 491 539 389 554 310 554 c 0
 224 554 192 491 181 390 c 1
 181 390 248 420 303 420 c 0
 442 420 525 358 525 209 c 0
 525 60 437 -12 288 -12 c 0
 122 -12 41 94 41 305 c 0
 41 579 151 672 310 672 c 0
 384 672 503 650 503 650 c 1
291 302 m 0
 237 302 184 283 184 283 c 2
 183 279 182 273 182 267 c 0
 182 177 217 106 288 106 c 0
 347 106 384 145 384 209 c 0
 384 271 348 302 291 302 c 0
EndSplineSet
Substitution2: "'frac' Diagonal Fractions in Latin lookup 1 subtable" sixsuperior
EndChar
StartChar: seven
Encoding: 55 55 417
Width: 560
Flags: MW
HStem: 542 118<74 486 74 349>
VStem: 349 137<505 542 542 542>
LayerCount: 2
Back
Fore
SplineSet
74 542 m 1
 74 660 l 1
 486 660 l 1
 486 503 l 1
 254 -18 l 1
 126 18 l 1
 349 505 l 1
 349 542 l 1
 74 542 l 1
EndSplineSet
Substitution2: "'frac' Diagonal Fractions in Latin lookup 1 subtable" sevensuperior
EndChar
StartChar: eight
Encoding: 56 56 418
Width: 560
Flags: MW
HStem: -14 118<246.5 309.5 246.5 347.5> 275 114<236 324 236 324> 555 118<252.5 308>
VStem: 33 141<169.5 216 169.5 218.5> 44 141<457 495 454 549> 375 141<454 495> 385 141<169.5 216>
LayerCount: 2
Back
Fore
SplineSet
279 673 m 0xec
 411 673 516 607 516 491 c 0xf4
 516 412 501 386 444 340 c 1
 497 306 526 262 526 189 c 0
 526 50 417 -14 278 -14 c 0
 139 -14 33 39 33 178 c 0xf2
 33 259 73 306 116 340 c 1
 59 386 44 422 44 492 c 0
 44 606 145 673 279 673 c 0xec
278 104 m 0xf2
 341 104 385 139 385 200 c 0
 385 232 363 260 324 275 c 1
 236 275 l 1
 195 259 174 232 174 200 c 0
 174 139 215 104 278 104 c 0xf2
280 555 m 0xec
 225 555 185 520 185 470 c 0
 185 438 204 411 236 389 c 1
 324 389 l 1
 356 411 375 438 375 470 c 0
 375 520 336 555 280 555 c 0xec
EndSplineSet
Substitution2: "'frac' Diagonal Fractions in Latin lookup 1 subtable" eightsuperior
EndChar
StartChar: nine
Encoding: 57 57 214
Width: 560
Flags: MW
HStem: -12 21G<211 327.5> -12 126<211 291 208.5 327.5> 239 122<239 279> 547 125<242 306>
VStem: 33 142<420.5 481.5 420.5 523.5> 377 141<376 426>
LayerCount: 2
Back
Fore
SplineSet
55 10 m 1xbc
 67 129 l 1
 67 129 169 114 248 114 c 0
 334 114 376 173 376 265 c 0
 376 266 303 239 255 239 c 0
 122 239 33 308 33 451 c 0
 33 596 134 672 269 672 c 0
 429 672 518 560 518 334 c 0
 518 72 407 -12 248 -12 c 0x7c
 174 -12 55 10 55 10 c 1xbc
267 361 m 0
 321 361 377 376 377 376 c 1
 377 476 342 547 270 547 c 0
 214 547 175 512 175 451 c 0
 175 390 211 361 267 361 c 0
EndSplineSet
Substitution2: "'frac' Diagonal Fractions in Latin lookup 1 subtable" ninesuperior
EndChar
StartChar: colon
Encoding: 58 58 235
Width: 236
Flags: MW
HStem: 0 153<50 186 50 186> 296 153<50 186 50 186>
VStem: 50 136<0 153 0 153 296 449>
LayerCount: 2
Back
Fore
SplineSet
50 296 m 1
 50 449 l 1
 186 449 l 1
 186 296 l 1
 50 296 l 1
50 0 m 1
 50 153 l 1
 186 153 l 1
 186 0 l 1
 50 0 l 1
EndSplineSet
EndChar
StartChar: semicolon
Encoding: 59 59 236
Width: 259
Flags: MW
HStem: 296 153<64 200 64 200>
VStem: 64 136<296 449 296 449>
LayerCount: 2
Back
Fore
SplineSet
27 -130 m 1
 135 -130 l 1
 209 152 l 1
 67 152 l 1
 27 -130 l 1
64 296 m 1
 64 449 l 1
 200 449 l 1
 200 296 l 1
 64 296 l 1
EndSplineSet
EndChar
StartChar: greater
Encoding: 62 62 217
Width: 560
Flags: MW
HStem: 10 479<88 88>
VStem: 88 406<10 306 146 306 196 489 196 489>
LayerCount: 2
Back
Fore
SplineSet
349 254 m 1
 88 353 l 1
 88 489 l 1
 494 306 l 1
 494 196 l 1
 88 10 l 1
 88 146 l 1
 349 254 l 1
EndSplineSet
EndChar
StartChar: question
Encoding: 63 63 238
Width: 423
Flags: MW
HStem: 0 167<110 248 110 248> 572 120<163.5 203> 661 21G<24 24>
VStem: 110 138<0 167 0 167 0 301.5> 254 142<491.5 534>
LayerCount: 2
Back
Fore
SplineSet
396 509 m 0xc8
 396 434 364 392 288 317 c 0
 261 290 248 271 248 247 c 2
 248 208 l 1
 118 208 l 1
 118 208 110 241 110 275 c 0xb0
 110 328 136 356 197 415 c 0
 238 454 254 474 254 509 c 0
 254 559 228 572 178 572 c 0
 130 572 38 557 38 557 c 1xc8
 24 661 l 1xb0
 24 661 133 692 194 692 c 0
 332 692 396 642 396 509 c 0xc8
110 0 m 1xb0
 110 167 l 1
 248 167 l 1
 248 0 l 1
 110 0 l 1xb0
EndSplineSet
EndChar
StartChar: at
Encoding: 64 64 151
Width: 914
Flags: MW
HStem: -209 112<353 486 353 489.5> 0 112<689 722.5 689 772.5> 386 114<429.5 467.5> 596 112<353 591>
VStem: 30 121<147 379 147 418.5> 244 136<208 302 208 319> 534 135<183 380 380 380> 767 121<212 391>
LayerCount: 2
Back
Fore
SplineSet
471 708 m 0
 776 708 888 576 888 271 c 0
 888 126 845 0 700 0 c 0
 629 0 590 11 561 92 c 1
 525 26 467 0 418 0 c 0
 291 0 244 77 244 244 c 0
 244 394 283 500 447 500 c 0
 522 500 669 481 669 481 c 1
 669 157 l 2
 669 121 678 112 700 112 c 0
 745 112 767 153 767 271 c 0
 767 511 711 596 471 596 c 0
 235 596 151 497 151 261 c 0
 151 33 239 -97 467 -97 c 0
 505 -97 602 -88 602 -88 c 1
 606 -199 l 1
 606 -199 512 -209 467 -209 c 0
 162 -209 30 -44 30 261 c 0
 30 576 156 708 471 708 c 0
446 114 m 0
 498 114 534 183 534 183 c 1
 534 380 l 1
 530 381 476 386 459 386 c 0
 400 386 380 346 380 258 c 0
 380 158 391 114 446 114 c 0
EndSplineSet
EndChar
StartChar: B
Encoding: 66 66 28
Width: 562
Flags: MW
HStem: 0 118<202 300 300 302> 289 115<202 298 298 300 202 298> 562 118<202 298 202 202>
VStem: 64 138<118 289 118 404 404 562> 373 141<462 511.5> 384 142<177 235>
LayerCount: 2
Back
Fore
SplineSet
64 680 m 1xf4
 298 680 l 2
 423 680 514 629 514 504 c 0xf8
 514 420 488 388 438 354 c 1
 500 323 526 280 526 196 c 0
 526 56 442 0 302 0 c 2
 64 0 l 1
 64 680 l 1xf4
300 289 m 2xf4
 202 289 l 1
 202 118 l 1
 300 118 l 2
 358 118 384 148 384 206 c 0
 384 264 358 289 300 289 c 2xf4
298 562 m 2xf8
 202 562 l 1
 202 404 l 1
 298 404 l 2
 349 404 373 435 373 486 c 0
 373 537 349 562 298 562 c 2xf8
EndSplineSet
Position2: "'cpsp' Capital Spacing in Latin lookup 0 subtable" dx=5 dy=0 dh=10 dv=0
EndChar
StartChar: D
Encoding: 68 68 35
Width: 592
Flags: MW
HStem: 0 120<202 283 202 283> 560 120<202 283 202 202>
VStem: 64 138<120 560 120 680 120 680> 410 142<288 425.5>
LayerCount: 2
Back
Fore
SplineSet
283 0 m 2
 64 0 l 1
 64 680 l 1
 283 680 l 2
 504 680 552 576 552 358 c 0
 552 124 504 0 283 0 c 2
410 358 m 0
 410 493 403 560 283 560 c 2
 202 560 l 1
 202 120 l 1
 283 120 l 2
 403 120 410 218 410 358 c 0
EndSplineSet
Position2: "'cpsp' Capital Spacing in Latin lookup 0 subtable" dx=5 dy=0 dh=10 dv=0
EndChar
StartChar: F
Encoding: 70 70 48
Width: 485
Flags: MW
HStem: 0 21G<64 64 64 202> 235 120<202 412 202 412> 560 120<202 468 202 202>
VStem: 64 138<0 235 355 560>
LayerCount: 2
Back
Fore
SplineSet
64 0 m 1
 64 680 l 1
 468 680 l 1
 468 560 l 1
 202 560 l 1
 202 355 l 1
 412 355 l 1
 412 235 l 1
 202 235 l 1
 202 0 l 1
 64 0 l 1
EndSplineSet
Position2: "'cpsp' Capital Spacing in Latin lookup 0 subtable" dx=5 dy=0 dh=10 dv=0
EndChar
StartChar: G
Encoding: 71 71 49
Width: 572
Flags: MW
HStem: -12 120<259 329 259 334.5> 264 114<325 522 325 384> 572 120<262 359.5> 665 21G<522 522>
VStem: 38 142<276 412 276 462> 384 138<112 264 264 264>
LayerCount: 2
Back
Fore
SplineSet
325 264 m 1xdc
 325 378 l 1
 522 378 l 1
 522 6 l 1
 522 6 372 -12 297 -12 c 0
 96 -12 38 136 38 347 c 0
 38 577 112 692 307 692 c 0xec
 423 692 522 665 522 665 c 1xdc
 518 559 l 1
 518 559 398 572 321 572 c 0xec
 203 572 180 477 180 347 c 0
 180 205 201 108 317 108 c 0
 341 108 384 112 384 112 c 1
 384 264 l 1
 325 264 l 1xdc
EndSplineSet
Position2: "'cpsp' Capital Spacing in Latin lookup 0 subtable" dx=5 dy=0 dh=10 dv=0
EndChar
StartChar: H
Encoding: 72 72 54
Width: 613
Flags: MW
HStem: 0 21G<64 202 64 64 411 549 411 411> 288 120<202 411 202 411>
VStem: 64 138<0 288 0 408 408 680> 411 138<0 288 288 288 408 680 0 680>
LayerCount: 2
Back
Fore
SplineSet
411 0 m 1
 411 288 l 1
 202 288 l 1
 202 0 l 1
 64 0 l 1
 64 680 l 1
 202 680 l 1
 202 408 l 1
 411 408 l 1
 411 680 l 1
 549 680 l 1
 549 0 l 1
 411 0 l 1
EndSplineSet
Position2: "'cpsp' Capital Spacing in Latin lookup 0 subtable" dx=5 dy=0 dh=10 dv=0
EndChar
StartChar: I
Encoding: 73 73 57
Width: 266
Flags: MW
HStem: 0 21G<64 64 64 202>
VStem: 64 138<0 680 0 680>
LayerCount: 2
Back
Fore
SplineSet
64 0 m 1
 64 680 l 1
 202 680 l 1
 202 0 l 1
 64 0 l 1
EndSplineSet
Position2: "'cpsp' Capital Spacing in Latin lookup 0 subtable" dx=5 dy=0 dh=10 dv=0
EndChar
StartChar: J
Encoding: 74 74 67
Width: 282
Flags: MW
HStem: -69 749<83 110>
VStem: 83 138<127 680>
LayerCount: 2
Back
Fore
SplineSet
221 680 m 1
 221 126 l 2
 221 -17 204 -69 16 -69 c 1
 16 51 l 1
 78 53 83 74 83 127 c 2
 83 680 l 1
 221 680 l 1
EndSplineSet
Position2: "'cpsp' Capital Spacing in Latin lookup 0 subtable" dx=5 dy=0 dh=10 dv=0
EndChar
StartChar: K
Encoding: 75 75 69
Width: 550
Flags: MW
HStem: 0 21G<64 202 64 64 388 541 388 388> 272 120
VStem: 64 138<0 268 0 388 388 680>
LayerCount: 2
Back
Fore
SplineSet
388 0 m 1
 279 276 l 1
 202 268 l 1
 202 0 l 1
 64 0 l 1
 64 680 l 1
 202 680 l 1
 202 388 l 1
 275 396 l 1
 380 680 l 1
 533 680 l 1
 396 351 l 1
 541 0 l 1
 388 0 l 1
EndSplineSet
Position2: "'cpsp' Capital Spacing in Latin lookup 0 subtable" dx=5 dy=0 dh=10 dv=0
EndChar
StartChar: M
Encoding: 77 77 76
Width: 787
Flags: MW
HStem: 0 21G<64 64 64 192 595 595 595 723> 560 120<192 211 192 192 577 595 577 577>
VStem: 64 128<0 560 0 680 0 680> 595 128<0 560 560 560>
LayerCount: 2
Back
Fore
SplineSet
64 0 m 1
 64 680 l 1
 294 680 l 1
 395 164 l 1
 495 680 l 1
 723 680 l 1
 723 0 l 1
 595 0 l 1
 595 560 l 1
 577 560 l 1
 478 30 l 1
 309 30 l 1
 211 560 l 1
 192 560 l 1
 192 0 l 1
 64 0 l 1
EndSplineSet
Position2: "'cpsp' Capital Spacing in Latin lookup 0 subtable" dx=5 dy=0 dh=10 dv=0
EndChar
StartChar: P
Encoding: 80 80 94
Width: 546
Flags: MW
HStem: 0 21G<64 202 64 64> 187 120<202 281 281 291 202 281> 560 120<202 280 202 202>
VStem: 64 138<0 187 307 560> 379 142<389.5 491.5>
LayerCount: 2
Back
Fore
SplineSet
291 187 m 2
 202 187 l 1
 202 0 l 1
 64 0 l 1
 64 680 l 1
 290 680 l 2
 439 680 521 613 521 439 c 0
 521 249 433 187 291 187 c 2
202 307 m 1
 281 307 l 2
 345 307 379 335 379 444 c 0
 379 539 345 560 280 560 c 2
 202 560 l 1
 202 307 l 1
EndSplineSet
Position2: "'cpsp' Capital Spacing in Latin lookup 0 subtable" dx=5 dy=0 dh=10 dv=0
EndChar
StartChar: S
Encoding: 83 83 100
Width: 503
Flags: MW
HStem: -12 120<215 275 215 323.5> 572 120<233.5 300> 667 21G<450 450>
VStem: 30 140<478 528.5 478 555.5> 334 140<157 217.5>
LayerCount: 2
Back
Fore
SplineSet
450 667 m 1xb8
 444 559 l 1
 444 559 330 572 270 572 c 0
 197 572 170 555 170 502 c 0
 170 454 193 443 291 408 c 0
 424 361 474 329 474 199 c 0
 474 52 402 -12 245 -12 c 0
 155 -12 46 11 46 11 c 1
 53 122 l 1
 53 122 185 108 245 108 c 0
 305 108 334 127 334 187 c 0
 334 248 308 259 219 288 c 0
 87 331 30 380 30 482 c 0
 30 629 103 692 260 692 c 0xd8
 350 692 450 667 450 667 c 1xb8
EndSplineSet
Position2: "'cpsp' Capital Spacing in Latin lookup 0 subtable" dx=5 dy=0 dh=10 dv=0
EndChar
StartChar: V
Encoding: 86 86 121
Width: 554
Flags: MW
HStem: 0 120<260 293 260 394 159 293>
VStem: 12 531<680 680>
LayerCount: 2
Back
Fore
SplineSet
405 680 m 1
 543 680 l 1
 394 0 l 1
 159 0 l 1
 12 680 l 1
 150 680 l 1
 260 120 l 1
 293 120 l 1
 405 680 l 1
EndSplineSet
Position2: "'cpsp' Capital Spacing in Latin lookup 0 subtable" dx=5 dy=0 dh=10 dv=0
EndChar
StartChar: X
Encoding: 88 88 127
Width: 523
Flags: MW
HStem: 0 21G<4 150 4 4 373 519 373 373>
VStem: 4 515<0 0>
LayerCount: 2
Back
Fore
SplineSet
154 680 m 1
 261 441 l 1
 368 680 l 1
 513 680 l 1
 344 342 l 1
 519 0 l 1
 373 0 l 1
 261 243 l 1
 150 0 l 1
 4 0 l 1
 182 342 l 1
 8 680 l 1
 154 680 l 1
EndSplineSet
Position2: "'cpsp' Capital Spacing in Latin lookup 0 subtable" dx=5 dy=0 dh=10 dv=0
EndChar
StartChar: Z
Encoding: 90 90 133
Width: 487
Flags: MW
HStem: 0 120<198 451 198 451> 560 120<36 451 36 288>
VStem: 36 162<120 131 131 131> 288 163<549 560 560 560>
LayerCount: 2
Back
Fore
SplineSet
36 560 m 1
 36 680 l 1
 451 680 l 1
 451 549 l 1
 198 144 l 1
 198 120 l 1
 451 120 l 1
 451 0 l 1
 36 0 l 1
 36 131 l 1
 288 536 l 1
 288 560 l 1
 36 560 l 1
EndSplineSet
Position2: "'cpsp' Capital Spacing in Latin lookup 0 subtable" dx=5 dy=0 dh=10 dv=0
EndChar
StartChar: bracketleft
Encoding: 91 91 218
Width: 329
Flags: MW
HStem: -122 114<191 299 191 299> 633 114<191 299 191 191>
VStem: 61 130<-8 633 -8 747 -8 747>
LayerCount: 2
Back
Fore
SplineSet
61 747 m 1
 299 747 l 1
 299 633 l 1
 191 633 l 1
 191 -8 l 1
 299 -8 l 1
 299 -122 l 1
 61 -122 l 1
 61 747 l 1
EndSplineSet
Substitution2: "'case' Case-Sensitive Forms in Latin lookup 4 subtable" bracketleft.cap
EndChar
StartChar: backslash
Encoding: 92 92 219
Width: 503
Flags: MW
HStem: 0 21G<335 474 335 335> 682 20G<27 167 167 167>
VStem: 27 447
LayerCount: 2
Back
Fore
SplineSet
474 0 m 1
 335 0 l 1
 27 702 l 1
 167 702 l 1
 474 0 l 1
EndSplineSet
EndChar
StartChar: bracketright
Encoding: 93 93 220
Width: 329
Flags: MW
HStem: -122 114<30 138 30 268 30 138> 633 114<30 138 30 268>
VStem: 138 130<-8 633 633 633>
LayerCount: 2
Back
Fore
SplineSet
268 -122 m 1
 30 -122 l 1
 30 -8 l 1
 138 -8 l 1
 138 633 l 1
 30 633 l 1
 30 747 l 1
 268 747 l 1
 268 -122 l 1
EndSplineSet
Substitution2: "'case' Case-Sensitive Forms in Latin lookup 4 subtable" bracketright.cap
EndChar
StartChar: asciicircum
Encoding: 94 94 254
Width: 560
Flags: MW
HStem: 313 347<18 326 18 326 212 520 212 380>
VStem: 18 502<313 313>
LayerCount: 2
Back
Fore
SplineSet
380 313 m 1
 271 530 l 1
 158 313 l 1
 18 313 l 1
 212 660 l 1
 326 660 l 1
 520 313 l 1
 380 313 l 1
EndSplineSet
EndChar
StartChar: underscore
Encoding: 95 95 239
Width: 608
Flags: MW
HStem: -205 125<80 528 80 528>
VStem: 80 448<-205 -80 -205 -80>
LayerCount: 2
Back
Fore
SplineSet
80 -80 m 1
 528 -80 l 1
 528 -205 l 1
 80 -205 l 1
 80 -80 l 1
EndSplineSet
EndChar
StartChar: grave
Encoding: 96 96 11
Width: 518
Flags: MW
HStem: 661 21G 682 21G<368 368>
VStem: 88 280<661 682>
LayerCount: 2
Back
Fore
SplineSet
125 772 m 1x60
 368 682 l 1
 335 583 l 1x60
 88 661 l 1xa0
 125 772 l 1x60
EndSplineSet
EndChar
StartChar: b
Encoding: 98 98 386
Width: 511
Flags: MW
HStem: -11 114<241.5 286.5 241.5 322> 398 114<278 305.5> 680 20G<55 189 189 189>
VStem: 55 134<108 361 467 700> 343 136<203 291.5>
LayerCount: 2
Back
Fore
SplineSet
309 512 m 0
 433 512 479 424 479 258 c 0
 479 60 400 -11 244 -11 c 0
 198 -11 55 2 55 2 c 1
 55 700 l 1
 189 700 l 1
 189 467 l 1
 189 467 247 512 309 512 c 0
248 103 m 0
 325 103 343 148 343 258 c 0
 343 325 337 398 274 398 c 0
 230 398 189 361 189 361 c 1
 189 108 l 1
 189 108 235 103 248 103 c 0
EndSplineSet
EndChar
StartChar: c
Encoding: 99 99 387
Width: 402
Flags: MW
HStem: -12 116<225 262> 395 116<226.5 265 162.5 283> 491 20G<162.5 265>
VStem: 32 136<203.5 299.5 203.5 339>
LayerCount: 2
Back
Fore
SplineSet
228 511 m 0xd0
 302 511 371 490 371 490 c 1xb0
 367 388 l 1
 367 388 301 395 265 395 c 0
 188 395 168 348 168 251 c 0
 168 156 185 104 265 104 c 0
 301 104 367 110 367 110 c 1
 371 11 l 1
 371 11 299 -12 225 -12 c 0
 81 -12 32 85 32 251 c 0
 32 427 97 511 228 511 c 0xd0
EndSplineSet
EndChar
StartChar: d
Encoding: 100 100 405
Width: 512
Flags: MW
HStem: -12 114<210 241> 0 102<210 457 210 326> 397 114<215 247 156.5 260.5> 680 20G<323 457 457 457>
VStem: 33 136<198 293.5 198 330.5> 323 134<161 388 388 388 497 700 0 700>
LayerCount: 2
Back
Fore
SplineSet
457 700 m 1xbc
 457 0 l 1
 326 0 l 1x7c
 324 43 l 1
 324 43 284 -12 198 -12 c 0
 82 -12 33 78 33 245 c 0
 33 416 86 511 227 511 c 0
 267 511 323 497 323 497 c 1
 323 700 l 1
 457 700 l 1xbc
323 161 m 1xbc
 323 388 l 1
 323 388 278 397 243 397 c 0
 187 397 169 342 169 245 c 0
 169 151 182 102 238 102 c 0
 286 102 323 161 323 161 c 1xbc
EndSplineSet
EndChar
StartChar: f
Encoding: 102 102 389
Width: 326
Flags: MW
HStem: -210 21G<74 197 74 74> 386 114<29 74 29 74 208 311> 598 114<165.5 261.5> 680 20G<316 316>
VStem: 74 134<0 386 0 386 0 386 500 519 0 520>
LayerCount: 2
Back
Fore
SplineSet
208 386 m 1xd8
 208 0 l 1
 197 -210 l 1
 74 -210 l 1
 74 386 l 1
 29 386 l 1
 29 500 l 1
 74 500 l 1
 74 520 l 2
 74 654 119 712 212 712 c 0xe8
 243 712 316 700 316 700 c 1xd8
 314 593 l 1
 314 593 277 598 246 598 c 0
 210 598 208 561 208 519 c 2xe8
 208 500 l 1
 311 500 l 1
 311 386 l 1
 208 386 l 1xd8
EndSplineSet
EndChar
StartChar: h
Encoding: 104 104 140
Width: 521
Flags: MW
HStem: 0 21G<55 189 55 55 337 337 337 471> 398 114<270 298.5> 680 20G<55 189 189 189>
VStem: 55 134<0 343 456 700> 337 134<0 276 276 310 0 320.5>
LayerCount: 2
Back
Fore
SplineSet
189 0 m 1
 55 0 l 1
 55 700 l 1
 189 700 l 1
 189 456 l 1
 189 456 232 512 308 512 c 0
 430 512 471 417 471 310 c 2
 471 0 l 1
 337 0 l 1
 337 276 l 2
 337 365 322 398 275 398 c 0
 229 398 189 343 189 343 c 1
 189 0 l 1
EndSplineSet
EndChar
StartChar: j
Encoding: 106 106 391
Width: 244
Flags: MW
HStem: -230 21G<5 5> 480 20G<55 189 189 189> 553 137<55 189 55 189>
VStem: 55 134<0 500 553 690>
LayerCount: 2
Back
Fore
SplineSet
55 0 m 2
 55 500 l 1
 189 500 l 1
 189 0 l 2
 189 -126 175 -152 5 -230 c 1
 -43 -129 l 1
 51 -71 55 -64 55 0 c 2
55 553 m 1
 55 690 l 1
 189 690 l 1
 189 553 l 1
 55 553 l 1
EndSplineSet
EndChar
StartChar: m
Encoding: 109 109 394
Width: 791
Flags: MW
HStem: 0 21G<55 189 55 55 335 469 335 335 607 607 607 741> 398 102<55 298> 398 114<271 298 541 567.5>
VStem: 55 134<0 339 0 500> 335 134<0 262 262 280> 607 134<0 276 276 295 0 320.5>
LayerCount: 2
Back
Fore
SplineSet
469 0 m 1xbc
 335 0 l 1
 335 262 l 2
 335 366 323 398 273 398 c 0
 229 398 189 339 189 339 c 1xbc
 189 0 l 1
 55 0 l 1
 55 500 l 1
 186 500 l 1xdc
 188 451 l 1
 188 451 234 512 308 512 c 0
 407 512 439 440 439 440 c 1
 439 440 504 512 578 512 c 0
 694 512 741 417 741 295 c 2
 741 0 l 1
 607 0 l 1
 607 276 l 2
 607 365 592 398 543 398 c 0
 499 398 466 343 466 343 c 1
 466 343 469 306 469 280 c 2
 469 0 l 1xbc
EndSplineSet
EndChar
StartChar: n
Encoding: 110 110 149
Width: 521
Flags: MW
HStem: 0 21G<55 189 55 55 337 337 337 471> 398 102<55 297.5> 398 114<270 297.5>
VStem: 55 134<0 339> 337 134<0 276 276 309 0 320.5>
LayerCount: 2
Back
Fore
SplineSet
189 0 m 1xb8
 55 0 l 1
 55 500 l 1
 186 500 l 1
 188 451 l 1xd8
 188 451 232 512 308 512 c 0
 429 512 471 417 471 309 c 2
 471 0 l 1
 337 0 l 1
 337 276 l 2
 337 365 322 398 273 398 c 0
 229 398 189 339 189 339 c 1
 189 0 l 1xb8
EndSplineSet
EndChar
StartChar: p
Encoding: 112 112 395
Width: 512
Flags: MW
HStem: -210 21G<55 55 55 189> -11 114<263 296 250.5 355.5> 398 102<55 302> 398 114<267 302>
VStem: 55 134<-210 3 -210 111 111 339> 343 136<204.5 302>
LayerCount: 2
Back
Fore
SplineSet
55 -210 m 1xdc
 55 500 l 1
 186 500 l 1
 188 457 l 1xec
 188 457 232 512 302 512 c 0
 430 512 479 422 479 255 c 0
 479 84 426 -11 285 -11 c 0
 241 -11 189 3 189 3 c 1
 189 -210 l 1
 55 -210 l 1xdc
274 398 m 0xdc
 230 398 189 339 189 339 c 1
 189 111 l 1
 189 111 234 103 267 103 c 0
 325 103 343 154 343 255 c 0
 343 349 330 398 274 398 c 0xdc
EndSplineSet
EndChar
StartChar: q
Encoding: 113 113 396
Width: 511
Flags: MW
HStem: -12 114<210 248> 397 114<219 264.5> 491 20G<164.5 274>
VStem: 33 136<201 298.5 201 333.5> 323 134<-197 42 42 42 163 391 391 391>
LayerCount: 2
Back
Fore
SplineSet
207 -12 m 0xd8
 84 -12 33 79 33 250 c 0
 33 417 88 511 241 511 c 0xd8
 307 511 457 492 457 492 c 1xb8
 457 -197 l 1
 323 -197 l 1
 323 42 l 1
 323 42 289 -12 207 -12 c 0xd8
250 397 m 0
 188 397 169 347 169 250 c 0
 169 152 182 102 238 102 c 0
 285 102 323 163 323 163 c 1
 323 391 l 1
 323 391 279 397 250 397 c 0
EndSplineSet
EndChar
StartChar: t
Encoding: 116 116 398
Width: 331
Flags: MW
HStem: -12 114<222 233> 386 114<20 70 20 70 204 313>
VStem: 70 134<154 162 162 386 500 628>
LayerCount: 2
Back
Fore
SplineSet
313 386 m 1
 204 386 l 1
 204 162 l 2
 204 127 208 102 236 102 c 0
 270 102 308 107 308 107 c 1
 314 6 l 1
 314 6 250 -12 216 -12 c 0
 97 -12 70 46 70 154 c 2
 70 386 l 1
 20 386 l 1
 20 500 l 1
 70 500 l 1
 70 628 l 1
 204 628 l 1
 204 500 l 1
 313 500 l 1
 313 386 l 1
EndSplineSet
EndChar
StartChar: u
Encoding: 117 117 399
Width: 522
Flags: MW
HStem: -12 114<224.5 252> 0 102<224.5 467 224.5 336> 480 20G<51 185 185 185 333 467 467 467>
VStem: 51 134<188 224 224 500> 333 134<161 500 0 500>
LayerCount: 2
Back
Fore
SplineSet
333 500 m 1xb8
 467 500 l 1
 467 0 l 1
 336 0 l 1x78
 334 49 l 1
 334 49 290 -12 214 -12 c 0
 98 -12 51 61 51 188 c 2
 51 500 l 1
 185 500 l 1
 185 224 l 2
 185 135 200 102 249 102 c 0
 293 102 333 161 333 161 c 1
 333 500 l 1xb8
EndSplineSet
EndChar
StartChar: v
Encoding: 118 118 400
Width: 456
Flags: MW
HStem: 0 111<219 237 219 329 127 237> 480 20G<11 143 143 143 313 445 445 445>
VStem: 11 434<500 500>
LayerCount: 2
Back
Fore
SplineSet
11 500 m 1
 143 500 l 1
 219 111 l 1
 237 111 l 1
 313 500 l 1
 445 500 l 1
 329 0 l 1
 127 0 l 1
 11 500 l 1
EndSplineSet
EndChar
StartChar: x
Encoding: 120 120 402
Width: 433
Flags: MW
HStem: 0 21G<7 143 7 7 288 424 288 288> 480 20G<10 148 148 148 288 424 424 424>
VStem: 7 417<0 0>
LayerCount: 2
Back
Fore
SplineSet
10 500 m 1
 148 500 l 1
 220 344 l 1
 288 500 l 1
 424 500 l 1
 293 249 l 1
 424 0 l 1
 288 0 l 1
 218 154 l 1
 143 0 l 1
 7 0 l 1
 142 249 l 1
 10 500 l 1
EndSplineSet
EndChar
StartChar: z
Encoding: 122 122 404
Width: 418
Flags: MW
HStem: 0 114<181 384 181 384> 386 114<34 384 34 240>
VStem: 34 350<0 112 112 112 390 500>
LayerCount: 2
Back
Fore
SplineSet
34 386 m 1
 34 500 l 1
 384 500 l 1
 384 390 l 1
 181 114 l 1
 384 114 l 1
 384 0 l 1
 34 0 l 1
 34 112 l 1
 240 386 l 1
 34 386 l 1
EndSplineSet
EndChar
StartChar: braceleft
Encoding: 123 123 240
Width: 334
Flags: MW
HStem: -133 115<301 301> 644 115<301 301>
VStem: 96 144<-30 208>
LayerCount: 2
Back
Fore
SplineSet
240 173 m 0
 240 135 233 78 233 37 c 0
 233 -5 259 -14 301 -18 c 1
 301 -133 l 1
 193 -129 96 -100 96 40 c 0
 96 79 103 122 103 165 c 0
 103 217 66 244 15 260 c 1
 15 365 l 1
 72 380 102 409 102 464 c 0
 102 494 96 543 96 583 c 0
 96 713 161 754 301 759 c 1
 301 644 l 1
 243 639 233 631 233 593 c 2
 240 446 l 2
 240 368 213 337 151 313 c 1
 213 290 240 243 240 173 c 0
EndSplineSet
Substitution2: "'case' Case-Sensitive Forms in Latin lookup 4 subtable" braceleft.cap
EndChar
StartChar: bar
Encoding: 124 124 221
Width: 254
Flags: MW
HStem: -210 21G<60 60 60 194> 680 20G<60 194 194 194>
VStem: 60 134<-210 700 -210 700>
LayerCount: 2
Back
Fore
SplineSet
60 -210 m 1
 60 700 l 1
 194 700 l 1
 194 -210 l 1
 60 -210 l 1
EndSplineSet
EndChar
StartChar: braceright
Encoding: 125 125 241
Width: 333
Flags: MW
HStem: -136 115<32 32> 641 115<32 32>
VStem: 93 144<-25 216>
LayerCount: 2
Back
Fore
SplineSet
93 450 m 0
 93 488 100 545 100 586 c 0
 100 628 74 637 32 641 c 1
 32 756 l 1
 140 752 237 723 237 583 c 0
 237 544 230 501 230 458 c 0
 230 406 267 379 318 363 c 1
 318 258 l 1
 261 243 231 214 231 159 c 0
 231 129 237 80 237 40 c 0
 237 -90 172 -131 32 -136 c 1
 32 -21 l 1
 90 -16 100 -8 100 30 c 2
 93 177 l 2
 93 255 120 286 182 310 c 1
 120 333 93 380 93 450 c 0
EndSplineSet
Substitution2: "'case' Case-Sensitive Forms in Latin lookup 4 subtable" braceright.cap
EndChar
StartChar: asciitilde
Encoding: 126 126 211
Width: 560
Flags: MW
HStem: 170 120<363 406.5 363 414> 214 120<156 199>
VStem: 61 436<221 282>
LayerCount: 2
Back
Fore
SplineSet
489 328 m 1xa0
 497 221 l 1
 497 221 444 170 384 170 c 0xa0
 330 170 218 214 180 214 c 0
 132 214 71 175 71 175 c 1
 61 282 l 1
 61 282 124 334 184 334 c 0x60
 238 334 339 290 387 290 c 0
 426 290 489 328 489 328 c 1xa0
EndSplineSet
EndChar
StartChar: exclamdown
Encoding: 161 161 281
Width: 249
Flags: MW
HStem: 347 153<56 192 56 192>
VStem: 58 133
LayerCount: 2
Back
Fore
SplineSet
190 242 m 1
 192 -200 l 1
 56 -200 l 1
 60 242 l 1
 190 242 l 1
192 500 m 1
 192 347 l 1
 56 347 l 1
 56 500 l 1
 192 500 l 1
EndSplineSet
Substitution2: "'case' Case-Sensitive Forms in Latin lookup 4 subtable" exclamdown.cap
EndChar
StartChar: cent
Encoding: 162 162 242
Width: 560
Flags: MW
HStem: -74 227<271 354 294.5 354 294.5 377> 346 224<295 353>
VStem: 94 134<216 286 216 320.5> 271 106<-74 29 29 29 470 570>
LayerCount: 2
Back
Fore
SplineSet
271 -74 m 1
 271 29 l 1
 155 35 94 141 94 250 c 0
 94 391 170 458 271 470 c 1
 271 570 l 1
 377 570 l 1
 377 465 l 1
 414 461 449 455 449 455 c 1
 445 343 l 1
 445 343 371 346 335 346 c 0
 255 346 228 322 228 250 c 0
 228 182 253 153 336 153 c 0
 372 153 445 157 445 157 c 1
 449 46 l 1
 449 46 414 39 377 34 c 1
 377 -74 l 1
 271 -74 l 1
EndSplineSet
EndChar
StartChar: sterling
Encoding: 163 163 249
Width: 560
Flags: MW
HStem: 0 114<74 163 300 404 74 163> 329 114<86 163 86 163 300 450> 561 118<324 349 263 370>
VStem: 163 137<114 329 114 329 443 466>
LayerCount: 2
Back
Fore
SplineSet
468 654 m 1
 462 553 l 1
 462 553 394 561 346 561 c 0
 302 561 300 518 300 466 c 2
 300 443 l 1
 450 443 l 1
 450 329 l 1
 300 329 l 1
 300 114 l 1
 404 114 l 1
 470 129 l 1
 489 18 l 1
 413 0 l 1
 74 0 l 1
 74 114 l 1
 163 114 l 1
 163 329 l 1
 86 329 l 1
 86 443 l 1
 163 443 l 1
 163 479 l 2
 163 603 201 679 325 679 c 0
 373 679 468 654 468 654 c 1
EndSplineSet
EndChar
StartChar: currency
Encoding: 164 164 273
Width: 560
Flags: MW
HStem: 55 122 327 121
VStem: 84 121 355 121
LayerCount: 2
Back
Fore
SplineSet
438 2 m 1
 365 75 l 1
 311 49 248 49 195 75 c 1
 122 2 l 1
 30 94 l 1
 103 167 l 1
 77 220 77 283 103 337 c 1
 30 410 l 1
 122 502 l 1
 195 429 l 1
 248 454 311 454 365 429 c 1
 438 502 l 1
 530 410 l 1
 457 337 l 1
 482 283 482 220 457 167 c 1
 530 94 l 1
 438 2 l 1
227 199 m 0
 256 170 304 170 333 199 c 0
 362 228 362 276 333 305 c 0
 304 334 256 334 227 305 c 0
 198 276 198 228 227 199 c 0
EndSplineSet
EndChar
StartChar: yen
Encoding: 165 165 215
Width: 560
Flags: MW
HStem: 0 21G<213 350 213 213> 125 118<71 213 71 213 350 488> 276 118<71 138 71 138 71 209 421 488>
VStem: 213 137<0 125 0 125 243 269>
LayerCount: 2
Back
Fore
SplineSet
71 276 m 1
 71 394 l 1
 138 394 l 1
 -5 660 l 1
 151 660 l 1
 280 419 l 1
 408 660 l 1
 564 660 l 1
 421 394 l 1
 488 394 l 1
 488 276 l 1
 354 276 l 1
 350 269 l 1
 350 243 l 1
 488 243 l 1
 488 125 l 1
 350 125 l 1
 350 0 l 1
 213 0 l 1
 213 125 l 1
 71 125 l 1
 71 243 l 1
 213 243 l 1
 213 269 l 1
 209 276 l 1
 71 276 l 1
EndSplineSet
EndChar
StartChar: brokenbar
Encoding: 166 166 204
Width: 258
Flags: MW
HStem: -210 21G<62 196 62 62> 680 20G<62 196 196 196>
VStem: 62 134<-210 170 -210 170 328 700>
LayerCount: 2
Back
Fore
SplineSet
62 700 m 1
 196 700 l 1
 196 328 l 1
 62 328 l 1
 62 700 l 1
62 170 m 1
 196 170 l 1
 196 -210 l 1
 62 -210 l 1
 62 170 l 1
EndSplineSet
EndChar
StartChar: section
Encoding: 167 167 157
Width: 479
Flags: MW
HStem: -188 119<195.5 251 193 299> 518 119<225.5 285.5>
VStem: 31 128<220.5 237> 49 123<445.5 481 445.5 516> 312 120<-35 5> 315 129<219 242.5>
LayerCount: 2
Back
Fore
SplineSet
421 613 m 1xd8
 415 502 l 1
 415 502 308 518 263 518 c 0
 188 518 172 499 172 463 c 0
 172 428 190 420 300 393 c 0
 399 368 444 338 444 241 c 0xd4
 444 197 422 142 398 103 c 1
 422 81 432 33 432 -5 c 0
 432 -135 370 -188 228 -188 c 0
 163 -188 52 -166 52 -166 c 1
 65 -55 l 1
 65 -55 167 -69 219 -69 c 0
 283 -69 312 -55 312 -15 c 0
 312 25 265 32 178 57 c 0
 81 85 31 109 31 213 c 0xe8
 31 261 64 315 89 346 c 1
 57 375 49 405 49 453 c 0
 49 579 123 637 255 637 c 0
 321 637 421 613 421 613 c 1xd8
239 283 m 0
 219 289 182 297 174 301 c 1
 167 289 159 258 159 238 c 0
 159 203 169 191 215 180 c 0xe8
 254 170 277 160 298 151 c 1
 308 164 315 198 315 222 c 0
 315 263 279 272 239 283 c 0
EndSplineSet
EndChar
StartChar: dieresis
Encoding: 168 168 8
Width: 514
Flags: MW
HStem: 601 135<73 184 73 184 267 377 73 267>
VStem: 73 111<601 736 601 736> 267 110<601 736 601 736>
LayerCount: 2
Back
Fore
SplineSet
73 601 m 1
 73 736 l 1
 184 736 l 1
 184 601 l 1
 73 601 l 1
267 601 m 1
 267 736 l 1
 377 736 l 1
 377 601 l 1
 267 601 l 1
EndSplineSet
EndChar
StartChar: copyright
Encoding: 169 169 158
Width: 628
Flags: MW
HStem: 150 60<251 374.5 251 397> 269 95<319.5 348 319.5 350> 503 95<319 348> 658 60<252 374>
VStem: 38 62<373 495 373 516> 194 103<412.5 463.5 412.5 500> 527 62<372.5 495>
LayerCount: 2
Back
Fore
SplineSet
38 434 m 0
 38 598 154 718 314 718 c 0
 482 718 589 588 589 434 c 0
 589 273 482 150 312 150 c 0
 155 150 38 274 38 434 c 0
100 434 m 0
 100 312 190 210 312 210 c 0
 437 210 527 311 527 434 c 0
 527 556 435 658 313 658 c 0
 191 658 100 556 100 434 c 0
399 369 m 1
 406 287 l 1
 406 287 378 269 322 269 c 0
 234 269 194 303 194 439 c 0
 194 561 234 598 326 598 c 0
 374 598 406 583 406 583 c 1
 399 497 l 1
 399 497 364 503 332 503 c 0
 306 503 297 488 297 439 c 0
 297 386 307 364 332 364 c 0
 364 364 399 369 399 369 c 1
EndSplineSet
EndChar
StartChar: ordfeminine
Encoding: 170 170 208
Width: 403
Flags: MW
HStem: 314 88<109 192> 456.5 70 565 94<164 200.5>
VStem: 36 115<418.5 437 418.5 457> 230 115<418 458 458 458 528 544 403 550 403 555>
LayerCount: 2
Back
Fore
SplineSet
345 544 m 2
 345 403 l 1
 349 400 358 396 363 395 c 1
 361 313 l 1
 262 313 248 325 234 346 c 1
 234 346 192 314 145 314 c 0
 73 314 36 357 36 424 c 0
 36 490 78 521 163 525 c 2
 230 528 l 1
 230 550 l 2
 230 560 215 565 186 565 c 0
 142 565 55 558 55 558 c 1
 52 633 l 1
 52 633 122 659 193 659 c 0
 287 659 345 638 345 544 c 2
230 458 m 1
 183 455 l 2
 162 453 151 446 151 428 c 0
 151 409 161 402 182 402 c 0
 202 402 230 418 230 418 c 1
 230 458 l 1
EndSplineSet
EndChar
StartChar: guillemotleft
Encoding: 171 171 383
Width: 549
Flags: MW
HStem: 41 395<238 238 238 499>
VStem: 28 210<41 274 41 274> 289 210<41 274 41 274>
LayerCount: 2
Back
Fore
SplineSet
499 436 m 1
 499 316 l 1
 398 243 l 1
 499 161 l 1
 499 41 l 1
 289 210 l 1
 289 274 l 1
 499 436 l 1
238 436 m 1
 238 316 l 1
 137 243 l 1
 238 161 l 1
 238 41 l 1
 28 210 l 1
 28 274 l 1
 238 436 l 1
EndSplineSet
EndChar
StartChar: logicalnot
Encoding: 172 172 277
Width: 560
Flags: MW
HStem: 238 120<56 372 56 492>
VStem: 372 120<104 238 238 238>
LayerCount: 2
Back
Fore
SplineSet
56 358 m 1
 492 358 l 1
 492 104 l 1
 372 104 l 1
 372 238 l 1
 56 238 l 1
 56 358 l 1
EndSplineSet
EndChar
StartChar: registered
Encoding: 174 174 160
Width: 628
Flags: MW
HStem: 150 60<253.5 375 253.5 397.5> 369 71<289 316 316 318 289 289> 519 72<288 288 288 315> 658 60<252.5 374>
VStem: 38 62<373 495 373 516> 193 96<276 369 276 591> 350 93<467.5 491> 527 62<372.5 495>
LayerCount: 2
Back
Fore
SplineSet
38 434 m 0
 38 598 154 718 313 718 c 0
 482 718 589 588 589 434 c 0
 589 273 482 150 313 150 c 0
 155 150 38 274 38 434 c 0
100 434 m 0
 100 312 194 210 313 210 c 0
 437 210 527 311 527 434 c 0
 527 556 435 658 313 658 c 0
 192 658 100 556 100 434 c 0
346 276 m 1
 318 369 l 1
 289 369 l 1
 289 276 l 1
 193 276 l 1
 193 591 l 1
 329 591 l 2
 394 591 443 562 443 486 c 0
 443 434 434 410 405 386 c 1
 446 276 l 1
 346 276 l 1
288 519 m 1
 288 440 l 1
 316 440 l 2
 338 440 350 456 350 479 c 0
 350 503 339 519 315 519 c 2
 288 519 l 1
EndSplineSet
EndChar
StartChar: macron
Encoding: 175 175 12
Width: 462
Flags: MW
HStem: 627 109<68 377 68 377>
VStem: 68 309<627 736 627 736>
LayerCount: 2
Back
Fore
SplineSet
68 627 m 1
 68 736 l 1
 377 736 l 1
 377 627 l 1
 68 627 l 1
EndSplineSet
EndChar
StartChar: degree
Encoding: 176 176 156
Width: 560
Flags: MW
HStem: 393 73<257.5 302.5 257.5 324.5> 619 73<257.5 302.5>
VStem: 130 75<519.5 564.5 519.5 586.5> 357 73<519.5 564.5>
LayerCount: 2
Back
Fore
SplineSet
130 542 m 0
 130 631 191 692 280 692 c 0
 369 692 430 631 430 542 c 0
 430 453 369 393 280 393 c 0
 191 393 130 453 130 542 c 0
205 542 m 0
 205 497 235 466 280 466 c 0
 325 466 357 497 357 542 c 0
 357 587 325 619 280 619 c 0
 235 619 205 587 205 542 c 0
EndSplineSet
EndChar
StartChar: twosuperior
Encoding: 178 178 258
Width: 280
Flags: MW
HStem: 478 95<158 252 158 252> 693 108<27 182.5>
VStem: 21 231<478 568 568 568> 140 112<678.5 690>
LayerCount: 2
Back
Fore
SplineSet
252 478 m 1xe0
 21 478 l 1
 21 568 l 1xe0
 94 627 l 2
 128 654 140 669 140 684 c 0
 140 696 128 699 103 699 c 0
 81 699 27 693 27 693 c 1
 23 792 l 1
 23 792 96 801 141 801 c 0
 224 801 252 772 252 701 c 0
 252 656 236 630 196 601 c 2
 158 573 l 1xd0
 252 573 l 1
 252 478 l 1xe0
EndSplineSet
Substitution2: "Single Substitution lookup 5 subtable" twoinferior
EndChar
StartChar: threesuperior
Encoding: 179 179 259
Width: 280
Flags: MW
HStem: 467 95<116.5 130.5 103.5 177.5> 592 85<57 121 121 123 57 121> 706 95<112 122>
VStem: 57 196<592 742.5 677 742.5> 149 110<572 584>
LayerCount: 2
Back
Fore
SplineSet
24 792 m 1x70
 24 792 92 801 132 801 c 0
 212 801 253 773 253 712 c 0x70
 253 678 243 653 224 642 c 1
 247 632 259 612 259 569 c 0
 259 500 214 467 141 467 c 0
 92 467 20 475 20 475 c 1
 26 568 l 1
 26 568 87 562 120 562 c 0xc8
 141 562 149 566 149 578 c 0
 149 590 141 592 123 592 c 2
 57 592 l 1
 57 677 l 1x48
 121 677 l 2x50
 134 677 141 681 141 691 c 0
 141 703 130 706 114 706 c 0
 77 706 30 701 30 701 c 1
 24 792 l 1x70
EndSplineSet
Substitution2: "Single Substitution lookup 5 subtable" threeinferior
EndChar
StartChar: acute
Encoding: 180 180 2
Width: 559
Flags: MW
HStem: 680 21G<84 84>
VStem: 84 281<654 680>
LayerCount: 2
Back
Fore
SplineSet
119 576 m 1
 84 680 l 1
 326 774 l 1
 365 654 l 1
 119 576 l 1
EndSplineSet
EndChar
StartChar: mu
Encoding: 181 181 223
Width: 560
Flags: MW
HStem: -210 21G<72 72 72 206> -12 114<245.5 273> 0 102<245.5 488 245.5 357> 480 20G<72 206 206 206 354 488 488 488>
VStem: 72 134<-210 -10 179.5 224 224 500> 354 134<161 500 0 500>
LayerCount: 2
Back
Fore
SplineSet
72 -210 m 1xdc
 72 500 l 1
 206 500 l 1
 206 224 l 2
 206 135 221 102 270 102 c 0
 314 102 354 161 354 161 c 1xdc
 354 500 l 1
 488 500 l 1
 488 0 l 1
 357 0 l 1xbc
 355 49 l 1
 355 49 311 -12 235 -12 c 0
 225 -12 215 -11 206 -10 c 1
 206 -210 l 1
 72 -210 l 1xdc
EndSplineSet
EndChar
StartChar: paragraph
Encoding: 182 182 250
Width: 559
Flags: MW
HStem: 0 21G<207 315 207 207 373 480 373 373> 594 106<315 373 315 315 480 480 480 515>
VStem: 207 108<0 306 306 306> 373 107<0 594 0 594>
LayerCount: 2
Back
Fore
SplineSet
373 0 m 1
 373 594 l 1
 315 594 l 1
 315 0 l 1
 207 0 l 1
 207 306 l 1
 108 306 25 375 25 482 c 0
 25 595 69 700 203 700 c 2
 515 700 l 1
 515 594 l 1
 480 594 l 1
 480 0 l 1
 373 0 l 1
EndSplineSet
EndChar
StartChar: periodcentered
Encoding: 183 183 271
Width: 236
Flags: MW
HStem: 207 169<50 186 50 186>
VStem: 50 136<207 376 207 376>
LayerCount: 2
Back
Fore
SplineSet
50 207 m 1
 50 376 l 1
 186 376 l 1
 186 207 l 1
 50 207 l 1
EndSplineSet
Substitution2: "'case' Case-Sensitive Forms in Latin lookup 4 subtable" periodcentered.cap
EndChar
StartChar: cedilla
Encoding: 184 184 5
Width: 791
Flags: MW
HStem: -229 91<384 463> -218 21G<343 343> -94 99<369 392 369 420>
VStem: 369 51<-33 5 -33 5 -33 5> 428 108<-122 -106>
LayerCount: 2
Back
Fore
SplineSet
536 -124 m 0xb8
 536 -192 495 -229 431 -229 c 0xb0
 390 -229 343 -218 343 -218 c 1x70
 347 -137 l 1
 347 -137 376 -138 392 -138 c 0
 418 -138 428 -130 428 -114 c 0
 428 -98 414 -94 392 -94 c 2xb8
 369 -94 l 1
 369 5 l 1
 420 5 l 1x70
 420 -33 l 1
 426 -33 l 2
 479 -33 536 -47 536 -124 c 0xb8
EndSplineSet
EndChar
StartChar: onesuperior
Encoding: 185 185 257
Width: 280
Flags: MW
HStem: 673 21G<107 107>
VStem: 107 106<478 673 673 673>
LayerCount: 2
Back
Fore
SplineSet
11 715 m 1
 117 790 l 1
 213 790 l 1
 213 478 l 1
 107 478 l 1
 107 673 l 1
 60 641 l 1
 11 715 l 1
EndSplineSet
Substitution2: "Single Substitution lookup 5 subtable" oneinferior
EndChar
StartChar: ordmasculine
Encoding: 186 186 209
Width: 393
Flags: MW
HStem: 314 95<178 216 178 243> 564 96<174 210>
VStem: 34 107<482.5 519 482.5 553.5> 252 108<455.5 495.5>
LayerCount: 2
Back
Fore
SplineSet
194 660 m 0
 259 660 314 643 339 592 c 0
 356 558 360 523 360 489 c 0
 360 361 292 314 194 314 c 0
 113 314 56 345 39 432 c 0
 35 449 34 468 34 489 c 0
 34 618 97 660 194 660 c 0
194 409 m 0
 238 409 252 422 252 489 c 0
 252 502 251 512 250 520 c 0
 244 557 226 564 194 564 c 0
 154 564 141 549 141 489 c 0
 141 476 143 464 144 455 c 0
 148 415 162 409 194 409 c 0
EndSplineSet
EndChar
StartChar: guillemotright
Encoding: 187 187 384
Width: 568
Flags: MW
HStem: 41 395<50 50 50 330>
VStem: 50 210<41 267 161 267 203 436 203 436> 330 210<41 267 161 267 203 436 203 436>
LayerCount: 2
Back
Fore
SplineSet
330 41 m 1
 330 161 l 1
 431 234 l 1
 330 316 l 1
 330 436 l 1
 540 267 l 1
 540 203 l 1
 330 41 l 1
50 41 m 1
 50 161 l 1
 151 234 l 1
 50 316 l 1
 50 436 l 1
 260 267 l 1
 260 203 l 1
 50 41 l 1
EndSplineSet
EndChar
StartChar: onequarter
Encoding: 188 188 421
Width: 637
Flags: MW
HStem: 0 20 35 95<475 502 475 502 607 618> 673 21G<96 96>
VStem: 96 106<478 673 673 673> 502 105<0 35 0 35 0 130>
LayerCount: 2
Back
Fore
SplineSet
0 715 m 1
 106 790 l 1
 202 790 l 1
 202 478 l 1
 96 478 l 1
 96 673 l 1
 49 641 l 1
 0 715 l 1
222 -24 m 1
 100 20 l 1
 366 718 l 1
 488 675 l 1
 222 -24 l 1
502 0 m 1
 502 35 l 1
 370 35 l 1
 370 123 l 1
 409 312 l 1
 527 312 l 1
 475 130 l 1
 502 130 l 1
 516 220 l 1
 607 220 l 1
 607 130 l 1
 618 130 l 1
 618 35 l 1
 607 35 l 1xf8
 607 0 l 1
 502 0 l 1
EndSplineSet
EndChar
StartChar: onehalf
Encoding: 189 189 442
Width: 668
Flags: MW
HStem: 0 21G<412 643 412 412> 0 95<549 643 549 643> 221 102<483 573.5> 673 21G<96 96>
VStem: 96 106<478 673 673 673> 412 231<0 90 90 90> 531 112<200.5 212>
LayerCount: 2
Back
Fore
SplineSet
0 715 m 1x78
 106 790 l 1
 202 790 l 1
 202 478 l 1
 96 478 l 1
 96 673 l 1
 49 641 l 1
 0 715 l 1x78
222 -24 m 1
 100 20 l 1xb8
 366 718 l 1
 488 675 l 1
 222 -24 l 1
643 0 m 1x7c
 412 0 l 1
 412 90 l 1x7c
 485 149 l 2
 519 176 531 191 531 206 c 0
 531 218 519 221 494 221 c 0
 472 221 418 215 418 215 c 1
 414 314 l 1
 414 314 487 323 532 323 c 0
 615 323 643 294 643 223 c 0
 643 178 627 152 587 123 c 2
 549 95 l 1x7a
 643 95 l 1
 643 0 l 1x7c
EndSplineSet
EndChar
StartChar: threequarters
Encoding: 190 190 443
Width: 651
Flags: MW
HStem: 0 20 35 95<489 516 489 516 621 632> 467 95<119.5 133.5 106.5 180.5> 592 85<60 124 124 126 60 124> 706 95<115 125>
VStem: 60 196<592 742.5 677 742.5> 152 110<572 584> 516 105<0 35 0 35 0 130>
LayerCount: 2
Back
Fore
SplineSet
27 792 m 1x9d
 27 792 95 801 135 801 c 0
 215 801 256 773 256 712 c 0x9d
 256 678 246 653 227 642 c 1
 250 632 262 612 262 569 c 0
 262 500 217 467 144 467 c 0
 95 467 23 475 23 475 c 1
 29 568 l 1
 29 568 90 562 123 562 c 0xb3
 144 562 152 566 152 578 c 0
 152 590 144 592 126 592 c 2
 60 592 l 1
 60 677 l 1x93
 124 677 l 2x95
 137 677 144 681 144 691 c 0
 144 703 133 706 117 706 c 0
 80 706 33 701 33 701 c 1
 27 792 l 1x9d
236 -24 m 1
 114 20 l 1x95
 380 718 l 1
 502 675 l 1
 236 -24 l 1
516 0 m 1
 516 35 l 1
 384 35 l 1
 384 123 l 1
 423 312 l 1
 541 312 l 1
 489 130 l 1
 516 130 l 1
 530 220 l 1
 621 220 l 1
 621 130 l 1
 632 130 l 1
 632 35 l 1
 621 35 l 1xd3
 621 0 l 1
 516 0 l 1
EndSplineSet
EndChar
StartChar: questiondown
Encoding: 191 191 266
Width: 418
Flags: MW
HStem: -192 120<217 256.5> 333 167<172 310 172 310>
VStem: 24 142<-34 8.5 -34 28.5> 172 138<198.5 292 198.5 292 333 500>
LayerCount: 2
Back
Fore
SplineSet
24 -9 m 0
 24 66 56 108 132 183 c 0
 159 210 172 229 172 253 c 2
 172 292 l 1
 302 292 l 1
 302 292 310 259 310 225 c 0xd0
 310 172 284 144 223 85 c 0
 182 46 166 26 166 -9 c 0
 166 -59 192 -72 242 -72 c 0
 290 -72 382 -57 382 -57 c 1
 396 -161 l 1
 396 -161 287 -192 226 -192 c 0
 88 -192 24 -142 24 -9 c 0
310 500 m 1xd0
 310 333 l 1
 172 333 l 1
 172 500 l 1
 310 500 l 1xd0
EndSplineSet
Substitution2: "'case' Case-Sensitive Forms in Latin lookup 4 subtable" questiondown.cap
EndChar
StartChar: Agrave
Encoding: 192 192 20
Width: 551
Flags: MW
HStem: 0 21G<13 13 13 151 399 399 399 537> 118 120<201 350 201 374 178 350> 560 120<268 268 268 283>
VStem: 13 524<0 0>
LayerCount: 2
Back
Fore
SplineSet
160 950 m 1
 403 860 l 1
 367 754 l 1
 121 831 l 1
 160 950 l 1
13 0 m 1
 155 680 l 1
 397 680 l 1
 537 0 l 1
 399 0 l 1
 374 118 l 1
 178 118 l 1
 151 0 l 1
 13 0 l 1
268 560 m 1
 201 238 l 1
 350 238 l 1
 283 560 l 1
 268 560 l 1
EndSplineSet
Position2: "'cpsp' Capital Spacing in Latin lookup 0 subtable" dx=5 dy=0 dh=10 dv=0
EndChar
StartChar: Acircumflex
Encoding: 194 194 19
Width: 551
Flags: MW
HStem: 0 21G<13 13 13 151 399 399 399 537> 118 120<201 350 201 374 178 350> 560 120<268 268 268 283> 779 152<97 312 97 312 231 323 231 448>
VStem: 13 524<0 0>
LayerCount: 2
Back
Fore
SplineSet
97 779 m 1
 231 931 l 1
 312 931 l 1
 448 779 l 1
 323 779 l 1
 273 840 l 1
 221 779 l 1
 97 779 l 1
13 0 m 1
 155 680 l 1
 397 680 l 1
 537 0 l 1
 399 0 l 1
 374 118 l 1
 178 118 l 1
 151 0 l 1
 13 0 l 1
268 560 m 1
 201 238 l 1
 350 238 l 1
 283 560 l 1
 268 560 l 1
EndSplineSet
Position2: "'cpsp' Capital Spacing in Latin lookup 0 subtable" dx=5 dy=0 dh=10 dv=0
EndChar
StartChar: Atilde
Encoding: 195 195 25
Width: 551
Flags: MW
HStem: 0 21G<13 13 13 151 399 399 399 537> 118 120<201 350 201 374 178 350> 560 120<268 268 268 283> 779 119<344 369 344 382> 822 118<185.5 217.5>
VStem: 13 524<0 0>
LayerCount: 2
Back
Fore
SplineSet
434 936 m 1xf4
 459 843 l 1
 459 843 406 779 358 779 c 0xf4
 309 779 236 822 199 822 c 0
 172 822 123 783 123 783 c 1
 99 876 l 1
 99 876 150 940 200 940 c 0xec
 259 940 331 898 357 898 c 0
 381 898 434 936 434 936 c 1xf4
13 0 m 1
 155 680 l 1
 397 680 l 1
 537 0 l 1
 399 0 l 1
 374 118 l 1
 178 118 l 1
 151 0 l 1
 13 0 l 1
268 560 m 1
 201 238 l 1
 350 238 l 1
 283 560 l 1
 268 560 l 1
EndSplineSet
Position2: "'cpsp' Capital Spacing in Latin lookup 0 subtable" dx=5 dy=0 dh=10 dv=0
EndChar
StartChar: Adieresis
Encoding: 196 196 21
Width: 551
Flags: MW
HStem: 0 21G<13 13 13 151 399 399 399 537> 118 120<201 350 201 374 178 350> 560 120<268 268 268 283> 788 135<124 234 124 234 323 433 124 323>
VStem: 124 110<788 923 788 923> 323 110<788 923 788 923>
LayerCount: 2
Back
Fore
SplineSet
124 788 m 1
 124 923 l 1
 234 923 l 1
 234 788 l 1
 124 788 l 1
323 788 m 1
 323 923 l 1
 433 923 l 1
 433 788 l 1
 323 788 l 1
13 0 m 1
 155 680 l 1
 397 680 l 1
 537 0 l 1
 399 0 l 1
 374 118 l 1
 178 118 l 1
 151 0 l 1
 13 0 l 1
268 560 m 1
 201 238 l 1
 350 238 l 1
 283 560 l 1
 268 560 l 1
EndSplineSet
Position2: "'cpsp' Capital Spacing in Latin lookup 0 subtable" dx=5 dy=0 dh=10 dv=0
EndChar
StartChar: Aring
Encoding: 197 197 24
Width: 551
Flags: MW
HStem: 0 21G<13 13 13 151 399 399 399 537> 118 120<201 350 201 374 178 350> 560 126<268 268 268 283> 748 86<264 292>
VStem: 146 87<708 726.5 707 758> 322 87<707 726.5>
LayerCount: 2
Back
Fore
SplineSet
13 0 m 1
 153 670 l 1
 148 684 146 699 146 717 c 0
 146 799 200 834 278 834 c 0
 351 834 409 798 409 717 c 0
 409 697 406 680 400 666 c 1
 537 0 l 1
 399 0 l 1
 374 118 l 1
 178 118 l 1
 151 0 l 1
 13 0 l 1
268 560 m 1
 201 238 l 1
 350 238 l 1
 283 560 l 1
 268 560 l 1
233 717 m 0
 233 697 250 686 278 686 c 0
 306 686 322 697 322 717 c 0
 322 736 306 748 278 748 c 0
 250 748 233 736 233 717 c 0
EndSplineSet
Position2: "'cpsp' Capital Spacing in Latin lookup 0 subtable" dx=5 dy=0 dh=10 dv=0
EndChar
StartChar: Ccedilla
Encoding: 199 199 32
Width: 497
Flags: MW
HStem: -229 91<249 328> -218 21G<208 208> -94 61<234 291 234 291> -12 120<285 327.5> -8 21G<234 234> 572 120<262.5 319.5 198 333> 668 21G<467 467>
VStem: 40 142<267 427 267 467.5> 234 51<-33 -12 -33 -8 -33 -8> 293 108<-122 -106>
LayerCount: 2
Back
Fore
SplineSet
461 119 m 1x5580
 466 10 l 1
 466 10 370 -12 285 -12 c 1x5380
 285 -33 l 1
 291 -33 l 2
 344 -33 401 -47 401 -124 c 0
 401 -192 360 -229 296 -229 c 0xabc0
 255 -229 208 -218 208 -218 c 1x4b80
 212 -137 l 1
 212 -137 241 -138 257 -138 c 0
 283 -138 293 -130 293 -114 c 0
 293 -98 279 -94 257 -94 c 2xabc0
 234 -94 l 1x6b80
 234 -8 l 1
 80 13 40 138 40 343 c 0
 40 592 112 692 284 692 c 0x4d80
 355 692 467 668 467 668 c 1x4b80
 461 560 l 1
 461 560 359 572 307 572 c 0
 218 572 182 511 182 343 c 0
 182 191 208 108 311 108 c 0
 359 108 461 119 461 119 c 1x5580
EndSplineSet
Position2: "'cpsp' Capital Spacing in Latin lookup 0 subtable" dx=5 dy=0 dh=10 dv=0
EndChar
StartChar: Egrave
Encoding: 200 200 45
Width: 502
Flags: MW
HStem: 0 120<202 468 202 468> 280 120<202 412 202 412> 560 120<202 468 202 202>
VStem: 64 138<120 280 400 560>
LayerCount: 2
Back
Fore
SplineSet
125 950 m 1
 368 860 l 1
 332 754 l 1
 86 831 l 1
 125 950 l 1
64 0 m 1
 64 680 l 1
 468 680 l 1
 468 560 l 1
 202 560 l 1
 202 400 l 1
 412 400 l 1
 412 280 l 1
 202 280 l 1
 202 120 l 1
 468 120 l 1
 468 0 l 1
 64 0 l 1
EndSplineSet
Position2: "'cpsp' Capital Spacing in Latin lookup 0 subtable" dx=5 dy=0 dh=10 dv=0
EndChar
StartChar: Eacute
Encoding: 201 201 39
Width: 502
Flags: MW
HStem: 0 120<202 468 202 468> 280 120<202 412 202 412> 560 120<202 468 202 202>
VStem: 64 138<120 280 400 560>
LayerCount: 2
Back
Fore
SplineSet
172 765 m 1
 137 868 l 1
 379 962 l 1
 418 842 l 1
 172 765 l 1
64 0 m 1
 64 680 l 1
 468 680 l 1
 468 560 l 1
 202 560 l 1
 202 400 l 1
 412 400 l 1
 412 280 l 1
 202 280 l 1
 202 120 l 1
 468 120 l 1
 468 0 l 1
 64 0 l 1
EndSplineSet
Position2: "'cpsp' Capital Spacing in Latin lookup 0 subtable" dx=5 dy=0 dh=10 dv=0
EndChar
StartChar: Ecircumflex
Encoding: 202 202 42
Width: 502
Flags: MW
HStem: 0 120<202 468 202 468> 280 120<202 412 202 412> 560 120<202 468 202 202> 782 152<89 304 89 304 223 315 223 440>
VStem: 64 138<120 280 400 560>
LayerCount: 2
Back
Fore
SplineSet
89 782 m 1
 223 934 l 1
 304 934 l 1
 440 782 l 1
 315 782 l 1
 265 843 l 1
 213 782 l 1
 89 782 l 1
64 0 m 1
 64 680 l 1
 468 680 l 1
 468 560 l 1
 202 560 l 1
 202 400 l 1
 412 400 l 1
 412 280 l 1
 202 280 l 1
 202 120 l 1
 468 120 l 1
 468 0 l 1
 64 0 l 1
EndSplineSet
Position2: "'cpsp' Capital Spacing in Latin lookup 0 subtable" dx=5 dy=0 dh=10 dv=0
EndChar
StartChar: Edieresis
Encoding: 203 203 43
Width: 502
Flags: MW
HStem: 0 120<202 468 202 468> 280 120<202 412 202 412> 560 120<202 468 202 202> 788 135<116 226 116 226 315 425 116 315>
VStem: 64 138<120 280 400 560> 116 110<788 923 788 923> 315 110<788 923 788 923>
LayerCount: 2
Back
Fore
SplineSet
116 788 m 1xf6
 116 923 l 1
 226 923 l 1
 226 788 l 1
 116 788 l 1xf6
315 788 m 1
 315 923 l 1
 425 923 l 1
 425 788 l 1
 315 788 l 1
64 0 m 1xfa
 64 680 l 1
 468 680 l 1
 468 560 l 1
 202 560 l 1
 202 400 l 1
 412 400 l 1
 412 280 l 1
 202 280 l 1
 202 120 l 1
 468 120 l 1
 468 0 l 1
 64 0 l 1xfa
EndSplineSet
Position2: "'cpsp' Capital Spacing in Latin lookup 0 subtable" dx=5 dy=0 dh=10 dv=0
EndChar
StartChar: Icircumflex
Encoding: 206 206 60
Width: 266
Flags: MW
HStem: 0 21G<64 64 64 202> 782 152<-42 173 -42 173 92 184 92 309>
VStem: 64 138<0 680 0 680>
LayerCount: 2
Back
Fore
SplineSet
-42 782 m 1
 92 934 l 1
 173 934 l 1
 309 782 l 1
 184 782 l 1
 134 843 l 1
 82 782 l 1
 -42 782 l 1
64 0 m 1
 64 680 l 1
 202 680 l 1
 202 0 l 1
 64 0 l 1
EndSplineSet
Position2: "'cpsp' Capital Spacing in Latin lookup 0 subtable" dx=5 dy=0 dh=10 dv=0
EndChar
StartChar: Idieresis
Encoding: 207 207 61
Width: 266
Flags: MW
HStem: 0 21G<64 64 64 202> 800 135<-24 86 -24 86 175 285 -24 175>
VStem: -24 110<800 935 800 935> 64 138<0 680 0 680> 175 110<800 935 800 935>
LayerCount: 2
Back
Fore
SplineSet
-24 800 m 1xe8
 -24 935 l 1
 86 935 l 1
 86 800 l 1
 -24 800 l 1xe8
175 800 m 1
 175 935 l 1
 285 935 l 1
 285 800 l 1
 175 800 l 1
64 0 m 1xd0
 64 680 l 1
 202 680 l 1
 202 0 l 1
 64 0 l 1xd0
EndSplineSet
Position2: "'cpsp' Capital Spacing in Latin lookup 0 subtable" dx=5 dy=0 dh=10 dv=0
EndChar
StartChar: Eth
Encoding: 208 208 407
Width: 597
Flags: MW
HStem: 0 120<207 288 207 288> 275 136<23 69 23 69 207 325> 560 120<207 288 207 207>
VStem: 69 138<120 275 120 275 120 275 411 560> 415 142<288 425.5>
LayerCount: 2
Back
Fore
SplineSet
288 0 m 2
 69 0 l 1
 69 275 l 1
 23 275 l 1
 23 411 l 1
 69 411 l 1
 69 680 l 1
 288 680 l 2
 509 680 557 576 557 358 c 0
 557 124 509 0 288 0 c 2
415 358 m 0
 415 493 408 560 288 560 c 2
 207 560 l 1
 207 411 l 1
 325 411 l 1
 325 275 l 1
 207 275 l 1
 207 120 l 1
 288 120 l 2
 408 120 415 218 415 358 c 0
EndSplineSet
Position2: "'cpsp' Capital Spacing in Latin lookup 0 subtable" dx=5 dy=0 dh=10 dv=0
EndChar
StartChar: Ntilde
Encoding: 209 209 81
Width: 649
Flags: MW
HStem: 0 147<377 454 443 454 443 585> 543 137<202 213 202 202> 778 119<390 415 390 428> 821 118<231.5 263.5>
VStem: 64 138<0 543 0 680 0 680> 454 131<147 680 0 680>
LayerCount: 2
Back
Fore
SplineSet
480 935 m 1xec
 505 842 l 1
 505 842 452 778 404 778 c 0xec
 355 778 282 821 245 821 c 0
 218 821 169 782 169 782 c 1
 145 875 l 1
 145 875 196 939 246 939 c 0xdc
 305 939 377 897 403 897 c 0
 427 897 480 935 480 935 c 1xec
64 0 m 1
 64 680 l 1
 280 680 l 1
 443 147 l 1
 454 147 l 1
 454 680 l 1
 585 680 l 1
 585 0 l 1
 377 0 l 1
 213 543 l 1
 202 543 l 1
 202 0 l 1
 64 0 l 1
EndSplineSet
Position2: "'cpsp' Capital Spacing in Latin lookup 0 subtable" dx=5 dy=0 dh=10 dv=0
EndChar
StartChar: Odieresis
Encoding: 214 214 86
Width: 592
Flags: MW
HStem: -12 120<248.5 307.5 248.5 324.5> 572 120<285 343.5> 791 135<134 255 134 255 338 458 134 338>
VStem: 39 142<257 415.5 257 432> 134 121<791 926 791 926> 338 120<791 926 791 926> 411 142<279 437>
LayerCount: 2
Back
Fore
SplineSet
134 791 m 1xec
 134 926 l 1
 255 926 l 1
 255 791 l 1
 134 791 l 1xec
338 791 m 1
 338 926 l 1
 458 926 l 1
 458 791 l 1
 338 791 l 1
296 108 m 0
 319 108 338 112 353 120 c 0
 399 145 411 211 411 347 c 0
 411 527 391 572 296 572 c 0
 274 572 255 569 240 563 c 0
 192 543 181 484 181 347 c 0xf2
 181 167 201 108 296 108 c 0
296 -12 m 0xf2
 106 -12 39 95 39 347 c 0
 39 517 70 615 148 660 c 0
 186 682 234 692 296 692 c 0
 486 692 553 599 553 347 c 0
 553 170 520 65 435 18 c 0
 399 -2 353 -12 296 -12 c 0xf2
EndSplineSet
Position2: "'cpsp' Capital Spacing in Latin lookup 0 subtable" dx=5 dy=0 dh=10 dv=0
EndChar
StartChar: Oslash
Encoding: 216 216 90
Width: 592
Flags: MW
HStem: -12 120<286.5 307.5 286.5 324.5> 1 21G<197 197> 563 129<265 352>
VStem: 39 142<315 415.5 315 432> 411 142<279 373>
LayerCount: 2
Back
Fore
SplineSet
143 -121 m 1xb8
 68 -81 l 1
 122 43 l 1
 63 98 39 196 39 347 c 0
 39 517 70 615 148 660 c 0
 186 682 234 692 296 692 c 0
 337 692 372 687 403 678 c 1
 459 805 l 1
 539 775 l 1
 477 635 l 1
 531 582 553 490 553 347 c 0
 553 170 520 65 435 18 c 0
 399 -2 353 -12 296 -12 c 0xb8
 258 -12 225 -8 197 1 c 1x78
 143 -121 l 1xb8
191 198 m 1
 263 362 l 1
 352 563 l 1
 337 569 318 572 296 572 c 0
 274 572 255 569 240 563 c 0
 192 543 181 484 181 347 c 0
 181 283 183 234 191 198 c 1
296 108 m 0
 319 108 338 112 353 120 c 0
 399 145 411 211 411 347 c 0
 411 399 409 440 405 471 c 1
 340 325 l 1
 247 115 l 1
 261 110 277 108 296 108 c 0
EndSplineSet
Position2: "'cpsp' Capital Spacing in Latin lookup 0 subtable" dx=5 dy=0 dh=10 dv=0
EndChar
StartChar: Ugrave
Encoding: 217 217 115
Width: 598
Flags: MW
HStem: -12 120<260.5 337.5 260.5 384>
VStem: 60 138<231 680> 400 138<219 231 231 680>
LayerCount: 2
Back
Fore
SplineSet
198 680 m 1
 198 219 l 2
 198 140 222 108 299 108 c 0
 376 108 400 140 400 219 c 2
 400 680 l 1
 538 680 l 1
 538 231 l 2
 538 61 469 -12 299 -12 c 0
 129 -12 60 61 60 231 c 2
 60 680 l 1
 198 680 l 1
196 950 m 1
 439 860 l 1
 403 754 l 1
 157 831 l 1
 196 950 l 1
EndSplineSet
Position2: "'cpsp' Capital Spacing in Latin lookup 0 subtable" dx=5 dy=0 dh=10 dv=0
EndChar
StartChar: Ucircumflex
Encoding: 219 219 113
Width: 598
Flags: MW
HStem: -12 120<260.5 337.5 260.5 384> 979 152<-56 159 -56 159 78 170 78 295>
VStem: 60 138<231 680> 400 138<219 231 231 680>
LayerCount: 2
Back
Fore
SplineSet
198 680 m 1
 198 219 l 2
 198 140 222 108 299 108 c 0
 376 108 400 140 400 219 c 2
 400 680 l 1
 538 680 l 1
 538 231 l 2
 538 61 469 -12 299 -12 c 0
 129 -12 60 61 60 231 c 2
 60 680 l 1
 198 680 l 1
-56 979 m 1
 78 1131 l 1
 159 1131 l 1
 295 979 l 1
 170 979 l 1
 120 1040 l 1
 68 979 l 1
 -56 979 l 1
EndSplineSet
Position2: "'cpsp' Capital Spacing in Latin lookup 0 subtable" dx=5 dy=0 dh=10 dv=0
EndChar
StartChar: Thorn
Encoding: 222 222 192
Width: 551
Flags: MW
HStem: 0 21G<64 202 64 64> 99 120<202 289 289 290 202 289> 473 120<202 289 202 290>
VStem: 64 138<0 99 219 473 593 690> 387 142<311.5 378.5>
LayerCount: 2
Back
Fore
SplineSet
289 219 m 2
 355 219 387 275 387 348 c 0
 387 409 358 473 289 473 c 2
 202 473 l 1
 202 219 l 1
 289 219 l 2
290 99 m 2
 202 99 l 1
 202 0 l 1
 64 0 l 1
 64 690 l 1
 202 690 l 1
 202 593 l 1
 290 593 l 2
 422 593 529 520 529 348 c 0
 529 186 441 99 290 99 c 2
EndSplineSet
Position2: "'cpsp' Capital Spacing in Latin lookup 0 subtable" dx=5 dy=0 dh=10 dv=0
EndChar
StartChar: germandbls
Encoding: 223 223 188
Width: 556
Flags: MW
HStem: -12 21G -12 114<333 366.5 328 423.5> 0 102 598 114<246 304.5>
VStem: 55 126<0 508 508 514> 219 126<357 382 357 393.5> 362 126<540 569.5> 412 126<135.5 164.5>
LayerCount: 2
Back
Fore
SplineSet
181 0 m 1x3a
 55 0 l 1
 55 508 l 2
 55 661 128 712 273 712 c 0
 422 712 488 673 488 557 c 0x3a
 488 487 463 456 398 424 c 0
 359 405 345 395 345 369 c 0
 345 345 368 331 420 307 c 0
 499 270 538 238 538 165 c 0
 538 27 478 -12 369 -12 c 0x5d
 297 -12 215 9 215 9 c 1x9c
 219 106 l 1
 219 106 320 102 336 102 c 0
 397 102 412 120 412 151 c 0
 412 178 393 191 335 217 c 0
 261 250 219 284 219 356 c 0x5d
 219 431 233 456 292 486 c 0
 349 515 362 529 362 551 c 0
 362 588 336 598 273 598 c 0
 219 598 181 581 181 514 c 2
 181 0 l 1x3a
EndSplineSet
EndChar
StartChar: atilde
Encoding: 227 227 165
Width: 512
Flags: MW
HStem: -12 114<207.5 243.5> -3 21G<329 329> 398 114<218.5 259> 492 20G<154 273.5> 590 118<331.5 356.5 331.5 369> 634 117<191.5 221> 688 20G<331.5 356.5>
VStem: 33 136<201 296 201 319> 323 134<171 392 392 392>
LayerCount: 2
Back
Fore
SplineSet
203 -12 m 0xa980
 80 -12 33 74 33 244 c 0
 33 394 72 512 236 512 c 0xa980
 311 512 457 493 457 493 c 1
 457 142 l 2
 457 116 462 2 462 2 c 1
 329 -3 l 1x5980
 329 -3 324 31 324 60 c 1
 324 60 284 -12 203 -12 c 0xa980
248 398 m 0
 189 398 169 348 169 244 c 0
 169 158 180 102 235 102 c 0
 287 102 323 171 323 171 c 1
 323 392 l 1
 323 392 270 398 248 398 c 0
421 747 m 1
 446 655 l 1
 446 655 393 590 345 590 c 0xa980
 297 590 237 634 205 634 c 0
 178 634 129 594 129 594 c 1xa580
 105 686 l 1
 105 686 156 751 206 751 c 0xa380
 261 751 319 708 344 708 c 0
 369 708 421 747 421 747 c 1
EndSplineSet
EndChar
StartChar: aring
Encoding: 229 229 166
Width: 512
Flags: MW
HStem: -12 114<207.5 243.5> -3 21G<329 329> 398 114<218.5 259> 492 20G<154 273.5> 547 79<267 284 267 305.5> 683 80<267 284>
VStem: 33 136<201 296 201 319> 175 72<646.5 662.5 646.5 687.5> 304 72<646.5 662.5> 323 134<171 392 392 392>
LayerCount: 2
Back
Fore
SplineSet
203 -12 m 0xae40
 80 -12 33 74 33 244 c 0
 33 394 72 512 236 512 c 0xae40
 311 512 457 493 457 493 c 1
 457 142 l 2
 457 116 462 2 462 2 c 1
 329 -3 l 1x5e40
 329 -3 324 31 324 60 c 1
 324 60 284 -12 203 -12 c 0xae40
248 398 m 0
 189 398 169 348 169 244 c 0
 169 158 180 102 235 102 c 0
 287 102 323 171 323 171 c 1
 323 392 l 1
 323 392 270 398 248 398 c 0
175 655 m 0xad80
 175 720 213 763 276 763 c 0
 336 763 376 720 376 655 c 0
 376 586 335 547 276 547 c 0
 212 547 175 586 175 655 c 0xad80
247 655 m 0
 247 638 258 626 276 626 c 0
 292 626 304 638 304 655 c 0
 304 670 292 683 276 683 c 0
 258 683 247 670 247 655 c 0
EndSplineSet
EndChar
StartChar: ae
Encoding: 230 230 224
Width: 717
Flags: MW
HStem: -12 115<179.5 197.5> -12 121<476.5 532.5 476.5 536> 192 104<408 560 407 685 408 408> 212 102<280 280> 386 125<206.5 259.5> 396 115<462.5 501.5>
VStem: 25 127<145 172 145 200> 280 127<191.5 296 296 328.5> 560 125<192 308.5>
LayerCount: 2
Back
Fore
SplineSet
499 109 m 0x6780
 566 109 668 118 668 118 c 1
 670 16 l 1
 670 16 584 -12 488 -12 c 0
 425 -12 372 3 338 37 c 1
 272 1 222 -12 173 -12 c 0
 84 -12 25 62 25 150 c 0
 25 250 79 290 146 303 c 0
 188 311 236 313 280 314 c 1
 280 343 280 386 239 386 c 0
 168 386 55 372 55 372 c 1x5b80
 51 489 l 1
 51 489 172 511 241 511 c 0
 292 511 336 500 365 470 c 1
 396 497 437 511 488 511 c 0
 589 511 649 461 673 379 c 0
 681 351 685 321 685 263 c 2
 685 192 l 1
 408 192 l 1
 408 177 411 164 416 152 c 0
 428 125 454 109 499 109 c 0x6780
194 103 m 0x9780
 218 103 264 108 295 115 c 1
 284 140 280 171 280 212 c 1
 264 212 220 210 200 208 c 0
 171 205 152 187 152 157 c 0
 152 133 165 103 194 103 c 0x9780
407 296 m 1x6780
 560 296 l 1
 560 321 557 342 550 358 c 0
 539 382 519 396 484 396 c 0
 425 396 408 355 407 296 c 1x6780
EndSplineSet
EndChar
StartChar: ccedilla
Encoding: 231 231 189
Width: 403
Flags: MW
HStem: -229 91<187 266> -218 21G<146 146> -94 61<172 229 172 229> -12 116<223 284 223 284> -6 21G<172 172> 395 116<227.5 266 163.5 284> 491 20G<163.5 266>
VStem: 33 136<203.5 299.5 203.5 339> 172 51<-33 -12 -33 -6 -33 -6> 231 108<-122 -106>
LayerCount: 2
Back
Fore
SplineSet
229 511 m 0x4c80
 303 511 372 490 372 490 c 1x4a80
 368 388 l 1
 368 388 302 395 266 395 c 0
 189 395 169 348 169 251 c 0
 169 156 186 104 266 104 c 0x55
 302 104 368 110 368 110 c 1
 372 11 l 1
 372 11 300 -12 226 -12 c 2
 223 -12 l 1x5480
 223 -33 l 1
 229 -33 l 2
 282 -33 339 -47 339 -124 c 0
 339 -192 298 -229 234 -229 c 0xacc0
 193 -229 146 -218 146 -218 c 1x4c80
 150 -137 l 1
 150 -137 179 -138 195 -138 c 0
 221 -138 231 -130 231 -114 c 0
 231 -98 217 -94 195 -94 c 2xacc0
 172 -94 l 1x6c80
 172 -6 l 1x4c80
 69 16 33 108 33 251 c 0x4d
 33 427 98 511 229 511 c 0x4c80
EndSplineSet
EndChar
StartChar: ecircumflex
Encoding: 234 234 169
Width: 464
Flags: MW
HStem: -10 114<226.5 289 226.5 293> 200 98<166 198 166 198 165 198> 404 107<212.5 264> 575 175<68 293 192 202 284 284 284 293 192 419>
VStem: 31 134<159.5 183 183 200 159.5 307> 306 132<328 371.5>
LayerCount: 2
Back
Fore
SplineSet
68 575 m 1
 192 750 l 1
 293 750 l 1
 419 575 l 1
 284 575 l 1
 244 637 l 1
 202 575 l 1
 68 575 l 1
255 104 m 0
 323 104 415 116 415 116 c 1
 417 21 l 1
 417 21 341 -10 245 -10 c 0
 97 -10 31 67 31 232 c 0
 31 382 85 511 241 511 c 0
 369 511 438 466 438 353 c 0
 438 224 350 200 198 200 c 2
 165 200 l 1
 165 183 l 2
 165 136 198 104 255 104 c 0
166 298 m 1
 198 298 l 2
 271 298 306 305 306 351 c 0
 306 392 287 404 241 404 c 0
 184 404 168 357 166 298 c 1
EndSplineSet
EndChar
StartChar: edieresis
Encoding: 235 235 170
Width: 464
Flags: MW
HStem: -10 114<226.5 289 226.5 293> 200 98<166 198 166 198 165 198> 404 107<212.5 264> 601 135<94 215 94 215 298 418 94 298>
VStem: 31 134<159.5 183 183 200 159.5 307> 94 121<601 736 601 736> 298 120<601 736 601 736> 306 132<328 371.5>
LayerCount: 2
Back
Fore
SplineSet
94 601 m 1xf6
 94 736 l 1
 215 736 l 1
 215 601 l 1
 94 601 l 1xf6
298 601 m 1
 298 736 l 1
 418 736 l 1
 418 601 l 1
 298 601 l 1
255 104 m 0xf9
 323 104 415 116 415 116 c 1
 417 21 l 1
 417 21 341 -10 245 -10 c 0
 97 -10 31 67 31 232 c 0
 31 382 85 511 241 511 c 0
 369 511 438 466 438 353 c 0
 438 224 350 200 198 200 c 2
 165 200 l 1
 165 183 l 2
 165 136 198 104 255 104 c 0xf9
166 298 m 1
 198 298 l 2
 271 298 306 305 306 351 c 0
 306 392 287 404 241 404 c 0
 184 404 168 357 166 298 c 1
EndSplineSet
EndChar
StartChar: igrave
Encoding: 236 236 186
Width: 244
Flags: MW
HStem: 0 21G<55 55 55 189> 480 20G<55 189 189 189> 661 21G 682 21G<217 217>
VStem: 55 134<0 500 0 500>
LayerCount: 2
Back
Fore
SplineSet
55 0 m 1xd8
 55 500 l 1
 189 500 l 1
 189 0 l 1
 55 0 l 1xd8
-26 772 m 1
 217 682 l 1
 184 583 l 1xd8
 -63 661 l 1xe8
 -26 772 l 1
EndSplineSet
EndChar
StartChar: iacute
Encoding: 237 237 185
Width: 244
Flags: MW
HStem: 0 21G<55 55 55 189> 480 20G<55 189 189 189> 680 21G<33 33>
VStem: 55 134<0 500 0 500>
LayerCount: 2
Back
Fore
SplineSet
55 0 m 1
 55 500 l 1
 189 500 l 1
 189 0 l 1
 55 0 l 1
68 576 m 1
 33 680 l 1
 275 774 l 1
 314 654 l 1
 68 576 l 1
EndSplineSet
EndChar
StartChar: icircumflex
Encoding: 238 238 187
Width: 244
Flags: MW
HStem: 0 21G<55 55 55 189> 480 20G<55 189 189 189> 575 175<-53 172 71 81 163 163 163 172 71 298>
VStem: 55 134<0 500 0 500>
LayerCount: 2
Back
Fore
SplineSet
-53 575 m 1
 71 750 l 1
 172 750 l 1
 298 575 l 1
 163 575 l 1
 123 637 l 1
 81 575 l 1
 -53 575 l 1
55 0 m 1
 55 500 l 1
 189 500 l 1
 189 0 l 1
 55 0 l 1
EndSplineSet
EndChar
StartChar: idieresis
Encoding: 239 239 171
Width: 244
Flags: MW
HStem: 0 21G<55 55 55 189> 480 20G<55 189 189 189> 601 135<-40 81 -40 81 164 284 -40 164>
VStem: -40 121<601 736 601 736> 55 134<0 500 0 500> 164 120<601 736 601 736>
LayerCount: 2
Back
Fore
SplineSet
-40 601 m 1xf4
 -40 736 l 1
 81 736 l 1
 81 601 l 1
 -40 601 l 1xf4
164 601 m 1
 164 736 l 1
 284 736 l 1
 284 601 l 1
 164 601 l 1
55 0 m 1xe8
 55 500 l 1
 189 500 l 1
 189 0 l 1
 55 0 l 1xe8
EndSplineSet
EndChar
StartChar: eth
Encoding: 240 240 191
Width: 528
Flags: MW
HStem: -9 127<222.5 288.5 222.5 340> 318 120<221.5 269.5 173 279> 668 21G<403 403>
VStem: 33 136<192.5 252.5 192.5 291.5> 359 135<234.5 296 416 416>
LayerCount: 2
Back
Fore
SplineSet
253 544 m 1
 160 467 l 1
 103 542 l 1
 138 571 l 1
 74 582 l 1
 91 698 l 1
 155 694 211 685 260 671 c 1
 345 741 l 1
 403 668 l 1
 357 630 l 1
 447 575 494 485 494 353 c 0
 494 106 426 -9 254 -9 c 0
 103 -9 33 80 33 220 c 0
 33 363 108 438 238 438 c 0
 301 438 359 416 359 416 c 1
 351 486 325 520 253 544 c 1
246 318 m 0
 197 318 169 286 169 219 c 0
 169 166 191 118 254 118 c 0
 323 118 359 173 359 296 c 0
 357 297 312 318 246 318 c 0
EndSplineSet
EndChar
StartChar: ntilde
Encoding: 241 241 172
Width: 521
Flags: MW
HStem: 512 196<329.5 354.5 329.5 368.5> 590 118<329.5 354.5 329.5 367> 634 117<189.5 219> 688 20G<329.5 354.5>
VStem: 189 148<0 276 0 339 0 339>
LayerCount: 2
Back
Fore
SplineSet
55 0 m 1x48
 189 0 l 1
 189 339 l 1
 189 339 229 398 273 398 c 0
 322 398 337 365 337 276 c 2
 337 0 l 1
 471 0 l 1
 471 309 l 2
 471 417 429 512 308 512 c 0
 232 512 188 451 188 451 c 1
 186 500 l 1
 55 500 l 1x88
 55 0 l 1x48
419 747 m 1x48
 444 655 l 1
 444 655 391 590 343 590 c 0x48
 295 590 235 634 203 634 c 0
 176 634 127 594 127 594 c 1x28
 103 686 l 1
 103 686 154 751 204 751 c 0x18
 259 751 317 708 342 708 c 0
 367 708 419 747 419 747 c 1x48
EndSplineSet
EndChar
StartChar: ograve
Encoding: 242 242 174
Width: 486
Flags: MW
HStem: -12 114<208 277.5 208 326.5> 397 114<208 278> 661 21G 682 21G<354 354>
VStem: 31 128<208.5 291.5 208.5 322> 327 128<208.5 291.5>
LayerCount: 2
Back
Fore
SplineSet
243 511 m 0xdc
 407 511 455 394 455 250 c 0
 455 106 410 -12 243 -12 c 0
 76 -12 31 106 31 250 c 0
 31 394 78 511 243 511 c 0xdc
243 102 m 0
 312 102 327 167 327 250 c 0
 327 333 313 397 243 397 c 0
 173 397 159 333 159 250 c 0
 159 167 173 102 243 102 c 0
111 772 m 1
 354 682 l 1
 321 583 l 1xdc
 74 661 l 1xec
 111 772 l 1
EndSplineSet
EndChar
StartChar: ocircumflex
Encoding: 244 244 175
Width: 486
Flags: MW
HStem: -12 114<208 277.5 208 326.5> 397 114<208 278> 575 175<68 293 192 202 284 284 284 293 192 419>
VStem: 31 128<208.5 291.5 208.5 322> 327 128<208.5 291.5>
LayerCount: 2
Back
Fore
SplineSet
68 575 m 1
 192 750 l 1
 293 750 l 1
 419 575 l 1
 284 575 l 1
 244 637 l 1
 202 575 l 1
 68 575 l 1
243 511 m 0
 407 511 455 394 455 250 c 0
 455 106 410 -12 243 -12 c 0
 76 -12 31 106 31 250 c 0
 31 394 78 511 243 511 c 0
243 102 m 0
 312 102 327 167 327 250 c 0
 327 333 313 397 243 397 c 0
 173 397 159 333 159 250 c 0
 159 167 173 102 243 102 c 0
EndSplineSet
EndChar
StartChar: otilde
Encoding: 245 245 177
Width: 486
Flags: MW
HStem: -12 114<208 277.5 208 326.5> 397 114<208 278> 590 118<300.5 325.5 300.5 338> 634 117<160.5 190> 688 20G<300.5 325.5>
VStem: 31 128<208.5 291.5 208.5 322> 327 128<208.5 291.5>
LayerCount: 2
Back
Fore
SplineSet
243 511 m 0xe6
 407 511 455 394 455 250 c 0
 455 106 410 -12 243 -12 c 0
 76 -12 31 106 31 250 c 0
 31 394 78 511 243 511 c 0xe6
243 102 m 0
 312 102 327 167 327 250 c 0
 327 333 313 397 243 397 c 0
 173 397 159 333 159 250 c 0
 159 167 173 102 243 102 c 0
390 747 m 1
 415 655 l 1
 415 655 362 590 314 590 c 0xe6
 266 590 206 634 174 634 c 0
 147 634 98 594 98 594 c 1xd6
 74 686 l 1
 74 686 125 751 175 751 c 0xce
 230 751 288 708 313 708 c 0
 338 708 390 747 390 747 c 1
EndSplineSet
EndChar
StartChar: odieresis
Encoding: 246 246 176
Width: 486
Flags: MW
HStem: -12 114<208 277.5 208 326.5> 397 114<208 278> 601 135<90 201 90 201 284 394 90 284>
VStem: 31 128<208.5 291.5 208.5 322> 90 111<601 736 601 736> 284 110<601 736 601 736> 327 128<208.5 291.5>
LayerCount: 2
Back
Fore
SplineSet
243 511 m 0xf2
 407 511 455 394 455 250 c 0
 455 106 410 -12 243 -12 c 0
 76 -12 31 106 31 250 c 0
 31 394 78 511 243 511 c 0xf2
243 102 m 0
 312 102 327 167 327 250 c 0
 327 333 313 397 243 397 c 0
 173 397 159 333 159 250 c 0
 159 167 173 102 243 102 c 0
90 601 m 1xec
 90 736 l 1
 201 736 l 1
 201 601 l 1
 90 601 l 1xec
284 601 m 1
 284 736 l 1
 394 736 l 1
 394 601 l 1
 284 601 l 1
EndSplineSet
EndChar
StartChar: oslash
Encoding: 248 248 193
Width: 485
Flags: MW
HStem: -10 114<239.5 277.5 239.5 326.5> -4 21G<183 183> 399 114<208 245> 488 20G<296 296>
VStem: 31 128<236.5 293.5 236.5 324> 327 128<210.5 269>
LayerCount: 2
Back
Fore
SplineSet
243 513 m 0xac
 262 513 280 511 296 508 c 1
 333 606 l 1
 411 576 l 1
 371 477 l 1
 433 431 455 348 455 252 c 0
 455 108 410 -10 243 -10 c 0x9c
 221 -10 201 -8 183 -4 c 1x6c
 145 -107 l 1
 68 -77 l 1
 110 28 l 1
 50 74 31 157 31 252 c 0
 31 396 78 513 243 513 c 0xac
243 104 m 0
 312 104 327 169 327 252 c 0
 327 286 324 317 316 342 c 1
 275 239 l 1
 225 105 l 1
 230 104 236 104 243 104 c 0
167 169 m 1
 205 264 l 1
 255 398 l 1
 251 399 247 399 243 399 c 0
 173 399 159 335 159 252 c 0
 159 221 161 192 167 169 c 1
EndSplineSet
EndChar
StartChar: udieresis
Encoding: 252 252 181
Width: 522
Flags: MW
HStem: -12 114<224.5 252> 0 102<224.5 467 224.5 336> 480 20G<51 185 185 185 333 467 467 467> 601 135<99 220 99 220 303 423 99 303>
VStem: 51 134<188 224 224 500> 99 121<601 736 601 736> 303 120<601 736 601 736> 333 134<161 500 0 500>
LayerCount: 2
Back
Fore
SplineSet
99 601 m 1xb6
 99 736 l 1
 220 736 l 1
 220 601 l 1
 99 601 l 1xb6
303 601 m 1
 303 736 l 1
 423 736 l 1
 423 601 l 1
 303 601 l 1
333 500 m 1xb9
 467 500 l 1
 467 0 l 1
 336 0 l 1x79
 334 49 l 1
 334 49 290 -12 214 -12 c 0
 98 -12 51 61 51 188 c 2
 51 500 l 1
 185 500 l 1
 185 224 l 2
 185 135 200 102 249 102 c 0
 293 102 333 161 333 161 c 1
 333 500 l 1xb9
EndSplineSet
EndChar
StartChar: yacute
Encoding: 253 253 154
Width: 456
Flags: MW
HStem: -210 21G<157 282 157 157> 0 111<126 237 126 237> 480 20G<13 144 144 144 317 444 444 444> 680 21G<110 110>
VStem: 13 431<500 500>
LayerCount: 2
Back
Fore
SplineSet
13 500 m 1
 144 500 l 1
 221 111 l 1
 237 111 l 1
 317 500 l 1
 444 500 l 1
 282 -210 l 1
 157 -210 l 1
 212 0 l 1
 126 0 l 1
 13 500 l 1
145 576 m 1
 110 680 l 1
 352 774 l 1
 391 654 l 1
 145 576 l 1
EndSplineSet
EndChar
StartChar: thorn
Encoding: 254 254 447
Width: 511
Flags: MW
HStem: -12 120<258 290.5 258 330.5> -9 21G<189 189> 391 120<278 298>
VStem: 55 134<-208 -9 -208 114 114 363 479 698> 343 136<208.5 281.5>
LayerCount: 2
Back
Fore
SplineSet
297 511 m 0xb8
 429 511 479 411 479 255 c 0xb8
 479 48 401 -12 260 -12 c 0
 230 -12 189 -9 189 -9 c 1x78
 189 -208 l 1
 55 -208 l 1
 55 698 l 1
 189 698 l 1
 189 479 l 1
 220 496 259 511 297 511 c 0xb8
189 363 m 1
 189 114 l 1
 258 108 l 1
 323 108 343 162 343 255 c 0
 343 308 329 391 267 391 c 0
 238 391 189 363 189 363 c 1
EndSplineSet
EndChar
StartChar: ydieresis
Encoding: 255 255 152
Width: 456
Flags: MW
HStem: -210 21G<157 282 157 157> 0 111<126 237 126 237> 480 20G<13 144 144 144 317 444 444 444> 601 135<67 188 67 188 271 391 67 271>
VStem: 67 121<601 736 601 736> 271 120<601 736 601 736>
LayerCount: 2
Back
Fore
SplineSet
67 601 m 1
 67 736 l 1
 188 736 l 1
 188 601 l 1
 67 601 l 1
271 601 m 1
 271 736 l 1
 391 736 l 1
 391 601 l 1
 271 601 l 1
13 500 m 1
 144 500 l 1
 221 111 l 1
 237 111 l 1
 317 500 l 1
 444 500 l 1
 282 -210 l 1
 157 -210 l 1
 212 0 l 1
 126 0 l 1
 13 500 l 1
EndSplineSet
EndChar
StartChar: amacron
Encoding: 257 257 301
Width: 512
Flags: MW
HStem: -12 114<207.5 243.5> -3 21G<329 329> 398 114<218.5 259> 492 20G<154 273.5> 627 109<113 422 113 422>
VStem: 33 136<201 296 201 319> 113 309<627 736 627 736> 323 134<171 392 392 392>
LayerCount: 2
Back
Fore
SplineSet
203 -12 m 0xad
 80 -12 33 74 33 244 c 0
 33 394 72 512 236 512 c 0xad
 311 512 457 493 457 493 c 1
 457 142 l 2
 457 116 462 2 462 2 c 1
 329 -3 l 1x5d
 329 -3 324 31 324 60 c 1
 324 60 284 -12 203 -12 c 0xad
248 398 m 0
 189 398 169 348 169 244 c 0
 169 158 180 102 235 102 c 0
 287 102 323 171 323 171 c 1
 323 392 l 1
 323 392 270 398 248 398 c 0
113 627 m 1xaa
 113 736 l 1
 422 736 l 1
 422 627 l 1
 113 627 l 1xaa
EndSplineSet
EndChar
StartChar: Abreve
Encoding: 258 258 18
Width: 551
Flags: MW
HStem: 0 21G<13 13 13 151 399 399 399 537> 118 120<201 350 201 374 178 350> 560 120<268 268 268 283> 783 144<203.5 231 319 347.5>
VStem: 110 121<912.5 927 912.5 927> 319 121<912.5 927>
LayerCount: 2
Back
Fore
SplineSet
110 927 m 1
 231 927 l 1
 231 898 245 885 275 885 c 0
 302 885 319 898 319 927 c 1
 440 927 l 1
 440 885 420 783 275 783 c 0
 132 783 110 885 110 927 c 1
13 0 m 1
 155 680 l 1
 397 680 l 1
 537 0 l 1
 399 0 l 1
 374 118 l 1
 178 118 l 1
 151 0 l 1
 13 0 l 1
268 560 m 1
 201 238 l 1
 350 238 l 1
 283 560 l 1
 268 560 l 1
EndSplineSet
Position2: "'cpsp' Capital Spacing in Latin lookup 0 subtable" dx=5 dy=0 dh=10 dv=0
EndChar
StartChar: Aogonek
Encoding: 260 260 23
Width: 551
Flags: MW
HStem: -214 21G<427.5 474.5> -214 118<427.5 506.5> 0 21G<13 13 13 151 399 399 399 411 530 530 530 537> 118 120<201 350 201 374 178 350> 560 120<268 268 268 283>
VStem: 13 537<-203 0> 351 132<-149 -66.5>
LayerCount: 2
Back
Fore
SplineSet
13 0 m 1xbc
 155 680 l 1
 397 680 l 1
 536 5 l 1
 537 0 l 1
 530 0 l 1
 507 -23 483 -55 483 -78 c 0
 483 -90 491 -96 502 -96 c 0
 511 -96 538 -93 538 -93 c 1x7a
 550 -203 l 1
 550 -203 494 -214 455 -214 c 0
 400 -214 351 -181 351 -117 c 0
 351 -72 380 -31 411 0 c 1
 399 0 l 1
 374 118 l 1xba
 178 118 l 1
 151 0 l 1
 13 0 l 1xbc
268 560 m 1
 201 238 l 1
 350 238 l 1
 283 560 l 1
 268 560 l 1
EndSplineSet
Position2: "'cpsp' Capital Spacing in Latin lookup 0 subtable" dx=5 dy=0 dh=10 dv=0
EndChar
StartChar: aogonek
Encoding: 261 261 304
Width: 512
Flags: MW
HStem: -214 21G<347.5 394.5> -214 118<347.5 426.5> -12 114<207.5 243.5> -2 21G 1 21G<452 452> 398 114<218.5 259> 492 20G<154 273.5>
VStem: 33 136<201 296 201 319> 271 132<-149 -66> 323 134<171 392 392 392>
LayerCount: 2
Back
Fore
SplineSet
458 -93 m 1x4d80
 470 -203 l 1
 470 -203 414 -214 375 -214 c 0
 320 -214 271 -181 271 -117 c 0
 271 -73 298 -33 329 -2 c 0x9580
 328 0 324 32 324 60 c 1xa580
 324 60 284 -12 203 -12 c 0
 80 -12 33 74 33 244 c 0
 33 394 72 512 236 512 c 0xa540
 311 512 457 493 457 493 c 1
 457 142 l 2x8b40
 457 116 462 2 462 2 c 1
 452 1 l 1
 429 -21 403 -54 403 -78 c 0
 403 -90 411 -96 422 -96 c 0
 431 -96 458 -93 458 -93 c 1x4d80
248 398 m 0xa540
 189 398 169 348 169 244 c 0
 169 158 180 102 235 102 c 0
 287 102 323 171 323 171 c 1
 323 392 l 1
 323 392 270 398 248 398 c 0xa540
EndSplineSet
EndChar
StartChar: cacute
Encoding: 263 263 306
Width: 402
Flags: MW
HStem: -12 116<225 262> 395 116<226.5 265 162.5 283> 491 20G<162.5 265> 680 21G<103 103>
VStem: 32 136<203.5 299.5 203.5 339>
LayerCount: 2
Back
Fore
SplineSet
228 511 m 0xd8
 302 511 371 490 371 490 c 1xb8
 367 388 l 1
 367 388 301 395 265 395 c 0
 188 395 168 348 168 251 c 0
 168 156 185 104 265 104 c 0
 301 104 367 110 367 110 c 1
 371 11 l 1
 371 11 299 -12 225 -12 c 0
 81 -12 32 85 32 251 c 0
 32 427 97 511 228 511 c 0xd8
138 576 m 1
 103 680 l 1
 345 774 l 1
 384 654 l 1
 138 576 l 1
EndSplineSet
EndChar
StartChar: ccircumflex
Encoding: 265 265 307
Width: 402
Flags: MW
HStem: -12 116<225 262> 395 116<226.5 265 162.5 283> 491 20G<162.5 265> 575 175<71 276 71 276 195 277 195 402>
VStem: 32 136<203.5 299.5 203.5 339>
LayerCount: 2
Back
Fore
SplineSet
228 511 m 0xd8
 302 511 371 490 371 490 c 1xb8
 367 388 l 1
 367 388 301 395 265 395 c 0
 188 395 168 348 168 251 c 0
 168 156 185 104 265 104 c 0
 301 104 367 110 367 110 c 1
 371 11 l 1
 371 11 299 -12 225 -12 c 0
 81 -12 32 85 32 251 c 0
 32 427 97 511 228 511 c 0xd8
71 575 m 1
 195 750 l 1
 276 750 l 1
 402 575 l 1
 277 575 l 1
 237 637 l 1
 195 575 l 1
 71 575 l 1
EndSplineSet
EndChar
StartChar: Cdotaccent
Encoding: 266 266 34
Width: 496
Flags: MW
HStem: -12 120<258.5 325.5> 572 120<261.5 318.5 197 332> 668 21G<466 466> 771 138<221 337 221 337>
VStem: 39 142<267 427 267 467.5> 221 116<771 909 771 909>
LayerCount: 2
Back
Fore
SplineSet
460 119 m 1xbc
 465 10 l 1
 465 10 368 -12 283 -12 c 0
 88 -12 39 118 39 343 c 0
 39 592 111 692 283 692 c 0xdc
 354 692 466 668 466 668 c 1xbc
 460 560 l 1
 460 560 358 572 306 572 c 0xdc
 217 572 181 511 181 343 c 0
 181 191 207 108 310 108 c 0
 358 108 460 119 460 119 c 1xbc
221 771 m 1
 221 909 l 1
 337 909 l 1
 337 771 l 1
 221 771 l 1
EndSplineSet
Position2: "'cpsp' Capital Spacing in Latin lookup 0 subtable" dx=5 dy=0 dh=10 dv=0
EndChar
StartChar: ccaron
Encoding: 269 269 308
Width: 402
Flags: MW
HStem: -12 116<225 262> 395 116<226.5 265 162.5 283> 491 20G<162.5 265> 575 175<185 189 267 271 185 185>
VStem: 32 136<203.5 299.5 203.5 339>
LayerCount: 2
Back
Fore
SplineSet
271 575 m 1xd8
 185 575 l 1
 62 750 l 1
 189 750 l 1
 228 687 l 1
 267 750 l 1
 394 750 l 1
 271 575 l 1xd8
228 511 m 0
 302 511 371 490 371 490 c 1xb8
 367 388 l 1
 367 388 301 395 265 395 c 0
 188 395 168 348 168 251 c 0
 168 156 185 104 265 104 c 0
 301 104 367 110 367 110 c 1
 371 11 l 1
 371 11 299 -12 225 -12 c 0
 81 -12 32 85 32 251 c 0
 32 427 97 511 228 511 c 0
EndSplineSet
EndChar
StartChar: Dcaron
Encoding: 270 270 36
Width: 592
Flags: MW
HStem: 680 247<102 234 102 283 64 234> 776 151<228 234 312 318 228 228>
VStem: 202 208<288 425.5 288 560 288 560>
LayerCount: 2
Back
Fore
SplineSet
64 0 m 1xa0
 283 0 l 2
 504 0 552 124 552 358 c 0
 552 576 504 680 283 680 c 2
 64 680 l 1
 64 0 l 1xa0
410 358 m 0
 410 218 403 120 283 120 c 2
 202 120 l 1
 202 560 l 1
 283 560 l 2
 403 560 410 493 410 358 c 0
444 927 m 1
 318 776 l 1
 228 776 l 1x60
 102 927 l 1
 234 927 l 1
 273 870 l 1
 312 927 l 1
 444 927 l 1
EndSplineSet
Position2: "'cpsp' Capital Spacing in Latin lookup 0 subtable" dx=5 dy=0 dh=10 dv=0
EndChar
StartChar: dcaron
Encoding: 271 271 310
Width: 624
Flags: MW
HStem: -12 114<210 241> 0 102<210 457 210 326> 397 114<215 247 156.5 260.5> 429 261<509 632 509 632> 429 271<323 632 323 509> 680 20G<323 457 457 457>
VStem: 33 136<198 293.5 198 330.5> 323 134<161 388 388 388 497 700 0 700> 509 123<429 690 429 690>
LayerCount: 2
Back
Fore
SplineSet
632 690 m 1x9380
 632 429 l 1
 509 429 l 1x8b80
 509 690 l 1
 632 690 l 1x9380
457 700 m 1
 457 0 l 1
 326 0 l 1x6780
 324 43 l 1
 324 43 284 -12 198 -12 c 0
 82 -12 33 78 33 245 c 0
 33 416 86 511 227 511 c 0
 267 511 323 497 323 497 c 1xa780
 323 700 l 1
 457 700 l 1
323 161 m 1xa780
 323 388 l 1
 323 388 278 397 243 397 c 0
 187 397 169 342 169 245 c 0
 169 151 182 102 238 102 c 0
 286 102 323 161 323 161 c 1xa780
EndSplineSet
EndChar
StartChar: Dcroat
Encoding: 272 272 37
Width: 595
Flags: MW
HStem: 0 120<205 286 205 286> 275 136<11 67 11 67 205 313> 560 120<205 286 205 205>
VStem: 67 138<120 275 120 275 120 275 411 560> 413 142<288 425.5>
LayerCount: 2
Back
Fore
SplineSet
286 0 m 2
 67 0 l 1
 67 275 l 1
 11 275 l 1
 11 411 l 1
 67 411 l 1
 67 680 l 1
 286 680 l 2
 507 680 555 576 555 358 c 0
 555 124 507 0 286 0 c 2
413 358 m 0
 413 493 406 560 286 560 c 2
 205 560 l 1
 205 411 l 1
 313 411 l 1
 313 275 l 1
 205 275 l 1
 205 120 l 1
 286 120 l 2
 406 120 413 218 413 358 c 0
EndSplineSet
Position2: "'cpsp' Capital Spacing in Latin lookup 0 subtable" dx=5 dy=0 dh=10 dv=0
EndChar
StartChar: dcroat
Encoding: 273 273 311
Width: 512
Flags: MW
HStem: -12 114<210 241> 0 102<210 457 210 326> 397 114<215 247 156.5 260.5> 543 119<181 323 181 323 457 490> 543 157<181 457 181 457 323 490 323 457>
VStem: 33 136<198 293.5 198 330.5> 323 134<161 388 388 388 497 543 0 543 662 700>
LayerCount: 2
Back
Fore
SplineSet
457 700 m 1xae
 457 662 l 1
 490 662 l 1xb6
 490 543 l 1
 457 543 l 1
 457 0 l 1
 326 0 l 1x6e
 324 43 l 1
 324 43 284 -12 198 -12 c 0
 82 -12 33 78 33 245 c 0
 33 416 86 511 227 511 c 0
 267 511 323 497 323 497 c 1
 323 543 l 1
 181 543 l 1xae
 181 662 l 1
 323 662 l 1xb6
 323 700 l 1
 457 700 l 1xae
323 161 m 1
 323 388 l 1
 323 388 278 397 243 397 c 0
 187 397 169 342 169 245 c 0
 169 151 182 102 238 102 c 0
 286 102 323 161 323 161 c 1
EndSplineSet
EndChar
StartChar: Emacron
Encoding: 274 274 46
Width: 502
Flags: MW
HStem: 0 120<202 468 202 468> 280 120<202 412 202 412> 560 120<202 468 202 202> 806 109<104 430 104 430>
VStem: 64 138<120 280 400 560> 104 326<806 915 806 915>
LayerCount: 2
Back
Fore
SplineSet
104 806 m 1xf4
 104 915 l 1
 430 915 l 1
 430 806 l 1
 104 806 l 1xf4
64 0 m 1xf8
 64 680 l 1
 468 680 l 1
 468 560 l 1
 202 560 l 1
 202 400 l 1
 412 400 l 1
 412 280 l 1
 202 280 l 1
 202 120 l 1
 468 120 l 1
 468 0 l 1
 64 0 l 1xf8
EndSplineSet
Position2: "'cpsp' Capital Spacing in Latin lookup 0 subtable" dx=5 dy=0 dh=10 dv=0
EndChar
StartChar: emacron
Encoding: 275 275 313
Width: 464
Flags: MW
HStem: -10 114<226.5 289 226.5 293> 200 98<166 198 166 198 165 198> 404 107<212.5 264> 627 109<103 412 103 412>
VStem: 31 134<159.5 183 183 200 159.5 307> 103 309<627 736 627 736> 306 132<328 371.5>
LayerCount: 2
Back
Fore
SplineSet
255 104 m 0xfa
 323 104 415 116 415 116 c 1
 417 21 l 1
 417 21 341 -10 245 -10 c 0
 97 -10 31 67 31 232 c 0
 31 382 85 511 241 511 c 0
 369 511 438 466 438 353 c 0
 438 224 350 200 198 200 c 2
 165 200 l 1
 165 183 l 2
 165 136 198 104 255 104 c 0xfa
166 298 m 1
 198 298 l 2
 271 298 306 305 306 351 c 0
 306 392 287 404 241 404 c 0
 184 404 168 357 166 298 c 1
103 627 m 1xf4
 103 736 l 1
 412 736 l 1
 412 627 l 1
 103 627 l 1xf4
EndSplineSet
EndChar
StartChar: Ebreve
Encoding: 276 276 40
Width: 502
Flags: MW
HStem: 0 120<202 468 202 468> 280 120<202 412 202 412> 560 120<202 468 202 202> 783 144<191.5 219 307 335.5>
VStem: 64 138<120 280 400 560> 98 121<912.5 927 912.5 927> 307 121<912.5 927>
LayerCount: 2
Back
Fore
SplineSet
98 927 m 1xf6
 219 927 l 1
 219 898 233 885 263 885 c 0
 290 885 307 898 307 927 c 1
 428 927 l 1
 428 885 408 783 263 783 c 0
 120 783 98 885 98 927 c 1xf6
64 0 m 1xf8
 64 680 l 1
 468 680 l 1
 468 560 l 1
 202 560 l 1
 202 400 l 1
 412 400 l 1
 412 280 l 1
 202 280 l 1
 202 120 l 1
 468 120 l 1
 468 0 l 1
 64 0 l 1xf8
EndSplineSet
Position2: "'cpsp' Capital Spacing in Latin lookup 0 subtable" dx=5 dy=0 dh=10 dv=0
EndChar
StartChar: ebreve
Encoding: 277 277 314
Width: 464
Flags: MW
HStem: -10 114<226.5 289 226.5 293> 200 98<166 198 166 198 165 198> 404 107<212.5 264> 590 112<232 264 232 309> 590 156<187 197 299 309>
VStem: 31 134<159.5 183 183 200 159.5 307> 299 121<732 746> 306 132<328 371.5>
LayerCount: 2
Back
Fore
SplineSet
255 104 m 0xf5
 323 104 415 116 415 116 c 1
 417 21 l 1
 417 21 341 -10 245 -10 c 0
 97 -10 31 67 31 232 c 0
 31 382 85 511 241 511 c 0
 369 511 438 466 438 353 c 0
 438 224 350 200 198 200 c 2
 165 200 l 1
 165 183 l 2
 165 136 198 104 255 104 c 0xf5
166 298 m 1
 198 298 l 2
 271 298 306 305 306 351 c 0
 306 392 287 404 241 404 c 0
 184 404 168 357 166 298 c 1
76 746 m 1xed
 197 746 l 1xed
 197 718 216 702 248 702 c 0xf6
 280 702 299 718 299 746 c 1
 420 746 l 1xee
 420 673 370 590 248 590 c 0xf5
 126 590 76 673 76 746 c 1xed
EndSplineSet
EndChar
StartChar: Edotaccent
Encoding: 278 278 44
Width: 502
Flags: MW
HStem: 0 120<202 468 202 468> 280 120<202 412 202 412> 560 120<202 468 202 202> 771 138<213 329 213 329>
VStem: 64 138<120 280 400 560> 213 116<771 909 771 909>
LayerCount: 2
Back
Fore
SplineSet
213 771 m 1
 213 909 l 1
 329 909 l 1
 329 771 l 1
 213 771 l 1
64 0 m 1xf8
 64 680 l 1
 468 680 l 1
 468 560 l 1
 202 560 l 1
 202 400 l 1
 412 400 l 1
 412 280 l 1
 202 280 l 1
 202 120 l 1
 468 120 l 1
 468 0 l 1
 64 0 l 1xf8
EndSplineSet
Position2: "'cpsp' Capital Spacing in Latin lookup 0 subtable" dx=5 dy=0 dh=10 dv=0
EndChar
StartChar: Eogonek
Encoding: 280 280 47
Width: 502
Flags: MW
HStem: -214 21G<353.5 400.5> -214 118<353.5 432.5> 0 120<202 337 456 456 456 468> 280 120<202 412 202 412> 560 120<202 468 202 202>
VStem: 64 138<120 280 400 560> 277 132<-149 -66.5>
LayerCount: 2
Back
Fore
SplineSet
64 0 m 1xbe
 64 680 l 1
 468 680 l 1
 468 560 l 1
 202 560 l 1
 202 400 l 1
 412 400 l 1
 412 280 l 1
 202 280 l 1
 202 120 l 1
 468 120 l 1
 468 0 l 1
 456 0 l 1
 433 -23 409 -55 409 -78 c 0
 409 -90 417 -96 428 -96 c 0
 437 -96 464 -93 464 -93 c 1x7e
 476 -203 l 1
 476 -203 420 -214 381 -214 c 0
 326 -214 277 -181 277 -117 c 0
 277 -72 306 -31 337 0 c 1
 64 0 l 1xbe
EndSplineSet
Position2: "'cpsp' Capital Spacing in Latin lookup 0 subtable" dx=5 dy=0 dh=10 dv=0
EndChar
StartChar: eogonek
Encoding: 281 281 316
Width: 465
Flags: MW
HStem: -194 118<307.5 386.5> -10 114<226.5 248.5> 200 98<166 198 166 198 165 198> 404 107<212.5 264>
VStem: 31 134<159.5 183 183 200 159.5 307> 231 132<-129 -46.5> 306 132<328 371.5>
LayerCount: 2
Back
Fore
SplineSet
418 -73 m 1xfc
 430 -183 l 1
 430 -183 374 -194 335 -194 c 0
 280 -194 231 -161 231 -97 c 0
 231 -65 245 -35 265 -9 c 1xfc
 258 -10 252 -10 245 -10 c 0
 97 -10 31 67 31 232 c 0
 31 382 85 511 241 511 c 0
 369 511 438 466 438 353 c 0x7a
 438 224 350 200 198 200 c 2
 165 200 l 1
 165 183 l 2
 165 136 198 104 255 104 c 0
 323 104 415 116 415 116 c 1
 417 21 l 1
 417 21 412 19 408 17 c 0
 386 -5 363 -35 363 -58 c 0
 363 -70 371 -76 382 -76 c 0
 391 -76 418 -73 418 -73 c 1xfc
166 298 m 1
 198 298 l 2
 271 298 306 305 306 351 c 0x7a
 306 392 287 404 241 404 c 0
 184 404 168 357 166 298 c 1
EndSplineSet
EndChar
StartChar: Ecaron
Encoding: 282 282 41
Width: 502
Flags: MW
HStem: 0 120<202 468 202 468> 280 120<202 412 202 412> 560 120<202 468 202 202> 794 151<222 228 306 312 222 222>
VStem: 64 138<120 280 400 560>
LayerCount: 2
Back
Fore
SplineSet
438 945 m 1
 312 794 l 1
 222 794 l 1
 96 945 l 1
 228 945 l 1
 267 888 l 1
 306 945 l 1
 438 945 l 1
64 0 m 1
 64 680 l 1
 468 680 l 1
 468 560 l 1
 202 560 l 1
 202 400 l 1
 412 400 l 1
 412 280 l 1
 202 280 l 1
 202 120 l 1
 468 120 l 1
 468 0 l 1
 64 0 l 1
EndSplineSet
Position2: "'cpsp' Capital Spacing in Latin lookup 0 subtable" dx=5 dy=0 dh=10 dv=0
EndChar
StartChar: Gcircumflex
Encoding: 284 284 51
Width: 572
Flags: MW
HStem: -12 120<259 329 259 334.5> 264 114<325 522 325 384> 572 120<262 359.5> 665 21G<522 522> 765 175<124 349 248 258 340 340 340 349 248 475>
VStem: 38 142<276 412 276 462> 384 138<112 264 264 264>
LayerCount: 2
Back
Fore
SplineSet
124 765 m 1xde
 248 940 l 1
 349 940 l 1
 475 765 l 1
 340 765 l 1
 300 827 l 1
 258 765 l 1
 124 765 l 1xde
325 264 m 1
 325 378 l 1
 522 378 l 1
 522 6 l 1
 522 6 372 -12 297 -12 c 0
 96 -12 38 136 38 347 c 0
 38 577 112 692 307 692 c 0xee
 423 692 522 665 522 665 c 1xde
 518 559 l 1
 518 559 398 572 321 572 c 0xee
 203 572 180 477 180 347 c 0
 180 205 201 108 317 108 c 0
 341 108 384 112 384 112 c 1
 384 264 l 1
 325 264 l 1
EndSplineSet
Position2: "'cpsp' Capital Spacing in Latin lookup 0 subtable" dx=5 dy=0 dh=10 dv=0
EndChar
StartChar: gbreve
Encoding: 287 287 318
Width: 480
Flags: MW
HStem: -230 114<211.5 275 211.5 301.5> -21 113<241.5 282> 156 110<218 246 200.5 285> 392 108<402 459 402 459> 402 110<201 238.5 163 246.5> 590 112<193 225 193 270> 590 156<148 158 260 270>
VStem: 26 123<-84 -68.5> 33 123<310.5 356.5 310.5 393> 78 120<116.5 117.5> 260 121<732 746> 293 123<310.5 343.5 274 356.5> 314 145<497 497> 341 126<-78 -43>
LayerCount: 2
Back
Fore
SplineSet
240 -230 m 0xf504
 105 -230 26 -197 26 -96 c 0xf504
 26 -41 61 -6 108 27 c 1
 91 43 78 62 78 100 c 0xf444
 78 135 119 181 119 181 c 1
 55 215 33 270 33 332 c 0
 33 454 103 512 223 512 c 0xec88
 254 512 314 497 314 497 c 1
 459 500 l 1
 459 392 l 1xf488
 402 392 l 1
 410 379 416 355 416 332 c 0
 416 216 348 156 222 156 c 0
 214 156 204 157 204 157 c 1
 204 157 198 134 198 122 c 0xf450
 198 111 198 92 258 92 c 0
 382 92 467 75 467 -60 c 0
 467 -165 363 -230 240 -230 c 0xf504
255 -21 m 0
 228 -21 190 -18 174 -16 c 1
 163 -28 149 -47 149 -68 c 0
 149 -100 175 -116 248 -116 c 0
 302 -116 341 -96 341 -60 c 0
 341 -26 309 -21 255 -21 c 0
222 266 m 0xea90
 270 266 293 289 293 332 c 0
 293 381 270 402 223 402 c 0
 179 402 156 381 156 332 c 0
 156 289 179 266 222 266 c 0xea90
37 746 m 1
 158 746 l 1xf284
 158 718 177 702 209 702 c 0xf4a0
 241 702 260 718 260 746 c 1
 381 746 l 1xf2a0
 381 673 331 590 209 590 c 0xf484
 87 590 37 673 37 746 c 1
EndSplineSet
EndChar
StartChar: gcommaaccent
Encoding: 291 291 320
Width: 480
Flags: MW
HStem: -230 114<211.5 275 211.5 301.5> -21 113<241.5 282> 156 110<218 246 200.5 285> 392 108<402 459 402 459> 402 110<201 238.5 163 246.5> 578 236<207 278 155 321>
VStem: 26 123<-84 -68.5> 33 123<310.5 356.5 310.5 393> 78 120<116.5 117.5> 293 123<310.5 343.5 274 356.5> 314 145<497 497> 341 126<-78 -43>
LayerCount: 2
Back
Fore
SplineSet
207 814 m 1xf510
 321 814 l 1
 278 578 l 1
 155 578 l 1
 207 814 l 1xf510
240 -230 m 0xf610
 105 -230 26 -197 26 -96 c 0xf610
 26 -41 61 -6 108 27 c 1
 91 43 78 62 78 100 c 0xf490
 78 135 119 181 119 181 c 1
 55 215 33 270 33 332 c 0
 33 454 103 512 223 512 c 0xed20
 254 512 314 497 314 497 c 1
 459 500 l 1
 459 392 l 1xf520
 402 392 l 1
 410 379 416 355 416 332 c 0
 416 216 348 156 222 156 c 0
 214 156 204 157 204 157 c 1
 204 157 198 134 198 122 c 0xf4c0
 198 111 198 92 258 92 c 0
 382 92 467 75 467 -60 c 0
 467 -165 363 -230 240 -230 c 0xf610
255 -21 m 0
 228 -21 190 -18 174 -16 c 1
 163 -28 149 -47 149 -68 c 0
 149 -100 175 -116 248 -116 c 0
 302 -116 341 -96 341 -60 c 0
 341 -26 309 -21 255 -21 c 0
222 266 m 0xed40
 270 266 293 289 293 332 c 0
 293 381 270 402 223 402 c 0
 179 402 156 381 156 332 c 0
 156 289 179 266 222 266 c 0xed40
EndSplineSet
EndChar
StartChar: Hbar
Encoding: 294 294 55
Width: 627
Flags: MW
HStem: 0 21G<69 197 69 69 425 554 425 425> 283 131<197 425 197 425> 481 119<6 69 6 69 197 425 554 624>
VStem: 69 128<0 283 414 481 600 680> 425 129<0 283 283 283 414 481 0 481 600 680>
LayerCount: 2
Back
Fore
SplineSet
6 481 m 1
 6 600 l 1
 69 600 l 1
 69 680 l 1
 197 680 l 1
 197 600 l 1
 425 600 l 1
 425 680 l 1
 554 680 l 1
 554 600 l 1
 624 600 l 1
 624 481 l 1
 554 481 l 1
 554 0 l 1
 425 0 l 1
 425 283 l 1
 197 283 l 1
 197 0 l 1
 69 0 l 1
 69 481 l 1
 6 481 l 1
197 414 m 1
 425 414 l 1
 425 481 l 1
 197 481 l 1
 197 414 l 1
EndSplineSet
Position2: "'cpsp' Capital Spacing in Latin lookup 0 subtable" dx=5 dy=0 dh=10 dv=0
EndChar
StartChar: hbar
Encoding: 295 295 322
Width: 521
Flags: MW
HStem: 0 21G<55 189 55 55 337 471 337 337> 398 114<270 298.5> 530 116<7 55 7 55 189 316> 530 170<7 189 7 189 55 189 55 316>
VStem: 55 134<0 343 456 530 646 700> 337 134<0 276 276 310 0 320.5>
LayerCount: 2
Back
Fore
SplineSet
7 530 m 1x9c
 7 646 l 1
 55 646 l 1xac
 55 700 l 1
 189 700 l 1x9c
 189 646 l 1
 316 646 l 1xac
 316 530 l 1
 189 530 l 1x9c
 189 456 l 1
 189 456 232 512 308 512 c 0
 430 512 471 417 471 310 c 2
 471 0 l 1
 337 0 l 1
 337 276 l 2
 337 365 322 398 275 398 c 0
 229 398 189 343 189 343 c 1xdc
 189 0 l 1
 55 0 l 1
 55 530 l 1
 7 530 l 1x9c
EndSplineSet
EndChar
StartChar: Itilde
Encoding: 296 296 66
Width: 266
Flags: MW
HStem: 0 21G<64 64 64 202> 769 119<193 218 193 231> 812 118<34.5 66.5>
VStem: 64 138<0 680 0 680>
LayerCount: 2
Back
Fore
SplineSet
283 926 m 1xd0
 308 833 l 1
 308 833 255 769 207 769 c 0xd0
 158 769 85 812 48 812 c 0
 21 812 -28 773 -28 773 c 1
 -52 866 l 1
 -52 866 -1 930 49 930 c 0xb0
 108 930 180 888 206 888 c 0
 230 888 283 926 283 926 c 1xd0
64 0 m 1
 64 680 l 1
 202 680 l 1
 202 0 l 1
 64 0 l 1
EndSplineSet
Position2: "'cpsp' Capital Spacing in Latin lookup 0 subtable" dx=5 dy=0 dh=10 dv=0
EndChar
StartChar: itilde
Encoding: 297 297 323
Width: 244
Flags: MW
HStem: 0 21G<55 55 55 189> 480 20G<55 189 189 189> 590 118<175.5 200.5 175.5 213> 634 117<35.5 65> 688 20G<175.5 200.5>
VStem: 55 134<0 500 0 500>
LayerCount: 2
Back
Fore
SplineSet
55 0 m 1xe4
 55 500 l 1
 189 500 l 1
 189 0 l 1
 55 0 l 1xe4
265 747 m 1
 290 655 l 1
 290 655 237 590 189 590 c 0xe4
 141 590 81 634 49 634 c 0
 22 634 -27 594 -27 594 c 1xd4
 -51 686 l 1
 -51 686 0 751 50 751 c 0xcc
 105 751 163 708 188 708 c 0
 213 708 265 747 265 747 c 1
EndSplineSet
EndChar
StartChar: imacron
Encoding: 299 299 324
Width: 244
Flags: MW
HStem: 0 21G<55 55 55 189> 480 20G<55 189 189 189> 627 109<-35 274 -35 274>
VStem: 55 134<0 500 0 500>
LayerCount: 2
Back
Fore
SplineSet
55 0 m 1
 55 500 l 1
 189 500 l 1
 189 0 l 1
 55 0 l 1
-35 627 m 1
 -35 736 l 1
 274 736 l 1
 274 627 l 1
 -35 627 l 1
EndSplineSet
EndChar
StartChar: Ibreve
Encoding: 300 300 59
Width: 266
Flags: MW
HStem: 0 21G<64 64 64 202> 783 144<56.5 84 172 200.5>
VStem: -37 121<912.5 927 912.5 927> 64 138<0 680 0 680> 172 121<912.5 927>
LayerCount: 2
Back
Fore
SplineSet
-37 927 m 1xe8
 84 927 l 1
 84 898 98 885 128 885 c 0
 155 885 172 898 172 927 c 1
 293 927 l 1
 293 885 273 783 128 783 c 0
 -15 783 -37 885 -37 927 c 1xe8
64 0 m 1xd0
 64 680 l 1
 202 680 l 1
 202 0 l 1
 64 0 l 1xd0
EndSplineSet
Position2: "'cpsp' Capital Spacing in Latin lookup 0 subtable" dx=5 dy=0 dh=10 dv=0
EndChar
StartChar: ibreve
Encoding: 301 301 325
Width: 244
Flags: MW
HStem: 0 21G<55 55 55 189> 480 20G<55 189 189 189> 590 112<103 135 103 180> 590 156<58 68 170 180>
VStem: 55 134<0 500 0 500> 170 121<732 746>
LayerCount: 2
Back
Fore
SplineSet
55 0 m 1xe8
 55 500 l 1
 189 500 l 1
 189 0 l 1
 55 0 l 1xe8
-53 746 m 1xd8
 68 746 l 1xd8
 68 718 87 702 119 702 c 0xe4
 151 702 170 718 170 746 c 1
 291 746 l 1xd4
 291 673 241 590 119 590 c 0xe8
 -3 590 -53 673 -53 746 c 1xd8
EndSplineSet
EndChar
StartChar: Iogonek
Encoding: 302 302 65
Width: 266
Flags: MW
HStem: -214 21G<87.5 134.5> -214 118<87.5 166.5> 0 21G<64 64 64 77 202 202>
VStem: 64 138<0 680 0 680>
LayerCount: 2
Back
Fore
SplineSet
64 0 m 1xb0
 64 680 l 1
 202 680 l 1
 202 0 l 1
 168 -23 143 -53 143 -78 c 0
 143 -90 151 -96 162 -96 c 0
 171 -96 198 -93 198 -93 c 1x70
 210 -203 l 1
 210 -203 154 -214 115 -214 c 0
 60 -214 11 -181 11 -117 c 0
 11 -72 44 -31 77 0 c 1
 64 0 l 1xb0
EndSplineSet
Position2: "'cpsp' Capital Spacing in Latin lookup 0 subtable" dx=5 dy=0 dh=10 dv=0
EndChar
StartChar: iogonek
Encoding: 303 303 326
Width: 244
Flags: MW
HStem: -214 118<70.5 149.5> 0 21G<55 55 189 189> 480 20G<55 189 189 189> 552 137<54 190 54 190>
VStem: 55 134<0 500 0 500>
LayerCount: 2
Back
Fore
SplineSet
181 -93 m 1
 193 -203 l 1
 193 -203 137 -214 98 -214 c 0
 43 -214 -6 -181 -6 -117 c 0
 -6 -71 23 -30 55 0 c 1
 55 500 l 1
 189 500 l 1
 189 0 l 1
 157 -20 126 -53 126 -78 c 0
 126 -90 134 -96 145 -96 c 0
 154 -96 181 -93 181 -93 c 1
54 552 m 1
 54 689 l 1
 190 689 l 1
 190 552 l 1
 54 552 l 1
EndSplineSet
EndChar
StartChar: dotlessi
Encoding: 305 305 184
Width: 244
Flags: MW
HStem: 0 21G<55 55 55 189> 480 20G<55 189 189 189>
VStem: 55 134<0 500 0 500>
LayerCount: 2
Back
Fore
SplineSet
55 0 m 1
 55 500 l 1
 189 500 l 1
 189 0 l 1
 55 0 l 1
EndSplineSet
EndChar
StartChar: Jcircumflex
Encoding: 308 308 68
Width: 282
Flags: MW
HStem: 779 152<-28 187 -28 187 106 198 106 323>
VStem: 83 138<127 680>
LayerCount: 2
Back
Fore
SplineSet
221 680 m 1
 221 126 l 2
 221 -17 204 -69 16 -69 c 1
 16 51 l 1
 78 53 83 74 83 127 c 2
 83 680 l 1
 221 680 l 1
-28 779 m 1
 106 931 l 1
 187 931 l 1
 323 779 l 1
 198 779 l 1
 148 840 l 1
 96 779 l 1
 -28 779 l 1
EndSplineSet
Position2: "'cpsp' Capital Spacing in Latin lookup 0 subtable" dx=5 dy=0 dh=10 dv=0
EndChar
StartChar: jcircumflex
Encoding: 309 309 327
Width: 244
Flags: MW
HStem: -230 21G<5 5> 480 20G<55 189 189 189> 575 175<-43 162 -43 162 81 163 81 288>
VStem: 55 134<0 500>
LayerCount: 2
Back
Fore
SplineSet
55 0 m 2
 55 500 l 1
 189 500 l 1
 189 0 l 2
 189 -126 175 -152 5 -230 c 1
 -43 -129 l 1
 51 -71 55 -64 55 0 c 2
-43 575 m 1
 81 750 l 1
 162 750 l 1
 288 575 l 1
 163 575 l 1
 123 637 l 1
 81 575 l 1
 -43 575 l 1
EndSplineSet
EndChar
StartChar: kcommaaccent
Encoding: 311 311 328
Width: 479
Flags: MW
HStem: -309 237<144 310 188 258> 0 21G<55 189 55 55 324 324 324 471> 480 20G<321 468 468 468> 680 20G<55 189 189 189>
VStem: 55 134<0 188 302 700>
LayerCount: 2
Back
Fore
SplineSet
144 -309 m 1
 188 -72 l 1
 310 -72 l 1
 258 -309 l 1
 144 -309 l 1
189 0 m 1
 55 0 l 1
 55 700 l 1
 189 700 l 1
 189 302 l 1
 225 310 l 1
 321 500 l 1
 468 500 l 1
 338 264 l 1
 471 0 l 1
 324 0 l 1
 229 196 l 1
 189 188 l 1
 189 0 l 1
EndSplineSet
EndChar
StartChar: Lacute
Encoding: 313 313 72
Width: 425
Flags: MW
HStem: 0 120<202 418 202 418>
VStem: 64 138<120 680 120 680 120 680>
LayerCount: 2
Back
Fore
SplineSet
119 765 m 1
 84 868 l 1
 326 962 l 1
 365 842 l 1
 119 765 l 1
418 0 m 1
 64 0 l 1
 64 680 l 1
 202 680 l 1
 202 120 l 1
 418 120 l 1
 418 0 l 1
EndSplineSet
Position2: "'cpsp' Capital Spacing in Latin lookup 0 subtable" dx=5 dy=0 dh=10 dv=0
EndChar
StartChar: lacute
Encoding: 314 314 329
Width: 244
Flags: MW
HStem: 0 21G<55 55 55 189> 680 20G<55 189 189 189>
VStem: 55 134<0 700 0 700 0 765>
LayerCount: 2
Back
Fore
SplineSet
55 0 m 1
 55 700 l 1
 189 700 l 1
 189 0 l 1
 55 0 l 1
55 765 m 1
 20 868 l 1
 262 962 l 1
 301 842 l 1
 55 765 l 1
EndSplineSet
EndChar
StartChar: Lcommaaccent
Encoding: 315 315 74
Width: 425
Flags: MW
HStem: -72 192<183 418 202 305> 0 120<202 418 202 418>
VStem: 64 138<120 680 120 680 120 680>
LayerCount: 2
Back
Fore
SplineSet
183 -72 m 1xa0
 139 -309 l 1
 253 -309 l 1
 305 -72 l 1
 183 -72 l 1xa0
418 0 m 1x60
 64 0 l 1
 64 680 l 1
 202 680 l 1
 202 120 l 1
 418 120 l 1
 418 0 l 1x60
EndSplineSet
Position2: "'cpsp' Capital Spacing in Latin lookup 0 subtable" dx=5 dy=0 dh=10 dv=0
EndChar
StartChar: lcommaaccent
Encoding: 316 316 331
Width: 244
Flags: MW
HStem: 0 21G<55 55 55 189> 680 20G<55 189 189 189>
VStem: 55 134<0 700 0 700>
LayerCount: 2
Back
Fore
SplineSet
62 -72 m 1
 18 -309 l 1
 132 -309 l 1
 184 -72 l 1
 62 -72 l 1
55 0 m 1
 55 700 l 1
 189 700 l 1
 189 0 l 1
 55 0 l 1
EndSplineSet
EndChar
StartChar: Lcaron
Encoding: 317 317 73
Width: 460
Flags: MW
HStem: 0 120<202 418 202 418> 429 261<304 427 304 427>
VStem: 64 138<120 680 120 680 120 680> 304 123<429 690 429 690>
LayerCount: 2
Back
Fore
SplineSet
427 690 m 1
 427 429 l 1
 304 429 l 1
 304 690 l 1
 427 690 l 1
418 0 m 1
 64 0 l 1
 64 680 l 1
 202 680 l 1
 202 120 l 1
 418 120 l 1
 418 0 l 1
EndSplineSet
Position2: "'cpsp' Capital Spacing in Latin lookup 0 subtable" dx=5 dy=0 dh=10 dv=0
EndChar
StartChar: lcaron
Encoding: 318 318 330
Width: 358
Flags: MW
HStem: 0 21G<55 55 55 189> 429 261<243 366 243 366> 680 20G<55 189 189 189>
VStem: 55 134<0 700 0 700> 243 123<429 690 429 690>
LayerCount: 2
Back
Fore
SplineSet
366 690 m 1xd8
 366 429 l 1
 243 429 l 1
 243 690 l 1
 366 690 l 1xd8
55 0 m 1
 55 700 l 1
 189 700 l 1xb8
 189 0 l 1
 55 0 l 1
EndSplineSet
EndChar
StartChar: Lslash
Encoding: 321 321 75
Width: 432
Flags: MW
HStem: 0 120<208 424 208 424>
VStem: 70 138<120 214 214 214 455 680>
LayerCount: 2
Back
Fore
SplineSet
424 0 m 1
 70 0 l 1
 70 214 l 1
 39 191 l 1
 -23 284 l 1
 70 353 l 1
 70 680 l 1
 208 680 l 1
 208 455 l 1
 308 530 l 1
 371 438 l 1
 208 316 l 1
 208 120 l 1
 424 120 l 1
 424 0 l 1
EndSplineSet
Position2: "'cpsp' Capital Spacing in Latin lookup 0 subtable" dx=5 dy=0 dh=10 dv=0
EndChar
StartChar: lslash
Encoding: 322 322 190
Width: 300
Flags: MW
HStem: 0 21G<83 83 83 217> 680 20G<83 217 217 217>
VStem: 83 134<0 216 216 216 451 700>
LayerCount: 2
Back
Fore
SplineSet
83 0 m 1
 83 216 l 1
 49 191 l 1
 -13 284 l 1
 83 354 l 1
 83 700 l 1
 217 700 l 1
 217 451 l 1
 249 475 l 1
 312 383 l 1
 217 313 l 1
 217 0 l 1
 83 0 l 1
EndSplineSet
EndChar
StartChar: Nacute
Encoding: 323 323 78
Width: 649
Flags: MW
HStem: 0 147<377 454 443 454 443 585> 543 137<202 213 202 202>
VStem: 64 138<0 543 0 680 0 680> 454 131<147 680 0 680>
LayerCount: 2
Back
Fore
SplineSet
222 765 m 1
 187 868 l 1
 429 962 l 1
 468 842 l 1
 222 765 l 1
64 0 m 1
 64 680 l 1
 280 680 l 1
 443 147 l 1
 454 147 l 1
 454 680 l 1
 585 680 l 1
 585 0 l 1
 377 0 l 1
 213 543 l 1
 202 543 l 1
 202 0 l 1
 64 0 l 1
EndSplineSet
Position2: "'cpsp' Capital Spacing in Latin lookup 0 subtable" dx=5 dy=0 dh=10 dv=0
EndChar
StartChar: nacute
Encoding: 324 324 332
Width: 521
Flags: MW
HStem: 680 21G<138 138>
VStem: 189 148<0 276 0 339 0 339>
LayerCount: 2
Back
Fore
SplineSet
55 0 m 1
 189 0 l 1
 189 339 l 1
 189 339 229 398 273 398 c 0
 322 398 337 365 337 276 c 2
 337 0 l 1
 471 0 l 1
 471 309 l 2
 471 417 429 512 308 512 c 0
 232 512 188 451 188 451 c 1
 186 500 l 1
 55 500 l 1
 55 0 l 1
173 576 m 1
 138 680 l 1
 380 774 l 1
 419 654 l 1
 173 576 l 1
EndSplineSet
EndChar
StartChar: Ncommaaccent
Encoding: 325 325 80
Width: 649
Flags: MW
HStem: 0 147<377 454 443 454 443 585> 543 137<202 213 202 202>
VStem: 64 138<0 543 0 680 0 680> 454 131<147 680 0 680>
LayerCount: 2
Back
Fore
SplineSet
281 -72 m 1
 237 -309 l 1
 351 -309 l 1
 403 -72 l 1
 281 -72 l 1
64 0 m 1
 64 680 l 1
 280 680 l 1
 443 147 l 1
 454 147 l 1
 454 680 l 1
 585 680 l 1
 585 0 l 1
 377 0 l 1
 213 543 l 1
 202 543 l 1
 202 0 l 1
 64 0 l 1
EndSplineSet
Position2: "'cpsp' Capital Spacing in Latin lookup 0 subtable" dx=5 dy=0 dh=10 dv=0
EndChar
StartChar: ncommaaccent
Encoding: 326 326 334
Width: 521
Flags: MW
HStem: -309 237<167 333 211 281> 0 21G<55 189 55 55 337 337 337 471> 398 102<55 297.5> 398 114<270 297.5>
VStem: 55 134<0 339> 337 134<0 276 276 309 0 320.5>
LayerCount: 2
Back
Fore
SplineSet
189 0 m 1xdc
 55 0 l 1
 55 500 l 1
 186 500 l 1
 188 451 l 1xec
 188 451 232 512 308 512 c 0
 429 512 471 417 471 309 c 2
 471 0 l 1
 337 0 l 1
 337 276 l 2
 337 365 322 398 273 398 c 0
 229 398 189 339 189 339 c 1
 189 0 l 1xdc
167 -309 m 1
 211 -72 l 1
 333 -72 l 1
 281 -309 l 1
 167 -309 l 1
EndSplineSet
EndChar
StartChar: ncaron
Encoding: 328 328 333
Width: 521
Flags: MW
HStem: 0 21G<55 189 55 55 337 337 337 471> 398 102<55 297.5> 398 114<270 297.5> 575 175<230 234 312 316 230 230>
VStem: 55 134<0 339> 337 134<0 276 276 309 0 320.5>
LayerCount: 2
Back
Fore
SplineSet
189 0 m 1xbc
 55 0 l 1
 55 500 l 1
 186 500 l 1
 188 451 l 1xdc
 188 451 232 512 308 512 c 0
 429 512 471 417 471 309 c 2
 471 0 l 1
 337 0 l 1
 337 276 l 2
 337 365 322 398 273 398 c 0
 229 398 189 339 189 339 c 1
 189 0 l 1xbc
316 575 m 1
 230 575 l 1
 107 750 l 1
 234 750 l 1
 273 687 l 1
 312 750 l 1
 439 750 l 1
 316 575 l 1
EndSplineSet
EndChar
StartChar: Eng
Encoding: 330 330 300
Width: 649
Flags: MW
HStem: -210 21G<387 477> 0 147<377 454 443 454 443 454> 553 137<202 213 202 202>
VStem: 64 138<0 553 0 690 0 690> 454 131<-14 0 0 0 147 690>
LayerCount: 2
Back
Fore
SplineSet
64 0 m 1
 64 690 l 1
 280 690 l 1
 443 147 l 1
 454 147 l 1
 454 690 l 1
 585 690 l 1
 585 -15 l 2
 585 -158 567 -210 387 -210 c 1
 387 -90 l 1
 449 -88 454 -67 454 -14 c 2
 454 0 l 1
 377 0 l 1
 213 553 l 1
 202 553 l 1
 202 0 l 1
 64 0 l 1
EndSplineSet
Position2: "'cpsp' Capital Spacing in Latin lookup 0 subtable" dx=5 dy=0 dh=10 dv=0
EndChar
StartChar: eng
Encoding: 331 331 448
Width: 505
Flags: MW
HStem: 0 21G<54 181 54 54 454 454> 386 125<272 275> 479 20G<54 181 181 181> 491 20G<272 357.5>
VStem: 54 127<0 348 457 499> 328 126<2 308>
LayerCount: 2
Back
Fore
SplineSet
181 0 m 1x9c
 54 0 l 1
 54 499 l 1
 181 499 l 1xac
 181 457 l 1
 203 476 250 511 294 511 c 0
 421 511 454 419 454 308 c 2
 454 0 l 2
 454 -140 427 -177 287 -246 c 1
 229 -133 l 1
 316 -83 328 -68 328 2 c 2
 328 308 l 2
 328 372 283 386 267 386 c 0
 238 386 181 348 181 348 c 1xcc
 181 0 l 1x9c
EndSplineSet
EndChar
StartChar: Omacron
Encoding: 332 332 89
Width: 592
Flags: MW
HStem: -12 120<248.5 307.5 248.5 324.5> 572 120<285 343.5> 806 109<137 463 137 463>
VStem: 39 142<257 415.5 257 432> 137 326<806 915 806 915> 411 142<279 437>
LayerCount: 2
Back
Fore
SplineSet
296 108 m 0xf4
 319 108 338 112 353 120 c 0
 399 145 411 211 411 347 c 0
 411 527 391 572 296 572 c 0
 274 572 255 569 240 563 c 0
 192 543 181 484 181 347 c 0
 181 167 201 108 296 108 c 0xf4
296 -12 m 0
 106 -12 39 95 39 347 c 0
 39 517 70 615 148 660 c 0
 186 682 234 692 296 692 c 0
 486 692 553 599 553 347 c 0
 553 170 520 65 435 18 c 0
 399 -2 353 -12 296 -12 c 0
137 806 m 1xe8
 137 915 l 1
 463 915 l 1
 463 806 l 1
 137 806 l 1xe8
EndSplineSet
Position2: "'cpsp' Capital Spacing in Latin lookup 0 subtable" dx=5 dy=0 dh=10 dv=0
EndChar
StartChar: omacron
Encoding: 333 333 335
Width: 486
Flags: MW
HStem: -12 114<208 277.5 208 326.5> 397 114<208 278> 627 109<90 399 90 399>
VStem: 31 128<208.5 291.5 208.5 322> 90 309<627 736 627 736> 327 128<208.5 291.5>
LayerCount: 2
Back
Fore
SplineSet
243 511 m 0xf4
 407 511 455 394 455 250 c 0
 455 106 410 -12 243 -12 c 0
 76 -12 31 106 31 250 c 0
 31 394 78 511 243 511 c 0xf4
243 102 m 0
 312 102 327 167 327 250 c 0
 327 333 313 397 243 397 c 0
 173 397 159 333 159 250 c 0
 159 167 173 102 243 102 c 0
90 627 m 1xe8
 90 736 l 1
 399 736 l 1
 399 627 l 1
 90 627 l 1xe8
EndSplineSet
EndChar
StartChar: Obreve
Encoding: 334 334 84
Width: 592
Flags: MW
HStem: -12 120<248.5 307.5 248.5 324.5> 572 120<285 343.5> 783 144<223.5 251 339 367.5>
VStem: 39 142<257 415.5 257 432> 130 121<912.5 927 912.5 927> 339 121<912.5 927> 411 142<279 437>
LayerCount: 2
Back
Fore
SplineSet
130 927 m 1xec
 251 927 l 1
 251 898 265 885 295 885 c 0
 322 885 339 898 339 927 c 1
 460 927 l 1
 460 885 440 783 295 783 c 0
 152 783 130 885 130 927 c 1xec
296 108 m 0
 319 108 338 112 353 120 c 0
 399 145 411 211 411 347 c 0
 411 527 391 572 296 572 c 0
 274 572 255 569 240 563 c 0
 192 543 181 484 181 347 c 0xf2
 181 167 201 108 296 108 c 0
296 -12 m 0xf2
 106 -12 39 95 39 347 c 0
 39 517 70 615 148 660 c 0
 186 682 234 692 296 692 c 0
 486 692 553 599 553 347 c 0
 553 170 520 65 435 18 c 0
 399 -2 353 -12 296 -12 c 0xf2
EndSplineSet
Position2: "'cpsp' Capital Spacing in Latin lookup 0 subtable" dx=5 dy=0 dh=10 dv=0
EndChar
StartChar: obreve
Encoding: 335 335 336
Width: 486
Flags: MW
HStem: -12 114<208 277.5 208 326.5> 397 114<208 278> 590 112<229 261 229 306> 590 156<184 194 296 306>
VStem: 31 128<208.5 291.5 208.5 322> 296 121<732 746> 327 128<208.5 291.5>
LayerCount: 2
Back
Fore
SplineSet
243 511 m 0xea
 407 511 455 394 455 250 c 0
 455 106 410 -12 243 -12 c 0
 76 -12 31 106 31 250 c 0
 31 394 78 511 243 511 c 0xea
243 102 m 0
 312 102 327 167 327 250 c 0
 327 333 313 397 243 397 c 0
 173 397 159 333 159 250 c 0
 159 167 173 102 243 102 c 0
73 746 m 1xda
 194 746 l 1xda
 194 718 213 702 245 702 c 0xec
 277 702 296 718 296 746 c 1
 417 746 l 1xdc
 417 673 367 590 245 590 c 0xea
 123 590 73 673 73 746 c 1xda
EndSplineSet
EndChar
StartChar: ohungarumlaut
Encoding: 337 337 337
Width: 486
Flags: MW
HStem: -12 114<208 277.5 208 326.5> 397 114<208 278>
VStem: 31 128<208.5 291.5 208.5 322> 327 128<208.5 291.5>
LayerCount: 2
Back
Fore
SplineSet
243 511 m 0
 407 511 455 394 455 250 c 0
 455 106 410 -12 243 -12 c 0
 76 -12 31 106 31 250 c 0
 31 394 78 511 243 511 c 0
243 102 m 0
 312 102 327 167 327 250 c 0
 327 333 313 397 243 397 c 0
 173 397 159 333 159 250 c 0
 159 167 173 102 243 102 c 0
349 559 m 1
 253 623 l 1
 364 815 l 1
 468 748 l 1
 349 559 l 1
156 559 m 1
 61 623 l 1
 172 814 l 1
 275 748 l 1
 156 559 l 1
EndSplineSet
EndChar
StartChar: OE
Encoding: 338 338 93
Width: 832
Flags: MW
HStem: -12 132<268.5 300.5> 0 120<268.5 798 268.5 397> 0 131<523 798 523 798 397 798> 277 125<523 742 523 742> 559 131<523 798 523 523> 570 132<256.5 300.5 202 311>
VStem: 38 134<318.5 429 318.5 470> 395 128<131 277 402 559>
LayerCount: 2
Back
Fore
SplineSet
798 0 m 1x37
 397 0 l 1x37
 361 -6 318 -12 283 -12 c 0
 164 -12 95 44 62 150 c 0
 46 203 38 268 38 345 c 0
 38 595 121 702 283 702 c 0x97
 318 702 360 696 395 690 c 1
 798 690 l 1
 798 559 l 1
 523 559 l 1x3b
 523 402 l 1
 742 402 l 1
 742 277 l 1
 523 277 l 1
 523 131 l 1
 798 131 l 1
 798 0 l 1x37
302 120 m 0x57
 322 120 363 123 395 126 c 1
 395 564 l 1
 365 567 322 570 300 570 c 0
 213 570 172 513 172 345 c 0
 172 292 175 249 183 216 c 0
 199 149 235 120 302 120 c 0x57
EndSplineSet
Position2: "'cpsp' Capital Spacing in Latin lookup 0 subtable" dx=5 dy=0 dh=10 dv=0
EndChar
StartChar: oe
Encoding: 339 339 226
Width: 763
Flags: MW
HStem: -12 121<523 578.5 523 582.5> 192 104<454 607 453 731 454 454> 389 122<505 553> 392 119<208 265.5>
VStem: 31 128<230 290 230 322> 327 126<217.5 296> 607 124<192 309.5>
LayerCount: 2
Back
Fore
SplineSet
544 109 m 0xde
 613 109 714 118 714 118 c 1
 716 16 l 1
 716 16 631 -12 534 -12 c 0
 473 -12 421 6 388 38 c 1
 353 7 306 -12 243 -12 c 0
 140 -12 83 34 55 104 c 0
 38 148 31 196 31 250 c 0
 31 394 79 511 243 511 c 0
 309 511 358 489 392 456 c 1
 427 490 472 511 530 511 c 0
 629 511 689 466 715 391 c 0
 725 361 731 326 731 287 c 2
 731 192 l 1
 454 192 l 1
 454 175 458 160 464 148 c 0
 477 123 502 109 544 109 c 0xde
243 107 m 0
 317 107 327 185 327 250 c 0
 327 274 326 299 320 331 c 0
 311 370 288 392 243 392 c 0
 173 392 159 330 159 250 c 0
 159 210 163 174 175 148 c 0
 187 122 208 107 243 107 c 0
453 296 m 1
 607 296 l 1
 607 323 605 343 599 358 c 0
 590 380 571 389 535 389 c 0xee
 475 389 454 356 453 296 c 1
EndSplineSet
EndChar
StartChar: Racute
Encoding: 340 340 97
Width: 562
Flags: MW
HStem: 345 217<202 294 202 294> 680 21G<64 294 64 64>
VStem: 202 177<417.5 494.5 417.5 562 417.5 562>
LayerCount: 2
Back
Fore
SplineSet
306 227 m 1
 391 0 l 1
 535 0 l 1
 433 257 l 1
 485 286 521 341 521 456 c 0
 521 623 439 680 294 680 c 2
 64 680 l 1
 64 0 l 1
 202 0 l 1
 202 227 l 1
 306 227 l 1
379 456 m 0
 379 379 354 345 294 345 c 2
 202 345 l 1
 202 562 l 1
 294 562 l 2
 354 562 379 533 379 456 c 0
165 765 m 1
 130 868 l 1
 372 962 l 1
 411 842 l 1
 165 765 l 1
EndSplineSet
Position2: "'cpsp' Capital Spacing in Latin lookup 0 subtable" dx=5 dy=0 dh=10 dv=0
EndChar
StartChar: racute
Encoding: 341 341 338
Width: 330
Flags: MW
HStem: 0 21G<55 55 55 189> 430 70<55 188> 492 20G<316 316> 680 21G<28 28>
VStem: 55 134<0 318 0 500> 188 128<430 500 430 430>
LayerCount: 2
Back
Fore
SplineSet
55 0 m 1xb8
 55 500 l 1
 188 500 l 1
 188 430 l 1xd8
 188 430 243 494 316 512 c 1
 316 373 l 1xb4
 254 358 189 318 189 318 c 1
 189 0 l 1
 55 0 l 1xb8
63 576 m 1
 28 680 l 1
 270 774 l 1
 309 654 l 1
 63 576 l 1
EndSplineSet
EndChar
StartChar: Rcommaaccent
Encoding: 342 342 99
Width: 562
Flags: MW
HStem: -309 237<189 355 233 303> 0 21G<64 202 64 64 391 535 391 391> 227 118<202 294 294 306 202 294> 562 118<202 294 202 202>
VStem: 64 138<0 227 0 345 345 562> 379 142<417.5 494.5>
LayerCount: 2
Back
Fore
SplineSet
189 -309 m 1
 233 -72 l 1
 355 -72 l 1
 303 -309 l 1
 189 -309 l 1
391 0 m 1
 306 227 l 1
 202 227 l 1
 202 0 l 1
 64 0 l 1
 64 680 l 1
 294 680 l 2
 439 680 521 623 521 456 c 0
 521 341 485 286 433 257 c 1
 535 0 l 1
 391 0 l 1
379 456 m 0
 379 533 354 562 294 562 c 2
 202 562 l 1
 202 345 l 1
 294 345 l 2
 354 345 379 379 379 456 c 0
EndSplineSet
Position2: "'cpsp' Capital Spacing in Latin lookup 0 subtable" dx=5 dy=0 dh=10 dv=0
EndChar
StartChar: rcommaaccent
Encoding: 343 343 339
Width: 330
Flags: MW
HStem: 0 21G<55 55 55 189> 430 70<55 188> 492 20G<316 316>
VStem: 55 134<0 318 0 500> 188 128<430 500 430 430>
LayerCount: 2
Back
Fore
SplineSet
55 0 m 1xb0
 55 500 l 1
 188 500 l 1
 188 430 l 1xd0
 188 430 243 494 316 512 c 1
 316 373 l 1xa8
 254 358 189 318 189 318 c 1
 189 0 l 1
 55 0 l 1xb0
64 -72 m 1
 20 -309 l 1
 134 -309 l 1
 186 -72 l 1
 64 -72 l 1
EndSplineSet
EndChar
StartChar: Rcaron
Encoding: 344 344 98
Width: 562
Flags: MW
HStem: 345 217<202 294 202 294> 680 247<94 226 94 294 64 226> 776 151<220 226 304 310 220 220>
VStem: 202 177<417.5 494.5 417.5 562 417.5 562>
LayerCount: 2
Back
Fore
SplineSet
436 927 m 1xd0
 310 776 l 1
 220 776 l 1xb0
 94 927 l 1
 226 927 l 1
 265 870 l 1
 304 927 l 1
 436 927 l 1xd0
306 227 m 1
 391 0 l 1
 535 0 l 1
 433 257 l 1
 485 286 521 341 521 456 c 0
 521 623 439 680 294 680 c 2
 64 680 l 1xd0
 64 0 l 1
 202 0 l 1
 202 227 l 1
 306 227 l 1
379 456 m 0
 379 379 354 345 294 345 c 2
 202 345 l 1
 202 562 l 1
 294 562 l 2
 354 562 379 533 379 456 c 0
EndSplineSet
Position2: "'cpsp' Capital Spacing in Latin lookup 0 subtable" dx=5 dy=0 dh=10 dv=0
EndChar
StartChar: rcaron
Encoding: 345 345 340
Width: 330
Flags: MW
HStem: 0 21G<55 55 55 189> 430 70<55 188> 492 20G<316 316> 575 175<117 121 199 203 117 117>
VStem: 55 134<0 318 0 500> 188 128<430 500 430 430>
LayerCount: 2
Back
Fore
SplineSet
55 0 m 1xb8
 55 500 l 1
 188 500 l 1
 188 430 l 1xd8
 188 430 243 494 316 512 c 1
 316 373 l 1xb4
 254 358 189 318 189 318 c 1
 189 0 l 1
 55 0 l 1xb8
203 575 m 1
 117 575 l 1
 -6 750 l 1
 121 750 l 1
 160 687 l 1
 199 750 l 1
 326 750 l 1
 203 575 l 1
EndSplineSet
EndChar
StartChar: sacute
Encoding: 347 347 341
Width: 432
Flags: MW
HStem: -12 114<175.5 227 175.5 271> 397 114<206 252> 680 21G<94 94>
VStem: 34 134<344.5 372 344.5 405> 271 134<125.5 152>
LayerCount: 2
Back
Fore
SplineSet
388 483 m 1
 384 382 l 1
 384 382 285 397 219 397 c 0
 193 397 168 385 168 359 c 0
 168 330 180 321 241 305 c 0
 347 277 405 259 405 151 c 0
 405 24 330 -12 212 -12 c 0
 123 -12 32 17 32 17 c 1
 38 118 l 1
 38 118 152 102 199 102 c 0
 255 102 271 113 271 138 c 0
 271 166 258 173 202 186 c 0
 90 212 34 245 34 347 c 0
 34 463 121 511 210 511 c 0
 308 511 388 483 388 483 c 1
129 576 m 1
 94 680 l 1
 336 774 l 1
 375 654 l 1
 129 576 l 1
EndSplineSet
EndChar
StartChar: Scedilla
Encoding: 350 350 103
Width: 504
Flags: MW
HStem: -229 91<237 316> -218 21G<196 196> -94 61<222 279 222 279> -11 21G<222 222 273 273> 572 120<233.5 300> 667 21G<450 450>
VStem: 30 140<478 528.5 478 555.5> 222 51<-33 -11 -33 -11 -33 -11> 281 108<-122 -106> 334 140<157 217.5>
LayerCount: 2
Back
Fore
SplineSet
450 667 m 1x5740
 444 559 l 1
 444 559 330 572 270 572 c 0
 197 572 170 555 170 502 c 0
 170 454 193 443 291 408 c 0
 424 361 474 329 474 199 c 0
 474 61 410 -4 273 -11 c 1x5b40
 273 -33 l 1
 279 -33 l 2
 332 -33 389 -47 389 -124 c 0
 389 -192 348 -229 284 -229 c 0xb780
 243 -229 196 -218 196 -218 c 1x5740
 200 -137 l 1
 200 -137 229 -138 245 -138 c 0
 271 -138 281 -130 281 -114 c 0
 281 -98 267 -94 245 -94 c 2xb780
 222 -94 l 1x7740
 222 -11 l 1
 137 -8 46 11 46 11 c 1x5740
 53 122 l 1
 53 122 185 108 245 108 c 0
 305 108 334 127 334 187 c 0
 334 248 308 259 219 288 c 0
 87 331 30 380 30 482 c 0
 30 629 103 692 260 692 c 0x7b40
 350 692 450 667 450 667 c 1x5740
EndSplineSet
Substitution2: "'locl' Localized Forms in Latin lookup 0 subtable" Scommaaccent
Position2: "'cpsp' Capital Spacing in Latin lookup 0 subtable" dx=5 dy=0 dh=10 dv=0
EndChar
StartChar: scedilla
Encoding: 351 351 343
Width: 432
Flags: MW
HStem: -229 91<194 273> -218 21G<153 153> -94 61<179 236 179 236> -11 113<179 179 175.5 230> 397 114<206 252>
VStem: 34 134<344.5 372 344.5 405> 179 51<-33 -11 -33 -11 -33 -11> 238 108<-122 -106> 271 134<125.5 152>
LayerCount: 2
Back
Fore
SplineSet
346 -124 m 0xbb
 346 -192 305 -229 241 -229 c 0x9a80
 200 -229 153 -218 153 -218 c 1x5a80
 157 -137 l 1
 157 -137 186 -138 202 -138 c 0
 228 -138 238 -130 238 -114 c 0
 238 -98 224 -94 202 -94 c 2xbb
 179 -94 l 1x7a80
 179 -11 l 1x5a80
 102 -5 32 17 32 17 c 1
 38 118 l 1
 38 118 152 102 199 102 c 0
 255 102 271 113 271 138 c 0
 271 166 258 173 202 186 c 0
 90 212 34 245 34 347 c 0
 34 463 121 511 210 511 c 0
 308 511 388 483 388 483 c 1
 384 382 l 1
 384 382 285 397 219 397 c 0
 193 397 168 385 168 359 c 0x5e80
 168 330 180 321 241 305 c 0
 347 277 405 259 405 151 c 0
 405 30 337 -8 230 -11 c 1x5a80
 230 -33 l 1
 236 -33 l 2
 289 -33 346 -47 346 -124 c 0xbb
EndSplineSet
Substitution2: "'locl' Localized Forms in Latin lookup 0 subtable" scommaaccent
EndChar
StartChar: Tcedilla
Encoding: 354 354 450
Width: 457
Flags: MW
HStem: -229 91<221 300> -218 21G<180 180> -94 61<206 263 206 263> 0 21G<161 206 161 161 257 257 257 299> 560 120<10 161 10 447 299 299 299 447>
VStem: 161 138<0 560 0 560> 206 51<-33 0 -33 0 -33 0> 265 108<-122 -106>
LayerCount: 2
Back
Fore
SplineSet
373 -124 m 0xb9
 373 -192 332 -229 268 -229 c 0xbc
 227 -229 180 -218 180 -218 c 1x7c
 184 -137 l 1
 184 -137 213 -138 229 -138 c 0
 255 -138 265 -130 265 -114 c 0
 265 -98 251 -94 229 -94 c 2xb9
 206 -94 l 1
 206 0 l 1
 161 0 l 1
 161 560 l 1
 10 560 l 1
 10 680 l 1
 447 680 l 1
 447 560 l 1
 299 560 l 1
 299 0 l 1x7c
 257 0 l 1x7a
 257 -33 l 1
 263 -33 l 2
 316 -33 373 -47 373 -124 c 0xb9
EndSplineSet
Substitution2: "'locl' Localized Forms in Latin lookup 0 subtable" Tcommaaccent
EndChar
StartChar: tcedilla
Encoding: 355 355 451
Width: 331
Flags: MW
HStem: -229 91<178 257> -218 21G<137 137> -94 61<163 220 163 220> -12 21G<214 216 214 214> -12 114<214 253 214 253> -7 21G<163 163> 386 114<20 70 20 70 204 313>
VStem: 70 134<154 162 162 386 500 628> 163 51<-33 -12 -33 -7 -33 -7> 222 108<-122 -106>
LayerCount: 2
Back
Fore
SplineSet
330 -124 m 0xa740
 330 -192 289 -229 225 -229 c 0x87
 184 -229 137 -218 137 -218 c 1x47
 141 -137 l 1
 141 -137 170 -138 186 -138 c 0
 212 -138 222 -130 222 -114 c 0
 222 -98 208 -94 186 -94 c 2xa740
 163 -94 l 1x6680
 163 -7 l 1x4680
 88 9 70 64 70 154 c 2
 70 386 l 1
 20 386 l 1
 20 500 l 1
 70 500 l 1
 70 628 l 1
 204 628 l 1
 204 500 l 1
 313 500 l 1
 313 386 l 1
 204 386 l 1
 204 162 l 2
 204 127 208 102 236 102 c 0
 270 102 308 107 308 107 c 1x4b
 314 6 l 1
 314 6 250 -12 216 -12 c 2
 214 -12 l 1x5280
 214 -33 l 1
 220 -33 l 2
 273 -33 330 -47 330 -124 c 0xa740
EndSplineSet
Substitution2: "'locl' Localized Forms in Latin lookup 0 subtable" tcommaaccent
EndChar
StartChar: tcaron
Encoding: 357 357 345
Width: 465
Flags: MW
HStem: -12 114<222 233> 386 114<20 70 20 70 204 313> 429 71
VStem: 70 134<154 162 162 386 500 628> 349 123<429 690 429 690>
LayerCount: 2
Back
Fore
SplineSet
313 386 m 1xd8
 204 386 l 1
 204 162 l 2
 204 127 208 102 236 102 c 0
 270 102 308 107 308 107 c 1
 314 6 l 1
 314 6 250 -12 216 -12 c 0
 97 -12 70 46 70 154 c 2
 70 386 l 1
 20 386 l 1
 20 500 l 1
 70 500 l 1
 70 628 l 1
 204 628 l 1
 204 500 l 1
 313 500 l 1
 313 386 l 1xd8
472 690 m 1
 472 429 l 1
 349 429 l 1xb8
 349 690 l 1
 472 690 l 1
EndSplineSet
EndChar
StartChar: Tbar
Encoding: 358 358 107
Width: 462
Flags: MW
HStem: 0 21G<163 301 163 163> 248 119<41 163 41 163 301 427> 560 120<12 449 12 163 301 301 301 449>
VStem: 163 138<0 248 0 248 367 560>
LayerCount: 2
Back
Fore
SplineSet
12 560 m 1
 12 680 l 1
 449 680 l 1
 449 560 l 1
 301 560 l 1
 301 367 l 1
 427 367 l 1
 427 248 l 1
 301 248 l 1
 301 0 l 1
 163 0 l 1
 163 248 l 1
 41 248 l 1
 41 367 l 1
 163 367 l 1
 163 560 l 1
 12 560 l 1
EndSplineSet
Position2: "'cpsp' Capital Spacing in Latin lookup 0 subtable" dx=5 dy=0 dh=10 dv=0
EndChar
StartChar: tbar
Encoding: 359 359 347
Width: 334
Flags: MW
HStem: -12 114<224 235> 200 116<25 72 25 72 206 303> 386 114<22 72 22 72 206 315>
VStem: 72 134<154 162 162 200 144.5 200 316 386 500 628>
LayerCount: 2
Back
Fore
SplineSet
315 386 m 1
 206 386 l 1
 206 316 l 1
 303 316 l 1
 303 200 l 1
 206 200 l 1
 206 162 l 2
 206 127 210 102 238 102 c 0
 272 102 310 107 310 107 c 1
 316 6 l 1
 316 6 252 -12 218 -12 c 0
 99 -12 72 46 72 154 c 2
 72 200 l 1
 25 200 l 1
 25 316 l 1
 72 316 l 1
 72 386 l 1
 22 386 l 1
 22 500 l 1
 72 500 l 1
 72 628 l 1
 206 628 l 1
 206 500 l 1
 315 500 l 1
 315 386 l 1
EndSplineSet
EndChar
StartChar: Utilde
Encoding: 360 360 120
Width: 598
Flags: MW
HStem: -12 120<260.5 337.5 260.5 384> 779 119<362 387 362 400> 822 118<203.5 235.5>
VStem: 60 138<231 680> 400 138<219 231 231 680>
LayerCount: 2
Back
Fore
SplineSet
198 680 m 1xb8
 198 219 l 2
 198 140 222 108 299 108 c 0
 376 108 400 140 400 219 c 2
 400 680 l 1
 538 680 l 1
 538 231 l 2
 538 61 469 -12 299 -12 c 0
 129 -12 60 61 60 231 c 2
 60 680 l 1
 198 680 l 1xb8
452 936 m 1xd8
 477 843 l 1
 477 843 424 779 376 779 c 0xd8
 327 779 254 822 217 822 c 0
 190 822 141 783 141 783 c 1
 117 876 l 1
 117 876 168 940 218 940 c 0xb8
 277 940 349 898 375 898 c 0
 399 898 452 936 452 936 c 1xd8
EndSplineSet
Position2: "'cpsp' Capital Spacing in Latin lookup 0 subtable" dx=5 dy=0 dh=10 dv=0
EndChar
StartChar: utilde
Encoding: 361 361 348
Width: 522
Flags: MW
HStem: -12 114<224.5 252> 0 102<224.5 467 224.5 336> 480 20G<51 185 185 185 333 467 467 467> 590 118<317.5 342.5 317.5 355> 634 117<177.5 207> 688 20G<317.5 342.5>
VStem: 51 134<188 224 224 500> 333 134<161 500 0 500>
LayerCount: 2
Back
Fore
SplineSet
407 747 m 1xb3
 432 655 l 1
 432 655 379 590 331 590 c 0xb3
 283 590 223 634 191 634 c 0
 164 634 115 594 115 594 c 1xab
 91 686 l 1
 91 686 142 751 192 751 c 0xa7
 247 751 305 708 330 708 c 0
 355 708 407 747 407 747 c 1xb3
333 500 m 1
 467 500 l 1
 467 0 l 1
 336 0 l 1x73
 334 49 l 1
 334 49 290 -12 214 -12 c 0
 98 -12 51 61 51 188 c 2
 51 500 l 1
 185 500 l 1
 185 224 l 2
 185 135 200 102 249 102 c 0
 293 102 333 161 333 161 c 1
 333 500 l 1
EndSplineSet
EndChar
StartChar: Ubreve
Encoding: 364 364 112
Width: 598
Flags: MW
HStem: -12 120<260.5 337.5 260.5 384> 783 144<227.5 255 343 371.5>
VStem: 60 138<231 680> 343 121<912.5 927> 400 138<219 231 231 680>
LayerCount: 2
Back
Fore
SplineSet
198 680 m 1xe8
 198 219 l 2
 198 140 222 108 299 108 c 0
 376 108 400 140 400 219 c 2
 400 680 l 1
 538 680 l 1
 538 231 l 2
 538 61 469 -12 299 -12 c 0
 129 -12 60 61 60 231 c 2
 60 680 l 1
 198 680 l 1xe8
134 927 m 1
 255 927 l 1
 255 898 269 885 299 885 c 0
 326 885 343 898 343 927 c 1
 464 927 l 1xf0
 464 885 444 783 299 783 c 0
 156 783 134 885 134 927 c 1
EndSplineSet
Position2: "'cpsp' Capital Spacing in Latin lookup 0 subtable" dx=5 dy=0 dh=10 dv=0
EndChar
StartChar: Uring
Encoding: 366 366 119
Width: 598
Flags: MW
HStem: -12 120<260.5 337.5 260.5 384> 718 86<286 314 286 336.5> 866 86<286 314>
VStem: 60 138<231 680> 168 87<825 844.5 825 876> 344 87<825 844.5> 400 138<219 231 231 680>
LayerCount: 2
Back
Fore
SplineSet
198 680 m 1xf2
 198 219 l 2
 198 140 222 108 299 108 c 0
 376 108 400 140 400 219 c 2
 400 680 l 1
 538 680 l 1
 538 231 l 2
 538 61 469 -12 299 -12 c 0
 129 -12 60 61 60 231 c 2
 60 680 l 1
 198 680 l 1xf2
431 835 m 0xec
 431 752 373 718 300 718 c 0
 222 718 168 752 168 835 c 0
 168 917 222 952 300 952 c 0
 373 952 431 916 431 835 c 0xec
255 835 m 0
 255 815 272 804 300 804 c 0
 328 804 344 815 344 835 c 0
 344 854 328 866 300 866 c 0
 272 866 255 854 255 835 c 0
EndSplineSet
Position2: "'cpsp' Capital Spacing in Latin lookup 0 subtable" dx=5 dy=0 dh=10 dv=0
EndChar
StartChar: Uogonek
Encoding: 370 370 118
Width: 598
Flags: MW
HStem: -214 21G<289.5 336.5> -214 118<289.5 368.5> -11 21G -11 119
VStem: 60 138<231 680> 213 132<-149 -66.5> 400 138<219 231 231 680>
LayerCount: 2
Back
Fore
SplineSet
198 680 m 1xaa
 198 219 l 2x9a
 198 140 222 108 299 108 c 0
 376 108 400 140 400 219 c 2
 400 680 l 1
 538 680 l 1
 538 231 l 2
 538 95 494 21 390 -3 c 1
 368 -25 345 -55 345 -78 c 0
 345 -90 353 -96 364 -96 c 0
 373 -96 400 -93 400 -93 c 1x5e
 412 -203 l 1
 412 -203 356 -214 317 -214 c 0
 262 -214 213 -181 213 -117 c 0xae
 213 -77 236 -40 263 -11 c 1
 119 -1 60 73 60 231 c 2
 60 680 l 1
 198 680 l 1xaa
EndSplineSet
Position2: "'cpsp' Capital Spacing in Latin lookup 0 subtable" dx=5 dy=0 dh=10 dv=0
EndChar
StartChar: uogonek
Encoding: 371 371 353
Width: 522
Flags: MW
HStem: -214 21G<352.5 399.5> -214 118<352.5 431.5> -12 114<224.5 252> 0 21G<336 336 467 467> 480 20G<51 185 185 185 333 467 467 467>
VStem: 51 134<188 224 224 500> 276 132<-149 -65.5> 333 134<161 500 0 500>
LayerCount: 2
Back
Fore
SplineSet
333 500 m 1xad
 467 500 l 1
 467 0 l 1x9d
 435 -23 408 -53 408 -78 c 0
 408 -90 416 -96 427 -96 c 0
 436 -96 463 -93 463 -93 c 1x6e
 475 -203 l 1
 475 -203 419 -214 380 -214 c 0
 325 -214 276 -181 276 -117 c 0xae
 276 -72 305 -31 336 0 c 1x9d
 334 49 l 1
 334 49 290 -12 214 -12 c 0
 98 -12 51 61 51 188 c 2
 51 500 l 1
 185 500 l 1
 185 224 l 2
 185 135 200 102 249 102 c 0
 293 102 333 161 333 161 c 1
 333 500 l 1xad
EndSplineSet
EndChar
StartChar: Wcircumflex
Encoding: 372 372 124
Width: 863
Flags: MW
HStem: 0 127<245 259 245 349 146 259 603 618> 779 152<257 472 257 472 391 483 391 608>
VStem: 17 829<680 680>
LayerCount: 2
Back
Fore
SplineSet
257 779 m 1
 391 931 l 1
 472 931 l 1
 608 779 l 1
 483 779 l 1
 433 840 l 1
 381 779 l 1
 257 779 l 1
17 680 m 1
 153 680 l 1
 245 127 l 1
 259 127 l 1
 357 670 l 1
 506 670 l 1
 603 127 l 1
 618 127 l 1
 710 680 l 1
 846 680 l 1
 717 0 l 1
 514 0 l 1
 430 496 l 1
 349 0 l 1
 146 0 l 1
 17 680 l 1
EndSplineSet
Position2: "'cpsp' Capital Spacing in Latin lookup 0 subtable" dx=5 dy=0 dh=10 dv=0
EndChar
StartChar: Ycircumflex
Encoding: 374 374 130
Width: 503
Flags: MW
HStem: 0 21G<188 316 188 188> 779 152<76 291 76 291 210 302 210 427>
VStem: 188 128<0 274 0 274>
LayerCount: 2
Back
Fore
SplineSet
76 779 m 1
 210 931 l 1
 291 931 l 1
 427 779 l 1
 302 779 l 1
 252 840 l 1
 200 779 l 1
 76 779 l 1
502 680 m 1
 316 274 l 1
 316 0 l 1
 188 0 l 1
 188 274 l 1
 -1 680 l 1
 145 680 l 1
 251 420 l 1
 357 680 l 1
 502 680 l 1
EndSplineSet
Position2: "'cpsp' Capital Spacing in Latin lookup 0 subtable" dx=5 dy=0 dh=10 dv=0
EndChar
StartChar: ycircumflex
Encoding: 375 375 359
Width: 456
Flags: MW
HStem: -210 21G<157 282 157 157> 0 111<126 237 126 237> 480 20G<13 144 144 144 317 444 444 444> 575 175<63 268 63 268 187 269 187 394>
VStem: 13 431<500 500>
LayerCount: 2
Back
Fore
SplineSet
13 500 m 1
 144 500 l 1
 221 111 l 1
 237 111 l 1
 317 500 l 1
 444 500 l 1
 282 -210 l 1
 157 -210 l 1
 212 0 l 1
 126 0 l 1
 13 500 l 1
63 575 m 1
 187 750 l 1
 268 750 l 1
 394 575 l 1
 269 575 l 1
 229 637 l 1
 187 575 l 1
 63 575 l 1
EndSplineSet
EndChar
StartChar: Ydieresis
Encoding: 376 376 131
Width: 503
Flags: MW
HStem: 0 21G<188 316 188 188> 778 135<97 207 97 207 296 406 97 296>
VStem: 97 110<778 913 778 913> 188 128<0 274 0 274> 296 110<778 913 778 913>
LayerCount: 2
Back
Fore
SplineSet
97 778 m 1xe8
 97 913 l 1
 207 913 l 1
 207 778 l 1
 97 778 l 1xe8
296 778 m 1
 296 913 l 1
 406 913 l 1
 406 778 l 1
 296 778 l 1
502 680 m 1
 316 274 l 1
 316 0 l 1
 188 0 l 1
 188 274 l 1xd0
 -1 680 l 1
 145 680 l 1
 251 420 l 1
 357 680 l 1
 502 680 l 1
EndSplineSet
Position2: "'cpsp' Capital Spacing in Latin lookup 0 subtable" dx=5 dy=0 dh=10 dv=0
EndChar
StartChar: zacute
Encoding: 378 378 360
Width: 418
Flags: MW
HStem: 114 272<181 240 34 384 181 181> 680 21G<83 83>
VStem: 34 350<0 112 0 114 390 500 0 386>
LayerCount: 2
Back
Fore
SplineSet
34 500 m 1
 34 386 l 1
 240 386 l 1
 34 112 l 1
 34 0 l 1
 384 0 l 1
 384 114 l 1
 181 114 l 1
 384 390 l 1
 384 500 l 1
 34 500 l 1
118 576 m 1
 83 680 l 1
 325 774 l 1
 364 654 l 1
 118 576 l 1
EndSplineSet
EndChar
StartChar: Zdotaccent
Encoding: 379 379 136
Width: 487
Flags: MW
HStem: 0 120<198 451 198 451> 560 120<36 451 36 288> 771 138<185 301 185 301>
VStem: 36 162<120 131 131 131> 185 116<771 909 771 909> 288 163<549 560 560 560>
LayerCount: 2
Back
Fore
SplineSet
185 771 m 1xe8
 185 909 l 1
 301 909 l 1
 301 771 l 1
 185 771 l 1xe8
36 560 m 1
 36 680 l 1
 451 680 l 1
 451 549 l 1
 198 144 l 1
 198 120 l 1
 451 120 l 1
 451 0 l 1
 36 0 l 1
 36 131 l 1
 288 536 l 1
 288 560 l 1xf4
 36 560 l 1
EndSplineSet
Position2: "'cpsp' Capital Spacing in Latin lookup 0 subtable" dx=5 dy=0 dh=10 dv=0
EndChar
StartChar: zdotaccent
Encoding: 380 380 361
Width: 418
Flags: MW
HStem: 114 272<181 240 34 384 181 181> 582 137<151 267 151 267>
VStem: 151 116<582 719 582 719>
LayerCount: 2
Back
Fore
SplineSet
34 500 m 1
 34 386 l 1
 240 386 l 1
 34 112 l 1
 34 0 l 1
 384 0 l 1
 384 114 l 1
 181 114 l 1
 384 390 l 1
 384 500 l 1
 34 500 l 1
151 582 m 1
 151 719 l 1
 267 719 l 1
 267 582 l 1
 151 582 l 1
EndSplineSet
EndChar
StartChar: zcaron
Encoding: 382 382 155
Width: 418
Flags: MW
HStem: 0 114<181 384 181 384> 386 114<34 384 34 240> 575 175<177 181 259 263 177 177>
VStem: 34 352<386 750 500 750>
LayerCount: 2
Back
Fore
SplineSet
263 575 m 1
 177 575 l 1
 54 750 l 1
 181 750 l 1
 220 687 l 1
 259 750 l 1
 386 750 l 1
 263 575 l 1
34 386 m 1
 34 500 l 1
 384 500 l 1
 384 390 l 1
 181 114 l 1
 384 114 l 1
 384 0 l 1
 34 0 l 1
 34 112 l 1
 240 386 l 1
 34 386 l 1
EndSplineSet
EndChar
StartChar: florin
Encoding: 402 402 225
Width: 560
Flags: MW
HStem: -243 116<137.5 164 137.5 203.5> -230 21G<74 74> 375 124<107 196 107 196 326 458> 585 123<349.5 353.5 284.5 385.5>
VStem: 196 130<-63 375 499 509>
LayerCount: 2
Back
Fore
SplineSet
326 375 m 1x78
 326 -63 l 2
 326 -206 256 -243 151 -243 c 0xb8
 118 -243 74 -230 74 -230 c 1x78
 74 -124 l 1
 74 -124 124 -127 151 -127 c 0
 177 -127 196 -111 196 -63 c 2xb8
 196 375 l 1
 107 375 l 1
 107 499 l 1
 196 499 l 1
 196 520 l 2
 196 665 233 708 336 708 c 0
 371 708 426 702 460 695 c 1
 460 583 l 1
 460 583 401 585 370 585 c 0
 329 585 326 563 326 509 c 2
 326 499 l 1
 458 499 l 1
 458 375 l 1
 326 375 l 1x78
EndSplineSet
EndChar
StartChar: aringacute
Encoding: 507 507 303
Width: 512
Flags: MW
HStem: -12 114<207.5 243.5> -3 21G<329 329> 398 114<218.5 259> 492 20G<154 273.5> 527 79<241 258 241 279.5> 663 80<241 258>
VStem: 33 136<201 296 201 319> 149 72<626.5 642.5 626.5 667.5> 278 72<626.5 642.5> 323 134<171 392 392 392>
LayerCount: 2
Back
Fore
SplineSet
146 756 m 1xa640
 108 870 l 1
 350 964 l 1
 392 834 l 1
 146 756 l 1xa640
203 -12 m 0
 80 -12 33 74 33 244 c 0
 33 394 72 512 236 512 c 0xa640
 311 512 457 493 457 493 c 1
 457 142 l 2
 457 116 462 2 462 2 c 1
 329 -3 l 1x5640
 329 -3 324 31 324 60 c 1
 324 60 284 -12 203 -12 c 0
248 398 m 0
 189 398 169 348 169 244 c 0
 169 158 180 102 235 102 c 0
 287 102 323 171 323 171 c 1
 323 392 l 1
 323 392 270 398 248 398 c 0
149 635 m 0xad80
 149 700 187 743 250 743 c 0
 310 743 350 700 350 635 c 0
 350 566 309 527 250 527 c 0
 186 527 149 566 149 635 c 0xad80
221 635 m 0
 221 618 232 606 250 606 c 0
 266 606 278 618 278 635 c 0
 278 650 266 663 250 663 c 0
 232 663 221 650 221 635 c 0
EndSplineSet
EndChar
StartChar: AEacute
Encoding: 508 508 27
Width: 750
Flags: MW
HStem: 0 130<439 716 439 716 311 716> 119 130<194 311 194 311 167 311> 277 125<439 659 439 659> 559 131<439 716 439 439>
VStem: 311 128<0 277 119 277 249 277 402 559>
LayerCount: 2
Back
Fore
SplineSet
311 0 m 1xb8
 311 119 l 1
 167 119 l 1x78
 142 0 l 1
 12 0 l 1
 157 690 l 1
 716 690 l 1
 716 559 l 1
 439 559 l 1
 439 402 l 1
 659 402 l 1
 659 277 l 1
 439 277 l 1
 439 130 l 1
 716 130 l 1
 716 0 l 1
 311 0 l 1xb8
257 560 m 1
 194 249 l 1
 311 249 l 1
 311 560 l 1
 257 560 l 1
351 765 m 1
 316 868 l 1
 558 962 l 1
 597 842 l 1
 351 765 l 1
EndSplineSet
Position2: "'cpsp' Capital Spacing in Latin lookup 0 subtable" dx=5 dy=0 dh=10 dv=0
EndChar
StartChar: Oslashacute
Encoding: 510 510 91
Width: 594
Flags: MW
HStem: -12 120<287.5 308.5 287.5 325.5> 1 21G<198 198> 563 129<266 353>
VStem: 40 142<315 415.5 315 432> 412 142<279 373>
LayerCount: 2
Back
Fore
SplineSet
144 -121 m 1xb8
 69 -81 l 1
 123 43 l 1
 64 98 40 196 40 347 c 0
 40 517 71 615 149 660 c 0
 187 682 235 692 297 692 c 0
 338 692 373 687 404 678 c 1
 460 805 l 1
 540 775 l 1
 478 635 l 1
 532 582 554 490 554 347 c 0
 554 170 521 65 436 18 c 0
 400 -2 354 -12 297 -12 c 0xb8
 259 -12 226 -8 198 1 c 1x78
 144 -121 l 1xb8
217 755 m 1
 179 868 l 1
 421 962 l 1
 463 832 l 1
 217 755 l 1
192 198 m 1
 264 362 l 1
 353 563 l 1
 338 569 319 572 297 572 c 0
 275 572 256 569 241 563 c 0
 193 543 182 484 182 347 c 0
 182 283 184 234 192 198 c 1
297 108 m 0
 320 108 339 112 354 120 c 0
 400 145 412 211 412 347 c 0
 412 399 410 440 406 471 c 1
 341 325 l 1
 248 115 l 1
 262 110 278 108 297 108 c 0
EndSplineSet
Position2: "'cpsp' Capital Spacing in Latin lookup 0 subtable" dx=5 dy=0 dh=10 dv=0
EndChar
StartChar: oslashacute
Encoding: 511 511 280
Width: 486
Flags: MW
HStem: -12 114<239.5 277.5 239.5 326.5> -6 21G<183 183> 397 114<208 245> 486 20G<295 295> 680 21G<101 101>
VStem: 31 128<234.5 291.5 234.5 322> 327 128<208.5 267.5>
LayerCount: 2
Back
Fore
SplineSet
243 511 m 0xae
 262 511 279 509 295 506 c 1
 333 606 l 1
 411 576 l 1
 370 475 l 1
 433 430 455 346 455 250 c 0
 455 106 410 -12 243 -12 c 0x9e
 221 -12 201 -10 183 -6 c 1x6e
 145 -107 l 1
 68 -77 l 1
 109 27 l 1
 50 73 31 156 31 250 c 0
 31 394 78 511 243 511 c 0xae
136 576 m 1
 101 680 l 1
 343 774 l 1
 382 654 l 1
 136 576 l 1
243 102 m 0
 312 102 327 167 327 250 c 0
 327 285 324 316 316 341 c 1
 275 239 l 1
 224 104 l 1
 230 103 236 102 243 102 c 0
166 168 m 1
 205 264 l 1
 254 396 l 2
 251 397 247 397 243 397 c 0
 173 397 159 333 159 250 c 0
 159 219 160 191 166 168 c 1
EndSplineSet
EndChar
StartChar: Tcommaaccent
Encoding: 538 538 109
Width: 457
Flags: MW
HStem: 0 21G<161 299 161 161> 560 120<10 447 10 161 299 299 299 447>
VStem: 161 138<0 560 0 560>
LayerCount: 2
Back
Fore
SplineSet
169 -72 m 1
 125 -309 l 1
 239 -309 l 1
 291 -72 l 1
 169 -72 l 1
10 560 m 1
 10 680 l 1
 447 680 l 1
 447 560 l 1
 299 560 l 1
 299 0 l 1
 161 0 l 1
 161 560 l 1
 10 560 l 1
EndSplineSet
Position2: "'cpsp' Capital Spacing in Latin lookup 0 subtable" dx=5 dy=0 dh=10 dv=0
EndChar
StartChar: tcommaaccent
Encoding: 539 539 346
Width: 331
Flags: MW
HStem: -72 174<124 253 222 246> -12 114<222 233> 386 114<20 70 20 70 204 313>
VStem: 70 134<154 162 162 386 500 628>
LayerCount: 2
Back
Fore
SplineSet
313 386 m 1x70
 204 386 l 1
 204 162 l 2
 204 127 208 102 236 102 c 0
 270 102 308 107 308 107 c 1
 314 6 l 1
 314 6 250 -12 216 -12 c 0
 97 -12 70 46 70 154 c 2
 70 386 l 1
 20 386 l 1
 20 500 l 1
 70 500 l 1
 70 628 l 1
 204 628 l 1
 204 500 l 1
 313 500 l 1
 313 386 l 1x70
124 -72 m 1xb0
 80 -309 l 1
 194 -309 l 1
 246 -72 l 1
 124 -72 l 1xb0
EndSplineSet
EndChar
StartChar: circumflex
Encoding: 710 710 6
Width: 791
Flags: MW
HStem: 575 175<220 425 220 425 344 426 344 551>
VStem: 220 331<575 575>
LayerCount: 2
Back
Fore
SplineSet
220 575 m 1
 344 750 l 1
 425 750 l 1
 551 575 l 1
 426 575 l 1
 386 637 l 1
 344 575 l 1
 220 575 l 1
EndSplineSet
EndChar
StartChar: caron
Encoding: 711 711 4
Width: 791
Flags: MW
HStem: 575 175<342 346 424 428 342 342>
VStem: 219 332<750 750>
LayerCount: 2
Back
Fore
SplineSet
428 575 m 1
 342 575 l 1
 219 750 l 1
 346 750 l 1
 385 687 l 1
 424 750 l 1
 551 750 l 1
 428 575 l 1
EndSplineSet
EndChar
StartChar: breve
Encoding: 728 728 3
Width: 462
Flags: MW
HStem: 590 112<192 224 192 269> 590 156<147 157 259 269>
VStem: 36 121<732 746 732 746> 259 121<732 746>
LayerCount: 2
Back
Fore
SplineSet
36 746 m 1x60
 157 746 l 1x60
 157 718 176 702 208 702 c 0x90
 240 702 259 718 259 746 c 1
 380 746 l 1x50
 380 673 330 590 208 590 c 0xa0
 86 590 36 673 36 746 c 1x60
EndSplineSet
EndChar
StartChar: dotaccent
Encoding: 729 729 9
Width: 255
Flags: MW
HStem: 582 137<68 184 68 184>
VStem: 68 116<582 719 582 719>
LayerCount: 2
Back
Fore
SplineSet
68 582 m 1
 68 719 l 1
 184 719 l 1
 184 582 l 1
 68 582 l 1
EndSplineSet
EndChar
StartChar: ring
Encoding: 730 730 14
Width: 791
Flags: MW
HStem: 527 79<244 261 244 282.5> 663 80<244 261>
VStem: 152 72<626.5 642.5 626.5 667.5> 281 72<626.5 642.5>
LayerCount: 2
Back
Fore
SplineSet
152 635 m 0
 152 700 190 743 253 743 c 0
 313 743 353 700 353 635 c 0
 353 566 312 527 253 527 c 0
 189 527 152 566 152 635 c 0
224 635 m 0
 224 618 235 606 253 606 c 0
 269 606 281 618 281 635 c 0
 281 650 269 663 253 663 c 0
 235 663 224 650 224 635 c 0
EndSplineSet
EndChar
StartChar: ogonek
Encoding: 731 731 13
Width: 450
Flags: MW
HStem: -214 118<282.5 361.5>
VStem: 206 132<-149 -65.5>
LayerCount: 2
Back
Fore
SplineSet
393 -93 m 1
 405 -203 l 1
 405 -203 349 -214 310 -214 c 0
 255 -214 206 -181 206 -117 c 0
 206 -64 246 -17 283 15 c 1
 391 5 l 1
 367 -18 338 -53 338 -78 c 0
 338 -90 346 -96 357 -96 c 0
 366 -96 393 -93 393 -93 c 1
EndSplineSet
EndChar
StartChar: tilde
Encoding: 732 732 15
Width: 446
Flags: MW
HStem: 590 118<262.5 287.5 262.5 300> 634 117<122.5 152> 688 20G<262.5 287.5>
VStem: 36 341<655 686>
LayerCount: 2
Back
Fore
SplineSet
352 747 m 1x90
 377 655 l 1
 377 655 324 590 276 590 c 0x90
 228 590 168 634 136 634 c 0
 109 634 60 594 60 594 c 1x50
 36 686 l 1
 36 686 87 751 137 751 c 0x30
 192 751 250 708 275 708 c 0
 300 708 352 747 352 747 c 1x90
EndSplineSet
EndChar
StartChar: hungarumlaut
Encoding: 733 733 10
Width: 689
Flags: MW
HStem: 559 256<217 425 410 425>
VStem: 122 407<623 748>
LayerCount: 2
Back
Fore
SplineSet
410 559 m 1
 314 623 l 1
 425 815 l 1
 529 748 l 1
 410 559 l 1
217 559 m 1
 122 623 l 1
 233 814 l 1
 336 748 l 1
 217 559 l 1
EndSplineSet
EndChar
StartChar: Wgrave
Encoding: 7808 7808 126
Width: 863
Flags: MW
HStem: 0 127<245 259 245 349 146 259 603 618>
VStem: 17 829<680 680>
LayerCount: 2
Back
Fore
SplineSet
331 950 m 1
 574 860 l 1
 538 754 l 1
 292 831 l 1
 331 950 l 1
17 680 m 1
 153 680 l 1
 245 127 l 1
 259 127 l 1
 357 670 l 1
 506 670 l 1
 603 127 l 1
 618 127 l 1
 710 680 l 1
 846 680 l 1
 717 0 l 1
 514 0 l 1
 430 496 l 1
 349 0 l 1
 146 0 l 1
 17 680 l 1
EndSplineSet
Position2: "'cpsp' Capital Spacing in Latin lookup 0 subtable" dx=5 dy=0 dh=10 dv=0
EndChar
StartChar: wgrave
Encoding: 7809 7809 354
Width: 754
Flags: MW
HStem: 0 114<211 234 211 324 104 234 520 543> 480 20G<21 153 153 153 601 733 733 733> 661 21G 682 21G<511 511>
VStem: 21 712<500 500>
LayerCount: 2
Back
Fore
SplineSet
268 772 m 1xd8
 511 682 l 1
 478 583 l 1xd8
 231 661 l 1xe8
 268 772 l 1xd8
21 500 m 1
 153 500 l 1
 211 114 l 1
 234 114 l 1
 306 490 l 1
 448 490 l 1
 520 114 l 1
 543 114 l 1
 601 500 l 1
 733 500 l 1
 650 0 l 1
 430 0 l 1
 377 306 l 1
 324 0 l 1
 104 0 l 1
 21 500 l 1
EndSplineSet
EndChar
StartChar: Wdieresis
Encoding: 7812 7812 125
Width: 863
Flags: MW
HStem: 0 127<245 259 245 349 146 259 603 618> 788 135<277 387 277 387 476 586 277 476>
VStem: 277 110<788 923 788 923> 476 110<788 923 788 923>
LayerCount: 2
Back
Fore
SplineSet
277 788 m 1
 277 923 l 1
 387 923 l 1
 387 788 l 1
 277 788 l 1
476 788 m 1
 476 923 l 1
 586 923 l 1
 586 788 l 1
 476 788 l 1
17 680 m 1
 153 680 l 1
 245 127 l 1
 259 127 l 1
 357 670 l 1
 506 670 l 1
 603 127 l 1
 618 127 l 1
 710 680 l 1
 846 680 l 1
 717 0 l 1
 514 0 l 1
 430 496 l 1
 349 0 l 1
 146 0 l 1
 17 680 l 1
EndSplineSet
Position2: "'cpsp' Capital Spacing in Latin lookup 0 subtable" dx=5 dy=0 dh=10 dv=0
EndChar
StartChar: wdieresis
Encoding: 7813 7813 357
Width: 754
Flags: MW
HStem: 0 114<211 234 211 324 104 234 520 543> 480 20G<21 153 153 153 601 733 733 733> 601 135<225 336 225 336 419 529 225 419>
VStem: 225 111<601 736 601 736> 419 110<601 736 601 736>
LayerCount: 2
Back
Fore
SplineSet
21 500 m 1
 153 500 l 1
 211 114 l 1
 234 114 l 1
 306 490 l 1
 448 490 l 1
 520 114 l 1
 543 114 l 1
 601 500 l 1
 733 500 l 1
 650 0 l 1
 430 0 l 1
 377 306 l 1
 324 0 l 1
 104 0 l 1
 21 500 l 1
225 601 m 1
 225 736 l 1
 336 736 l 1
 336 601 l 1
 225 601 l 1
419 601 m 1
 419 736 l 1
 529 736 l 1
 529 601 l 1
 419 601 l 1
EndSplineSet
EndChar
StartChar: uni1EAB
Encoding: 7851 7851 369
Width: 512
Flags: MW
HStem: -12 114<207.5 243.5> -3 21G<329 329> 398 114<218.5 259> 492 20G<154 273.5> 545 175<96 301 96 301 220 302 220 427> 750 118<327.5 352.5 327.5 365> 794 117<187.5 217>
VStem: 33 136<201 296 201 319> 323 134<171 392 392 392>
LayerCount: 2
Back
Fore
SplineSet
203 -12 m 0xab80
 80 -12 33 74 33 244 c 0
 33 394 72 512 236 512 c 0xab80
 311 512 457 493 457 493 c 1
 457 142 l 2
 457 116 462 2 462 2 c 1
 329 -3 l 1x5b80
 329 -3 324 31 324 60 c 1
 324 60 284 -12 203 -12 c 0xab80
248 398 m 0
 189 398 169 348 169 244 c 0
 169 158 180 102 235 102 c 0
 287 102 323 171 323 171 c 1
 323 392 l 1
 323 392 270 398 248 398 c 0
417 907 m 1xad80
 442 815 l 1
 442 815 389 750 341 750 c 0xad80
 293 750 233 794 201 794 c 0
 174 794 125 754 125 754 c 1
 101 846 l 1
 101 846 152 911 202 911 c 0xab80
 257 911 315 868 340 868 c 0
 365 868 417 907 417 907 c 1xad80
96 545 m 1xab80
 220 720 l 1
 301 720 l 1
 427 545 l 1
 302 545 l 1
 262 607 l 1
 220 545 l 1
 96 545 l 1xab80
EndSplineSet
EndChar
StartChar: uni1EB0
Encoding: 7856 7856 365
Width: 551
Flags: MW
HStem: 0 21G<13 13 13 151 399 399 399 537> 118 120<201 350 201 374 178 350> 560 120<268 268 268 283> 743 144<203.5 231 319 347.5>
VStem: 13 524<0 0> 319 121<872.5 887>
LayerCount: 2
Back
Fore
SplineSet
174 1133 m 1xf8
 417 1043 l 1
 384 944 l 1
 137 1022 l 1
 174 1133 l 1xf8
13 0 m 1
 155 680 l 1
 397 680 l 1
 537 0 l 1
 399 0 l 1
 374 118 l 1
 178 118 l 1
 151 0 l 1
 13 0 l 1
268 560 m 1
 201 238 l 1
 350 238 l 1
 283 560 l 1
 268 560 l 1
110 887 m 1
 231 887 l 1
 231 858 245 845 275 845 c 0
 302 845 319 858 319 887 c 1
 440 887 l 1xf4
 440 845 420 743 275 743 c 0
 132 743 110 845 110 887 c 1
EndSplineSet
EndChar
StartChar: uni1EC5
Encoding: 7877 7877 367
Width: 464
Flags: MW
HStem: -10 114<226.5 289 226.5 293> 200 98<166 198 166 198 165 198> 404 107<212.5 264> 545 175<75 280 75 280 199 281 199 406> 750 118<295.5 320.5 295.5 333> 794 117<155.5 185>
VStem: 31 134<159.5 183 183 200 159.5 307> 306 132<328 371.5>
LayerCount: 2
Back
Fore
SplineSet
255 104 m 0xf7
 323 104 415 116 415 116 c 1
 417 21 l 1
 417 21 341 -10 245 -10 c 0
 97 -10 31 67 31 232 c 0
 31 382 85 511 241 511 c 0
 369 511 438 466 438 353 c 0
 438 224 350 200 198 200 c 2
 165 200 l 1
 165 183 l 2
 165 136 198 104 255 104 c 0xf7
385 907 m 1xfb
 410 815 l 1
 410 815 357 750 309 750 c 0xfb
 261 750 201 794 169 794 c 0
 142 794 93 754 93 754 c 1
 69 846 l 1
 69 846 120 911 170 911 c 0xf7
 225 911 283 868 308 868 c 0
 333 868 385 907 385 907 c 1xfb
75 545 m 1xf7
 199 720 l 1
 280 720 l 1
 406 545 l 1
 281 545 l 1
 241 607 l 1
 199 545 l 1
 75 545 l 1xf7
166 298 m 1
 198 298 l 2
 271 298 306 305 306 351 c 0
 306 392 287 404 241 404 c 0
 184 404 168 357 166 298 c 1
EndSplineSet
EndChar
StartChar: uni1ED7
Encoding: 7895 7895 368
Width: 486
Flags: MW
HStem: -12 114<208 277.5 208 326.5> 397 114<208 278> 545 175<75 280 75 280 199 281 199 406> 750 118<301.5 326.5 301.5 339> 794 117<161.5 191>
VStem: 31 128<208.5 291.5 208.5 322> 327 128<208.5 291.5>
LayerCount: 2
Back
Fore
SplineSet
243 511 m 0xee
 407 511 455 394 455 250 c 0
 455 106 410 -12 243 -12 c 0
 76 -12 31 106 31 250 c 0
 31 394 78 511 243 511 c 0xee
243 102 m 0
 312 102 327 167 327 250 c 0
 327 333 313 397 243 397 c 0
 173 397 159 333 159 250 c 0
 159 167 173 102 243 102 c 0
391 907 m 1xf6
 416 815 l 1
 416 815 363 750 315 750 c 0xf6
 267 750 207 794 175 794 c 0
 148 794 99 754 99 754 c 1
 75 846 l 1
 75 846 126 911 176 911 c 0xee
 231 911 289 868 314 868 c 0
 339 868 391 907 391 907 c 1xf6
75 545 m 1xee
 199 720 l 1
 280 720 l 1
 406 545 l 1
 281 545 l 1
 241 607 l 1
 199 545 l 1
 75 545 l 1xee
EndSplineSet
EndChar
StartChar: ygrave
Encoding: 7923 7923 358
Width: 456
Flags: MW
HStem: -210 21G<157 282 157 157> 0 111<126 237 126 237> 480 20G<13 144 144 144 317 444 444 444> 661 21G 682 21G<360 360>
VStem: 13 431<500 500>
LayerCount: 2
Back
Fore
SplineSet
117 772 m 1xec
 360 682 l 1
 327 583 l 1xec
 80 661 l 1xf4
 117 772 l 1xec
13 500 m 1
 144 500 l 1
 221 111 l 1
 237 111 l 1
 317 500 l 1
 444 500 l 1
 282 -210 l 1
 157 -210 l 1
 212 0 l 1
 126 0 l 1
 13 500 l 1
EndSplineSet
EndChar
StartChar: uni1EF8
Encoding: 7928 7928 366
Width: 503
Flags: MW
HStem: 0 21G<188 316 188 188> 781 118<313.5 338.5 313.5 351> 825 117<173.5 203>
VStem: 188 128<0 274 0 274>
LayerCount: 2
Back
Fore
SplineSet
403 938 m 1xd0
 428 846 l 1
 428 846 375 781 327 781 c 0xd0
 279 781 219 825 187 825 c 0
 160 825 111 785 111 785 c 1
 87 877 l 1
 87 877 138 942 188 942 c 0xb0
 243 942 301 899 326 899 c 0
 351 899 403 938 403 938 c 1xd0
502 680 m 1
 316 274 l 1
 316 0 l 1
 188 0 l 1
 188 274 l 1
 -1 680 l 1
 145 680 l 1
 251 420 l 1
 357 680 l 1
 502 680 l 1
EndSplineSet
EndChar
StartChar: uni1EF9
Encoding: 7929 7929 364
Width: 456
Flags: MW
HStem: -210 21G<157 282 157 157> 0 111<126 237 126 237> 480 20G<13 144 144 144 317 444 444 444> 590 118<294.5 319.5 294.5 332> 634 117<154.5 184> 688 20G<294.5 319.5>
VStem: 13 431<500 500>
LayerCount: 2
Back
Fore
SplineSet
384 747 m 1xf2
 409 655 l 1
 409 655 356 590 308 590 c 0xf2
 260 590 200 634 168 634 c 0
 141 634 92 594 92 594 c 1xea
 68 686 l 1
 68 686 119 751 169 751 c 0xe6
 224 751 282 708 307 708 c 0
 332 708 384 747 384 747 c 1xf2
13 500 m 1
 144 500 l 1
 221 111 l 1
 237 111 l 1
 317 500 l 1
 444 500 l 1
 282 -210 l 1
 157 -210 l 1
 212 0 l 1
 126 0 l 1
 13 500 l 1
EndSplineSet
EndChar
StartChar: endash
Encoding: 8211 8211 143
Width: 602
Flags: MW
HStem: 209 114<51 551 51 551>
VStem: 51 500<209 323 209 323>
LayerCount: 2
Back
Fore
SplineSet
51 323 m 1
 551 323 l 1
 551 209 l 1
 51 209 l 1
 51 323 l 1
EndSplineSet
Substitution2: "'case' Case-Sensitive Forms in Latin lookup 4 subtable" endash.cap
EndChar
StartChar: emdash
Encoding: 8212 8212 212
Width: 1102
Flags: MW
HStem: 209 114<51 1051 51 1051>
VStem: 51 1000<209 323 209 323>
LayerCount: 2
Back
Fore
SplineSet
51 323 m 1
 1051 323 l 1
 1051 209 l 1
 51 209 l 1
 51 323 l 1
EndSplineSet
Substitution2: "'case' Case-Sensitive Forms in Latin lookup 4 subtable" emdash.cap
EndChar
StartChar: quoteleft
Encoding: 8216 8216 243
Width: 225
Flags: MW
HStem: 425 254<95 156 29 192>
VStem: 29 163
LayerCount: 2
Back
Fore
SplineSet
95 679 m 1
 192 679 l 1
 156 425 l 1
 29 425 l 1
 95 679 l 1
EndSplineSet
EndChar
StartChar: quoteright
Encoding: 8217 8217 244
Width: 225
Flags: MW
HStem: 426 254<73 134 37 200>
VStem: 37 163
LayerCount: 2
Back
Fore
SplineSet
134 426 m 1
 37 426 l 1
 73 680 l 1
 200 680 l 1
 134 426 l 1
EndSplineSet
EndChar
StartChar: quotesinglbase
Encoding: 8218 8218 283
Width: 228
Flags: MW
HStem: -164 254<57 118 21 184>
VStem: 21 163
LayerCount: 2
Back
Fore
SplineSet
118 -164 m 1
 21 -164 l 1
 57 90 l 1
 184 90 l 1
 118 -164 l 1
EndSplineSet
EndChar
StartChar: quotedblleft
Encoding: 8220 8220 210
Width: 417
Flags: MW
HStem: 426 254<96 157 30 193 96 220 286 347>
VStem: 30 353<426 680>
LayerCount: 2
Back
Fore
SplineSet
96 680 m 1
 193 680 l 1
 157 426 l 1
 30 426 l 1
 96 680 l 1
286 680 m 1
 383 680 l 1
 347 426 l 1
 220 426 l 1
 286 680 l 1
EndSplineSet
EndChar
StartChar: quotedblright
Encoding: 8221 8221 255
Width: 415
Flags: MW
HStem: 426 254<73 134 37 200 73 227 263 324>
VStem: 37 353<426 680>
LayerCount: 2
Back
Fore
SplineSet
134 426 m 1
 37 426 l 1
 73 680 l 1
 200 680 l 1
 134 426 l 1
324 426 m 1
 227 426 l 1
 263 680 l 1
 390 680 l 1
 324 426 l 1
EndSplineSet
EndChar
StartChar: quotedblbase
Encoding: 8222 8222 380
Width: 404
Flags: MW
HStem: -170 254<61 122 -5 158 261 322 61 195>
VStem: -5 363<-170 84>
LayerCount: 2
Back
Fore
SplineSet
261 84 m 1
 358 84 l 1
 322 -170 l 1
 195 -170 l 1
 261 84 l 1
61 84 m 1
 158 84 l 1
 122 -170 l 1
 -5 -170 l 1
 61 84 l 1
EndSplineSet
EndChar
StartChar: dagger
Encoding: 8224 8224 251
Width: 449
Flags: MW
HStem: 362 135<25 162 25 162 25 287 287 424>
VStem: 162 125<-70 362 -70 362 497 668>
LayerCount: 2
Back
Fore
SplineSet
25 362 m 1
 25 497 l 1
 162 497 l 1
 162 668 l 1
 287 668 l 1
 287 497 l 1
 424 497 l 1
 424 362 l 1
 287 362 l 1
 287 -70 l 1
 162 -70 l 1
 162 362 l 1
 25 362 l 1
EndSplineSet
EndChar
StartChar: daggerdbl
Encoding: 8225 8225 227
Width: 475
Flags: MW
HStem: 100 135<38 175 38 175 38 300 300 437> 362 135<38 175 38 175 38 300 300 436>
VStem: 175 125<-70 100 -70 100 235 362 497 668>
LayerCount: 2
Back
Fore
SplineSet
175 -70 m 1
 175 100 l 1
 38 100 l 1
 38 235 l 1
 175 235 l 1
 175 362 l 1
 38 362 l 1
 38 497 l 1
 175 497 l 1
 175 668 l 1
 300 668 l 1
 300 497 l 1
 436 497 l 1
 436 362 l 1
 300 362 l 1
 300 235 l 1
 437 235 l 1
 437 100 l 1
 300 100 l 1
 300 -70 l 1
 175 -70 l 1
EndSplineSet
EndChar
StartChar: bullet
Encoding: 8226 8226 207
Width: 436
Flags: MW
HStem: 100 280<93 343 93 343>
VStem: 93 250<100 380 100 380>
LayerCount: 2
Back
Fore
SplineSet
93 100 m 1
 93 380 l 1
 343 380 l 1
 343 100 l 1
 93 100 l 1
EndSplineSet
EndChar
StartChar: ellipsis
Encoding: 8230 8230 268
Width: 697
Flags: MW
HStem: 0 153<50 186 50 186 280 416 50 280 511 647>
VStem: 50 136<0 153 0 153> 280 136<0 153 0 153> 511 136<0 153 0 153>
LayerCount: 2
Back
Fore
SplineSet
50 0 m 1
 50 153 l 1
 186 153 l 1
 186 0 l 1
 50 0 l 1
280 0 m 1
 280 153 l 1
 416 153 l 1
 416 0 l 1
 280 0 l 1
511 0 m 1
 511 153 l 1
 647 153 l 1
 647 0 l 1
 511 0 l 1
EndSplineSet
EndChar
StartChar: perthousand
Encoding: 8240 8240 274
Width: 838
Flags: MW
HStem: 0 80<428 446 428 475.5 685 703> 211 80<428 446 685 703> 490 131<136 154>
VStem: 123 44<533 579> 317 98<123 169 123 194.5> 459 98<123 169> 574 98<123 169 123 194.5> 716 98<123 169>
LayerCount: 2
Back
Fore
SplineSet
145 621 m 0
 163 621 167 602 167 556 c 0
 167 510 163 490 145 490 c 0
 127 490 123 510 123 556 c 0
 123 602 127 621 145 621 c 0
153 -2 m 1
 345 720 l 1
 431 697 l 1
 239 -24 l 1
 153 -2 l 1
25 556 m 0
 25 459 68 410 145 410 c 0
 222 410 265 459 265 556 c 0
 265 653 222 701 145 701 c 0
 68 701 25 653 25 556 c 0
317 146 m 0
 317 243 360 291 437 291 c 0
 514 291 557 243 557 146 c 0
 557 49 514 0 437 0 c 0
 360 0 317 49 317 146 c 0
415 146 m 0
 415 100 419 80 437 80 c 0
 455 80 459 100 459 146 c 0
 459 192 455 211 437 211 c 0
 419 211 415 192 415 146 c 0
574 146 m 0xc3
 574 243 617 291 694 291 c 0
 771 291 814 243 814 146 c 0
 814 49 771 0 694 0 c 0
 617 0 574 49 574 146 c 0xc3
672 146 m 0
 672 100 676 80 694 80 c 0
 712 80 716 100 716 146 c 0
 716 192 712 211 694 211 c 0
 676 211 672 192 672 146 c 0
EndSplineSet
EndChar
StartChar: guilsinglleft
Encoding: 8249 8249 381
Width: 288
Flags: MW
HStem: 41 395<238 238>
VStem: 28 210<41 274 41 274>
LayerCount: 2
Back
Fore
SplineSet
238 436 m 1
 238 316 l 1
 137 243 l 1
 238 161 l 1
 238 41 l 1
 28 210 l 1
 28 274 l 1
 238 436 l 1
EndSplineSet
EndChar
StartChar: guilsinglright
Encoding: 8250 8250 382
Width: 288
Flags: MW
HStem: 41 395<50 50>
VStem: 50 210<41 274 161 274 210 436 210 436>
LayerCount: 2
Back
Fore
SplineSet
50 316 m 1
 50 436 l 1
 260 274 l 1
 260 210 l 1
 50 41 l 1
 50 161 l 1
 151 243 l 1
 50 316 l 1
EndSplineSet
EndChar
StartChar: fraction
Encoding: 8260 8260 419
Width: 54
Flags: MW
HStem: -24 742<-40 104>
VStem: -162 388
LayerCount: 2
Back
Fore
SplineSet
-40 -24 m 1
 -162 20 l 1
 104 718 l 1
 226 675 l 1
 -40 -24 l 1
EndSplineSet
EndChar
StartChar: foursuperior
Encoding: 8308 8308 260
Width: 280
Flags: MW
HStem: 513 95<119 146 119 146 251 262>
VStem: 146 105<478 513 478 513 478 608>
LayerCount: 2
Back
Fore
SplineSet
146 478 m 1
 146 513 l 1
 14 513 l 1
 14 601 l 1
 53 790 l 1
 171 790 l 1
 119 608 l 1
 146 608 l 1
 160 698 l 1
 251 698 l 1
 251 608 l 1
 262 608 l 1
 262 513 l 1
 251 513 l 1
 251 478 l 1
 146 478 l 1
EndSplineSet
Substitution2: "Single Substitution lookup 5 subtable" fourinferior
EndChar
StartChar: fivesuperior
Encoding: 8309 8309 261
Width: 280
Flags: MW
HStem: 471 90<117 134.5 107.5 182> 592 89<132.5 199> 700 90<127 251 127 127>
VStem: 38.5 87 151 110<571 581.5>
LayerCount: 2
Back
Fore
SplineSet
44 790 m 1
 251 790 l 1
 251 700 l 1
 127 700 l 1x30
 124 675 l 1x70
 124 675 152 681 168 681 c 0
 230 681 261 654 261 576 c 0
 261 508 221 471 143 471 c 0
 91 471 25 485 25 485 c 1
 33 570 l 1
 33 570 89 561 126 561 c 0
 143 561 151 566 151 576 c 0
 151 587 147 592 137 592 c 0
 128 592 111 588 111 588 c 1xf8
 33 599 l 1x70
 44 790 l 1
EndSplineSet
Substitution2: "Single Substitution lookup 5 subtable" fiveinferior
EndChar
StartChar: sixsuperior
Encoding: 8310 8310 262
Width: 280
Flags: MW
HStem: 467 92<136.5 147 136.5 180.5> 601 86<137 199> 708 93<144 171>
VStem: 16 108<583.5 593 583.5 678> 159 107<573.5 587>
LayerCount: 2
Back
Fore
SplineSet
257 789 m 1
 251 702 l 1
 251 702 185 708 157 708 c 0xb8
 131 708 124 695 124 682 c 1
 134 684 150 687 162 687 c 0xf8
 236 687 266 651 266 582 c 0
 266 508 214 467 147 467 c 0
 55 467 16 525 16 622 c 0
 16 734 47 801 153 801 c 0
 189 801 257 789 257 789 c 1
143 601 m 0xf8
 131 601 124 593 124 593 c 1
 124 574 131 559 142 559 c 0
 152 559 159 567 159 580 c 0
 159 594 153 601 143 601 c 0xf8
EndSplineSet
Substitution2: "Single Substitution lookup 5 subtable" sixinferior
EndChar
StartChar: eightsuperior
Encoding: 8312 8312 264
Width: 280
Flags: MW
HStem: 467 85<133.5 146.5 133.5 181> 599 73<133 147 133 147> 716 85<134.5 146>
VStem: 12 109<567.5 578 567.5 594.5> 17 105<693 703.5 693 740.5> 158 106<693 703> 159 109<567.5 578>
LayerCount: 2
Back
Fore
SplineSet
140 801 m 0xec
 224 801 264 769 264 711 c 0xf4
 264 666 237 640 237 640 c 1
 237 640 268 622 268 572 c 0
 268 493 222 467 140 467 c 0
 57 467 12 493 12 572 c 0xf2
 12 617 44 641 44 641 c 1
 44 641 17 661 17 712 c 0
 17 769 55 801 140 801 c 0xec
140 552 m 0xf2
 153 552 159 561 159 574 c 0
 159 582 153 593 147 599 c 1
 133 599 l 1
 127 593 121 582 121 574 c 0
 121 561 127 552 140 552 c 0xf2
140 716 m 0xec
 129 716 122 710 122 697 c 0
 122 689 128 678 133 672 c 1
 147 672 l 1
 152 678 158 689 158 697 c 0
 158 709 152 716 140 716 c 0xec
EndSplineSet
Substitution2: "Single Substitution lookup 5 subtable" eightinferior
EndChar
StartChar: zeroinferior
Encoding: 8320 8320 422
Width: 280
Flags: MW
HStem: -11 95<133.5 147 133.5 158.5> 228 95<133.5 147>
VStem: 11 129 140 129
LayerCount: 2
Back
Fore
SplineSet
140 323 m 0xd0
 225 323 269 282 269 154 c 0
 269 81 255 38 227 14 c 0xd0
 206 -4 177 -11 140 -11 c 0
 55 -11 11 26 11 154 c 0
 11 227 26 272 54 297 c 0xe0
 75 316 104 323 140 323 c 0xd0
140 228 m 0xe0
 127 228 121 220 121 154 c 0
 121 89 127 84 140 84 c 0
 154 84 159 89 159 154 c 0
 159 220 154 228 140 228 c 0xe0
EndSplineSet
Substitution2: "'frac' Diagonal Fractions in Latin lookup 1 subtable" zerosuperior
EndChar
StartChar: oneinferior
Encoding: 8321 8321 423
Width: 280
Flags: MW
HStem: -100 312<131 227 131 227 121 227>
VStem: 121 106<-100 95 95 95>
LayerCount: 2
Back
Fore
SplineSet
25 137 m 1
 131 212 l 1
 227 212 l 1
 227 -100 l 1
 121 -100 l 1
 121 95 l 1
 74 63 l 1
 25 137 l 1
EndSplineSet
Substitution2: "'frac' Diagonal Fractions in Latin lookup 1 subtable" onesuperior
EndChar
StartChar: fourinferior
Encoding: 8324 8324 426
Width: 280
Flags: MW
HStem: -65 95<123 150 123 150 255 266>
VStem: 150 105<-100 -65 -100 -65 -100 30>
LayerCount: 2
Back
Fore
SplineSet
150 -100 m 1
 150 -65 l 1
 18 -65 l 1
 18 23 l 1
 57 212 l 1
 175 212 l 1
 123 30 l 1
 150 30 l 1
 164 120 l 1
 255 120 l 1
 255 30 l 1
 266 30 l 1
 266 -65 l 1
 255 -65 l 1
 255 -100 l 1
 150 -100 l 1
EndSplineSet
Substitution2: "'frac' Diagonal Fractions in Latin lookup 1 subtable" foursuperior
EndChar
StartChar: fiveinferior
Encoding: 8325 8325 427
Width: 280
Flags: MW
HStem: -107 90<110 127.5 100.5 175> 14 89<125.5 192> 122 90<120 244 120 120>
VStem: 31.5 87 144 110<-7 3.5>
LayerCount: 2
Back
Fore
SplineSet
37 212 m 1
 244 212 l 1
 244 122 l 1
 120 122 l 1x30
 117 97 l 1x70
 117 97 145 103 161 103 c 0
 223 103 254 76 254 -2 c 0
 254 -70 214 -107 136 -107 c 0
 84 -107 18 -93 18 -93 c 1
 26 -8 l 1
 26 -8 82 -17 119 -17 c 0
 136 -17 144 -12 144 -2 c 0
 144 9 140 14 130 14 c 0
 121 14 104 10 104 10 c 1xf8
 26 21 l 1x70
 37 212 l 1
EndSplineSet
Substitution2: "'frac' Diagonal Fractions in Latin lookup 1 subtable" fivesuperior
EndChar
StartChar: sixinferior
Encoding: 8326 8326 428
Width: 280
Flags: MW
HStem: -111 92<133.5 144 133.5 177.5> 23 86<134 196> 130 93<141 168>
VStem: 13 108<5.5 15 5.5 100> 156 107<-4.5 9>
LayerCount: 2
Back
Fore
SplineSet
254 211 m 1
 248 124 l 1
 248 124 182 130 154 130 c 0xb8
 128 130 121 117 121 104 c 1
 131 106 147 109 159 109 c 0xf8
 233 109 263 73 263 4 c 0
 263 -70 211 -111 144 -111 c 0
 52 -111 13 -53 13 44 c 0
 13 156 44 223 150 223 c 0
 186 223 254 211 254 211 c 1
140 23 m 0xf8
 128 23 121 15 121 15 c 1
 121 -4 128 -19 139 -19 c 0
 149 -19 156 -11 156 2 c 0
 156 16 150 23 140 23 c 0xf8
EndSplineSet
Substitution2: "'frac' Diagonal Fractions in Latin lookup 1 subtable" sixsuperior
EndChar
StartChar: seveninferior
Encoding: 8327 8327 429
Width: 280
Flags: MW
HStem: 107 105<25 252 25 127>
VStem: 25 227<111 212 111 212 111 212>
LayerCount: 2
Back
Fore
SplineSet
25 107 m 1
 25 212 l 1
 252 212 l 1
 252 111 l 1
 157 -110 l 1
 36 -91 l 1
 127 94 l 1
 127 107 l 1
 25 107 l 1
EndSplineSet
Substitution2: "'frac' Diagonal Fractions in Latin lookup 1 subtable" sevensuperior
EndChar
StartChar: eightinferior
Encoding: 8328 8328 430
Width: 280
Flags: MW
HStem: -111 85<133.5 146.5 133.5 181> 21 73<133 147 133 147> 138 85<134.5 146>
VStem: 12 109<-10.5 0 -10.5 16.5> 17 105<115 125.5 115 162.5> 158 106<115 125> 159 109<-10.5 0>
LayerCount: 2
Back
Fore
SplineSet
140 223 m 0xec
 224 223 264 191 264 133 c 0xf4
 264 88 237 62 237 62 c 1
 237 62 268 44 268 -6 c 0
 268 -85 222 -111 140 -111 c 0
 57 -111 12 -85 12 -6 c 0xf2
 12 39 44 63 44 63 c 1
 44 63 17 83 17 134 c 0
 17 191 55 223 140 223 c 0xec
140 -26 m 0xf2
 153 -26 159 -17 159 -4 c 0
 159 4 153 15 147 21 c 1
 133 21 l 1
 127 15 121 4 121 -4 c 0
 121 -17 127 -26 140 -26 c 0xf2
140 138 m 0xec
 129 138 122 132 122 119 c 0
 122 111 128 100 133 94 c 1
 147 94 l 1
 152 100 158 111 158 119 c 0
 158 131 152 138 140 138 c 0xec
EndSplineSet
Substitution2: "'frac' Diagonal Fractions in Latin lookup 1 subtable" eightsuperior
EndChar
StartChar: nineinferior
Encoding: 8329 8329 431
Width: 280
Flags: MW
HStem: -111 95<108 130.5 98 180.5> 3 82<81 140> 130 93<131 142>
VStem: 13 123 136 127
LayerCount: 2
Back
Fore
SplineSet
24 -97 m 1xb0
 30 -10 l 1
 30 -10 79 -16 117 -16 c 0xa8
 144 -16 150 -3 150 7 c 0xe8
 150 8 132 3 115 3 c 0
 47 3 13 38 13 107 c 0xf0
 13 181 60 223 132 223 c 0
 225 223 263 165 263 58 c 0xa8
 263 -54 229 -111 132 -111 c 0
 84 -111 24 -97 24 -97 c 1xb0
136 85 m 0xf0
 144 85 155 91 155 91 c 1
 155 118 148 130 136 130 c 0
 126 130 120 121 120 107 c 0
 120 93 128 85 136 85 c 0xf0
EndSplineSet
Substitution2: "'frac' Diagonal Fractions in Latin lookup 1 subtable" ninesuperior
EndChar
StartChar: Euro
Encoding: 8364 8364 246
Width: 560
Flags: MW
HStem: -12 117<321 365> 183 105<54 88 54 98 54 88 242 242 242 444> 357 105<54 87 54 95 237 444> 555 117<317 358.5 257 371.5>
VStem: 54 171<183 333 288 333 325 462 325 462>
LayerCount: 2
Back
Fore
SplineSet
496 116 m 1
 501 10 l 1
 501 10 406 -12 324 -12 c 0
 183 -12 121 58 98 183 c 1
 54 183 l 1
 54 288 l 1
 88 288 l 1
 87 302 87 317 87 333 c 2
 87 357 l 1
 54 357 l 1
 54 462 l 1
 95 462 l 1
 119 610 190 672 324 672 c 0
 393 672 501 649 501 649 c 1
 496 544 l 1
 496 544 397 555 346 555 c 0
 288 555 253 528 237 462 c 1
 444 462 l 1
 444 357 l 1
 225 357 l 1
 225 333 l 2
 225 317 225 302 226 288 c 1
 444 288 l 1
 444 183 l 1
 242 183 l 1
 259 132 292 105 350 105 c 0
 397 105 496 116 496 116 c 1
EndSplineSet
EndChar
StartChar: trademark
Encoding: 8482 8482 159
Width: 642
Flags: MW
HStem: 331 313<71 296 296 378 505 505 505 587> 565 79<71 271 71 142 230 230 230 271>
VStem: 142 88<332 565 332 565> 296 82<331 505 331 644> 505 82<331 505 505 505>
LayerCount: 2
Back
Fore
SplineSet
71 565 m 1x78
 71 644 l 1
 271 644 l 1
 271 565 l 1
 230 565 l 1
 230 332 l 1
 142 332 l 1
 142 565 l 1
 71 565 l 1x78
296 331 m 1
 296 644 l 1
 399 644 l 1x78
 440 486 l 1
 485 644 l 1
 587 644 l 1
 587 331 l 1
 505 331 l 1
 505 505 l 1
 471 352 l 1
 416 352 l 1xb8
 378 505 l 1
 378 331 l 1
 296 331 l 1
EndSplineSet
EndChar
StartChar: partialdiff
Encoding: 8706 8706 413
Width: 560
Flags: MW
HStem: -9 114<229.5 299 229.5 354> 324 114<229.5 281 177 300> 598 114<214 289>
VStem: 28 144<182 247 182 287> 374 144<231 302 414 414>
LayerCount: 2
Back
Fore
SplineSet
85 564 m 1
 81 667 l 1
 81 667 166 712 262 712 c 0
 445 712 518 593 518 347 c 0
 518 106 445 -9 263 -9 c 0
 110 -9 28 64 28 216 c 0
 28 358 107 438 247 438 c 0
 315 438 374 414 374 414 c 1
 366 550 339 598 239 598 c 0
 166 598 85 564 85 564 c 1
264 324 m 0
 195 324 172 278 172 216 c 0
 172 148 196 105 263 105 c 0
 335 105 374 160 374 302 c 1
 374 302 336 324 264 324 c 0
EndSplineSet
EndChar
StartChar: Delta
Encoding: 8710 8710 278
Width: 560
Flags: MW
HStem: 0 114<177 383 177 516> 548 112<267 294 267 267>
VStem: 44 472<0 102 0 104 0 104>
LayerCount: 2
Back
Fore
SplineSet
44 104 m 1
 168 660 l 1
 393 660 l 1
 516 102 l 1
 516 0 l 1
 44 0 l 1
 44 104 l 1
294 548 m 1
 267 548 l 1
 177 114 l 1
 383 114 l 1
 294 548 l 1
EndSplineSet
EndChar
StartChar: product
Encoding: 8719 8719 409
Width: 560
Flags: MW
HStem: 640 120<31 84 31 530 222 335 222 222 473 473 473 530>
VStem: 84 138<-180 640 -180 640> 335 138<-180 640 -180 640>
LayerCount: 2
Back
Fore
SplineSet
335 -180 m 1
 335 640 l 1
 222 640 l 1
 222 -180 l 1
 84 -180 l 1
 84 640 l 1
 31 640 l 1
 31 760 l 1
 530 760 l 1
 530 640 l 1
 473 640 l 1
 473 -180 l 1
 335 -180 l 1
EndSplineSet
EndChar
StartChar: summation
Encoding: 8721 8721 146
Width: 560
Flags: MW
HStem: -180 120<177 531 177 531> 640 120<177 531 177 177>
VStem: 31 146<-60 -45 -60 -41 -60 -41 625 640>
LayerCount: 2
Back
Fore
SplineSet
269 298 m 1
 31 620 l 1
 31 760 l 1
 531 760 l 1
 531 640 l 1
 177 640 l 1
 177 625 l 1
 392 344 l 1
 392 251 l 1
 177 -45 l 1
 177 -60 l 1
 531 -60 l 1
 531 -180 l 1
 31 -180 l 1
 31 -41 l 1
 269 298 l 1
EndSplineSet
EndChar
StartChar: radical
Encoding: 8730 8730 408
Width: 560
Flags: MW
HStem: -130 114<258 271 258 370 156 271> 320 120<0 166 0 54>
VStem: 0 570<320 791 440 791>
LayerCount: 2
Back
Fore
SplineSet
0 320 m 1
 0 440 l 1
 166 440 l 1
 258 -16 l 1
 271 -16 l 1
 434 791 l 1
 570 791 l 1
 370 -130 l 1
 156 -130 l 1
 54 320 l 1
 0 320 l 1
EndSplineSet
EndChar
StartChar: infinity
Encoding: 8734 8734 362
Width: 560
Flags: MW
HStem: 121 115<171.5 189.5 370.5 388.5> 348 115<171 188 120 194.5 371.5 389>
VStem: 27 122<275 308 275 349> 411 122<275 308>
LayerCount: 2
Back
Fore
SplineSet
166 121 m 0
 76 121 27 177 27 291 c 0
 27 407 76 463 164 463 c 0
 212 463 249 444 280 385 c 1
 311 444 347 463 396 463 c 0
 484 463 533 407 533 292 c 0
 533 177 484 121 394 121 c 0
 347 121 310 139 280 198 c 1
 249 139 213 121 166 121 c 0
235 292 m 1
 218 326 204 348 185 348 c 0
 157 348 149 325 149 291 c 0
 149 259 158 236 185 236 c 0
 204 236 218 260 235 292 c 1
325 292 m 1
 342 260 356 236 375 236 c 0
 402 236 411 259 411 291 c 0
 411 325 403 348 375 348 c 0
 356 348 342 326 325 292 c 1
EndSplineSet
EndChar
StartChar: approxequal
Encoding: 8776 8776 363
Width: 560
Flags: MW
HStem: 45 120<363.5 407.5 363.5 415> 89 120<154.5 198> 265 120<363.5 407.5 363.5 415> 309 120<154.5 198>
VStem: 59 440<96 157 96 377>
LayerCount: 2
Back
Fore
SplineSet
491 423 m 1xa8
 499 316 l 1
 499 316 445 265 385 265 c 0xa8
 330 265 217 309 179 309 c 0
 130 309 69 270 69 270 c 1
 59 377 l 1
 59 377 122 429 183 429 c 0x98
 237 429 339 385 388 385 c 0
 427 385 491 423 491 423 c 1xa8
491 203 m 1
 499 96 l 1
 499 96 445 45 385 45 c 0xa8
 330 45 217 89 179 89 c 0
 130 89 69 50 69 50 c 1
 59 157 l 1
 59 157 122 209 183 209 c 0x68
 237 209 339 165 388 165 c 0
 427 165 491 203 491 203 c 1
EndSplineSet
EndChar
StartChar: notequal
Encoding: 8800 8800 222
Width: 560
Flags: MW
HStem: 87 121<57 141 57 194 316 501 57 263> 295 121<57 285 57 232 57 354 407 501>
VStem: 57 444<87 208 87 208 295 416 87 416>
LayerCount: 2
Back
Fore
SplineSet
57 295 m 1
 57 416 l 1
 285 416 l 1
 353 570 l 1
 457 529 l 1
 407 416 l 1
 501 416 l 1
 501 295 l 1
 354 295 l 1
 316 208 l 1
 501 208 l 1
 501 87 l 1
 263 87 l 1
 200 -56 l 1
 96 -15 l 1
 141 87 l 1
 57 87 l 1
 57 208 l 1
 194 208 l 1
 232 295 l 1
 57 295 l 1
EndSplineSet
EndChar
StartChar: lessequal
Encoding: 8804 8804 275
Width: 560
Flags: MW
HStem: 19 120<66 487 66 487>
VStem: 66 421<19 139 19 139 274 283 386 390 390 390>
LayerCount: 2
Back
Fore
SplineSet
487 386 m 1
 215 337 l 1
 487 283 l 1
 487 153 l 1
 66 274 l 1
 66 390 l 1
 487 516 l 1
 487 386 l 1
66 19 m 1
 66 139 l 1
 487 139 l 1
 487 19 l 1
 66 19 l 1
EndSplineSet
EndChar
StartChar: lozenge
Encoding: 9674 9674 410
Width: 560
Flags: MW
HStem: 0 114<193 289 272 289 272 368> 546 114<272 289 272 272>
VStem: 44 472<324 324>
LayerCount: 2
Back
Fore
SplineSet
193 0 m 1
 44 324 l 1
 193 660 l 1
 368 660 l 1
 516 324 l 1
 368 0 l 1
 193 0 l 1
289 114 m 1
 383 324 l 1
 289 546 l 1
 272 546 l 1
 177 324 l 1
 272 114 l 1
 289 114 l 1
EndSplineSet
EndChar
StartChar: dotlessj
Encoding: 63166 63166 406
Width: 244
Flags: MW
HStem: -230 21G<5 5> 480 20G<55 189 189 189>
VStem: 55 134<0 500>
LayerCount: 2
Back
Fore
SplineSet
55 0 m 2
 55 500 l 1
 189 500 l 1
 189 0 l 2
 189 -126 175 -152 5 -230 c 1
 -43 -129 l 1
 51 -71 55 -64 55 0 c 2
EndSplineSet
EndChar
StartChar: commaaccent
Encoding: 63171 63171 7
Width: 161
Flags: MW
HStem: -309 237<-5 161 39 109>
VStem: -5 166
LayerCount: 2
Back
Fore
SplineSet
-5 -309 m 1
 39 -72 l 1
 161 -72 l 1
 109 -309 l 1
 -5 -309 l 1
EndSplineSet
EndChar
StartChar: acute.cap.001
Encoding: 65593 -1 452
Width: 528
Flags: MW
HStem: 765 197
VStem: 84 281<842 868>
LayerCount: 2
Back
Fore
SplineSet
119 765 m 1
 84 868 l 1
 326 962 l 1
 365 842 l 1
 119 765 l 1
EndSplineSet
EndChar
StartChar: at.cap
Encoding: 65581 -1 420
Width: 913
Flags: MW
HStem: -129 112<355 488 355 491.5> 80 112<691 724.5 691 774.5> 466 114<431.5 469.5> 676 112<355 593>
VStem: 32 121<227 459 227 498.5> 246 136<288 382 288 399> 536 135<263 460 460 460> 769 121<292 471>
LayerCount: 2
Back
Fore
SplineSet
473 788 m 0
 778 788 890 656 890 351 c 0
 890 206 847 80 702 80 c 0
 631 80 592 91 563 172 c 1
 527 106 469 80 420 80 c 0
 293 80 246 157 246 324 c 0
 246 474 285 580 449 580 c 0
 524 580 671 561 671 561 c 1
 671 237 l 2
 671 201 680 192 702 192 c 0
 747 192 769 233 769 351 c 0
 769 591 713 676 473 676 c 0
 237 676 153 577 153 341 c 0
 153 113 241 -17 469 -17 c 0
 507 -17 604 -8 604 -8 c 1
 608 -119 l 1
 608 -119 514 -129 469 -129 c 0
 164 -129 32 36 32 341 c 0
 32 656 158 788 473 788 c 0
448 194 m 0
 500 194 536 263 536 263 c 1
 536 460 l 1
 532 461 478 466 461 466 c 0
 402 466 382 426 382 338 c 0
 382 238 393 194 448 194 c 0
EndSplineSet
Position2: "'cpsp' Capital Spacing in Latin lookup 0 subtable" dx=5 dy=0 dh=10 dv=0
EndChar
StartChar: braceleft.cap
Encoding: 65559 -1 288
Width: 334
Flags: MW
HStem: -103 115<301 301> 674 115<301 301>
VStem: 96 144<0 238>
LayerCount: 2
Back
Fore
SplineSet
240 203 m 0
 240 165 233 108 233 67 c 0
 233 25 259 16 301 12 c 1
 301 -103 l 1
 193 -99 96 -70 96 70 c 0
 96 109 103 152 103 195 c 0
 103 247 66 274 15 290 c 1
 15 395 l 1
 72 410 102 439 102 494 c 0
 102 524 96 573 96 613 c 0
 96 743 161 784 301 789 c 1
 301 674 l 1
 243 669 233 661 233 623 c 2
 240 476 l 2
 240 398 213 367 151 343 c 1
 213 320 240 273 240 203 c 0
EndSplineSet
Position2: "'cpsp' Capital Spacing in Latin lookup 0 subtable" dx=5 dy=0 dh=10 dv=0
EndChar
StartChar: braceright.cap
Encoding: 65560 -1 289
Width: 334
Flags: MW
HStem: -106 115<33 33> 671 21G<33 33> 671 115<33 33>
VStem: 94 144<5 246>
LayerCount: 2
Back
Fore
SplineSet
94 480 m 0xd0
 94 518 101 575 101 616 c 0
 101 658 75 667 33 671 c 1
 33 786 l 1xb0
 141 782 238 753 238 613 c 0
 238 574 231 531 231 488 c 0
 231 436 268 409 319 393 c 1
 319 288 l 1
 262 273 232 244 232 189 c 0
 232 159 238 110 238 70 c 0
 238 -60 173 -101 33 -106 c 1
 33 9 l 1
 91 14 101 22 101 60 c 2
 94 207 l 2
 94 285 121 316 183 340 c 1
 121 363 94 410 94 480 c 0xd0
EndSplineSet
Position2: "'cpsp' Capital Spacing in Latin lookup 0 subtable" dx=5 dy=0 dh=10 dv=0
EndChar
StartChar: bracketleft.cap
Encoding: 65557 -1 286
Width: 329
Flags: MW
HStem: -92 114<191 299 191 299> 663 114<191 299 191 191>
VStem: 61 130<22 663 22 777 22 777>
LayerCount: 2
Back
Fore
SplineSet
61 777 m 1
 299 777 l 1
 299 663 l 1
 191 663 l 1
 191 22 l 1
 299 22 l 1
 299 -92 l 1
 61 -92 l 1
 61 777 l 1
EndSplineSet
Position2: "'cpsp' Capital Spacing in Latin lookup 0 subtable" dx=5 dy=0 dh=10 dv=0
EndChar
StartChar: bracketright.cap
Encoding: 65558 -1 287
Width: 329
Flags: MW
HStem: -92 114<30 138 30 268 30 138> 663 114<30 138 30 268>
VStem: 138 130<22 663 663 663>
LayerCount: 2
Back
Fore
SplineSet
268 -92 m 1
 30 -92 l 1
 30 22 l 1
 138 22 l 1
 138 663 l 1
 30 663 l 1
 30 777 l 1
 268 777 l 1
 268 -92 l 1
EndSplineSet
Position2: "'cpsp' Capital Spacing in Latin lookup 0 subtable" dx=5 dy=0 dh=10 dv=0
EndChar
StartChar: breve.cap
Encoding: 65566 -1 295
Width: 462
Flags: MW
HStem: 783 144<136.5 164 252 280.5>
VStem: 43 121<912.5 927 912.5 927> 252 121<912.5 927>
LayerCount: 2
Back
Fore
SplineSet
43 927 m 1
 164 927 l 1
 164 898 178 885 208 885 c 0
 235 885 252 898 252 927 c 1
 373 927 l 1
 373 885 353 783 208 783 c 0
 65 783 43 885 43 927 c 1
EndSplineSet
EndChar
StartChar: caron.cap
Encoding: 65562 -1 291
Width: 462
Flags: MW
HStem: 776 151<160 166 244 250 160 160>
VStem: 34 342<927 927>
LayerCount: 2
Back
Fore
SplineSet
376 927 m 1
 250 776 l 1
 160 776 l 1
 34 927 l 1
 166 927 l 1
 205 870 l 1
 244 927 l 1
 376 927 l 1
EndSplineSet
EndChar
StartChar: circumflex.cap.001
Encoding: 65594 -1 453
Width: 462
Flags: MW
HStem: 779 152<30 245 30 245 164 256 164 381>
VStem: 30 351<779 779>
LayerCount: 2
Back
Fore
SplineSet
30 779 m 1
 164 931 l 1
 245 931 l 1
 381 779 l 1
 256 779 l 1
 206 840 l 1
 154 779 l 1
 30 779 l 1
EndSplineSet
EndChar
StartChar: dieresis.cap
Encoding: 65564 -1 293
Width: 410
Flags: MW
HStem: 788 135<71 181 71 181 270 380 71 270>
VStem: 71 110<788 923 788 923> 270 110<788 923 788 923>
LayerCount: 2
Back
Fore
SplineSet
71 788 m 1
 71 923 l 1
 181 923 l 1
 181 788 l 1
 71 788 l 1
270 788 m 1
 270 923 l 1
 380 923 l 1
 380 788 l 1
 270 788 l 1
EndSplineSet
EndChar
StartChar: dotaccent.cap
Encoding: 65569 -1 298
Width: 255
Flags: MW
HStem: 771 138<68 184 68 184>
VStem: 68 116<771 909 771 909>
LayerCount: 2
Back
Fore
SplineSet
68 771 m 1
 68 909 l 1
 184 909 l 1
 184 771 l 1
 68 771 l 1
EndSplineSet
EndChar
StartChar: eight.dnom
Encoding: 65590 -1 440
Width: 280
Flags: MW
HStem: -111 85<132.5 145.5 132.5 180> 21 73<132 146 132 146> 138 85<133.5 145>
VStem: 11 109<-10.5 0 -10.5 16.5> 16 105<115 125.5 115 162.5> 157 106<115 125> 158 109<-10.5 0>
LayerCount: 2
Back
Fore
SplineSet
139 223 m 0xec
 223 223 263 191 263 133 c 0xf4
 263 88 236 62 236 62 c 1
 236 62 267 44 267 -6 c 0
 267 -85 221 -111 139 -111 c 0
 56 -111 11 -85 11 -6 c 0xf2
 11 39 43 63 43 63 c 1
 43 63 16 83 16 134 c 0
 16 191 54 223 139 223 c 0xec
139 -26 m 0xf2
 152 -26 158 -17 158 -4 c 0
 158 4 152 15 146 21 c 1
 132 21 l 1
 126 15 120 4 120 -4 c 0
 120 -17 126 -26 139 -26 c 0xf2
139 138 m 0xec
 128 138 121 132 121 119 c 0
 121 111 127 100 132 94 c 1
 146 94 l 1
 151 100 157 111 157 119 c 0
 157 131 151 138 139 138 c 0xec
EndSplineSet
Substitution2: "'frac' Diagonal Fractions in Latin lookup 1 subtable" eightsuperior
EndChar
StartChar: eight.numr
Encoding: 65578 -1 378
Width: 280
Flags: MW
HStem: 367 85<133.5 146.5 133.5 181> 499 73<133 147 133 147> 616 85<134.5 146>
VStem: 12 109<467.5 478 467.5 494.5> 17 105<593 603.5 593 640.5> 158 106<593 603> 159 109<467.5 478>
LayerCount: 2
Back
Fore
SplineSet
140 701 m 0xec
 224 701 264 669 264 611 c 0xf4
 264 566 237 540 237 540 c 1
 237 540 268 522 268 472 c 0
 268 393 222 367 140 367 c 0
 57 367 12 393 12 472 c 0xf2
 12 517 44 541 44 541 c 1
 44 541 17 561 17 612 c 0
 17 669 55 701 140 701 c 0xec
140 452 m 0xf2
 153 452 159 461 159 474 c 0
 159 482 153 493 147 499 c 1
 133 499 l 1
 127 493 121 482 121 474 c 0
 121 461 127 452 140 452 c 0xf2
140 616 m 0xec
 129 616 122 610 122 597 c 0
 122 589 128 578 133 572 c 1
 147 572 l 1
 152 578 158 589 158 597 c 0
 158 609 152 616 140 616 c 0xec
EndSplineSet
Substitution2: "'frac' Diagonal Fractions in Latin lookup 1 subtable" eightsuperior
EndChar
StartChar: eight.pnum
Encoding: 65548 -1 202
Width: 543
Flags: MW
HStem: -10 127<239.5 302.5 239.5 345> 200 117<228 314 228 314> 392 117<243 299>
VStem: 35 148<146 164> 46 148<349 367.5 349 412.5> 349 148<349 367.5> 359 148<146 165>
LayerCount: 2
Back
Fore
SplineSet
271 509 m 0xec
 409 509 497 461 497 365 c 0xec
 497 326 482 291 425 265 c 1
 478 241 507 206 507 142 c 0
 507 32 419 -10 271 -10 c 0
 123 -10 35 43 35 142 c 0xf2
 35 186 65 241 118 265 c 1
 61 291 46 326 46 365 c 0
 46 460 133 509 271 509 c 0xec
271 117 m 0xf2
 334 117 359 133 359 159 c 0
 359 171 355 194 314 200 c 1
 228 200 l 1
 187 194 183 171 183 159 c 0
 183 133 208 117 271 117 c 0xf2
271 392 m 0xec
 215 392 194 380 194 355 c 0
 194 343 196 329 228 317 c 1
 314 317 l 1
 346 329 349 343 349 355 c 0
 349 380 327 392 271 392 c 0xec
EndSplineSet
Substitution2: "'frac' Diagonal Fractions in Latin lookup 1 subtable" eightsuperior
EndChar
StartChar: endash.cap
Encoding: 65551 -1 269
Width: 602
Flags: MW
HStem: 239 114<51 551 51 551>
VStem: 51 500<239 353 239 353>
LayerCount: 2
Back
Fore
SplineSet
51 353 m 1
 551 353 l 1
 551 239 l 1
 51 239 l 1
 51 353 l 1
EndSplineSet
Position2: "'cpsp' Capital Spacing in Latin lookup 0 subtable" dx=5 dy=0 dh=10 dv=0
EndChar
StartChar: exclamdown.cap
Encoding: 65554 -1 282
Width: 265
Flags: MW
HStem: -10 21G<64 200 64 64> 537 153<64 200 64 200>
VStem: 66 133
LayerCount: 2
Back
Fore
SplineSet
198 432 m 1
 200 -10 l 1
 64 -10 l 1
 68 432 l 1
 198 432 l 1
200 690 m 1
 200 537 l 1
 64 537 l 1
 64 690 l 1
 200 690 l 1
EndSplineSet
EndChar
StartChar: five.numr
Encoding: 65575 -1 375
Width: 280
Flags: MW
HStem: 371 90<116 133.5 106.5 181> 479 20G<32 32> 492 89<131.5 198> 600 90<126 250 126 126>
VStem: 37.5 87 150 110<471 481.5>
LayerCount: 2
Back
Fore
SplineSet
43 690 m 1x58
 250 690 l 1
 250 600 l 1
 126 600 l 1x58
 123 575 l 1x38
 123 575 151 581 167 581 c 0
 229 581 260 554 260 476 c 0
 260 408 220 371 142 371 c 0
 90 371 24 385 24 385 c 1
 32 470 l 1
 32 470 88 461 125 461 c 0
 142 461 150 466 150 476 c 0
 150 487 146 492 136 492 c 0
 127 492 110 488 110 488 c 1xbc
 32 499 l 1
 43 690 l 1x58
EndSplineSet
Substitution2: "'frac' Diagonal Fractions in Latin lookup 1 subtable" fivesuperior
EndChar
StartChar: five.pnum
Encoding: 65545 -1 199
Width: 516
Flags: MW
HStem: -9 122<220 281 220 332.5> 205 115<241.5 280.5> 372 132<193 464 193 193>
VStem: 346 138<138.5 173.5>
LayerCount: 2
Back
Fore
SplineSet
69 504 m 1
 464 504 l 1
 464 372 l 1
 193 372 l 1
 177 302 l 1
 177 302 214 320 269 320 c 0
 403 320 484 267 484 163 c 0
 484 59 403 -9 262 -9 c 0
 173 -9 32 24 32 24 c 1
 47 147 l 1
 47 147 183 113 257 113 c 0
 305 113 346 122 346 155 c 0
 346 192 307 205 254 205 c 0
 193 205 153 180 153 180 c 1
 47 203 l 1
 69 504 l 1
EndSplineSet
Substitution2: "'frac' Diagonal Fractions in Latin lookup 1 subtable" fivesuperior
EndChar
StartChar: four.pnum
Encoding: 65544 -1 198
Width: 514
Flags: MW
HStem: 0 21G<289 289 289 427> 85 128<185 289 185 289 427 488> 480 20G<180 330 330 330>
VStem: 289 138<0 85 0 85 213 335>
LayerCount: 2
Back
Fore
SplineSet
289 0 m 1
 289 85 l 1
 26 85 l 1
 26 195 l 1
 180 500 l 1
 330 500 l 1
 185 213 l 1
 289 213 l 1
 289 335 l 1
 427 335 l 1
 427 213 l 1
 488 213 l 1
 488 85 l 1
 427 85 l 1
 427 0 l 1
 289 0 l 1
EndSplineSet
Substitution2: "'frac' Diagonal Fractions in Latin lookup 1 subtable" foursuperior
EndChar
StartChar: grave.cap
Encoding: 65561 -1 290
Width: 513
Flags: MW
HStem: 754 196
VStem: 86 282<831 860>
LayerCount: 2
Back
Fore
SplineSet
125 950 m 1
 368 860 l 1
 332 754 l 1
 86 831 l 1
 125 950 l 1
EndSplineSet
EndChar
StartChar: hungarumlaut.cap
Encoding: 65568 -1 297
Width: 689
Flags: MW
HStem: 740 239
VStem: 129 389<780 934>
LayerCount: 2
Back
Fore
SplineSet
442 740 m 1
 334 779 l 1
 398 978 l 1
 518 934 l 1
 442 740 l 1
237 741 m 1
 129 780 l 1
 192 979 l 1
 312 935 l 1
 237 741 l 1
EndSplineSet
EndChar
StartChar: hyphen.cap
Encoding: 65592 -1 449
Width: 363
Flags: MW
HStem: 235 120<50 313 50 313>
VStem: 50 263<235 355 235 355>
LayerCount: 2
Back
Fore
SplineSet
50 235 m 1
 50 355 l 1
 313 355 l 1
 313 235 l 1
 50 235 l 1
EndSplineSet
EndChar
StartChar: macron.cap
Encoding: 65565 -1 294
Width: 462
Flags: MW
HStem: 806 109<60 386 60 386>
VStem: 60 326<806 915 806 915>
LayerCount: 2
Back
Fore
SplineSet
60 806 m 1
 60 915 l 1
 386 915 l 1
 386 806 l 1
 60 806 l 1
EndSplineSet
EndChar
StartChar: nine.numr
Encoding: 65579 -1 379
Width: 280
Flags: MW
HStem: 367 95<112 134.5 102 184.5> 481 82<85 144> 608 93<135 146>
VStem: 17 123 140 127
LayerCount: 2
Back
Fore
SplineSet
28 381 m 1xb0
 34 468 l 1
 34 468 83 462 121 462 c 0xa8
 148 462 154 475 154 485 c 0xe8
 154 486 136 481 119 481 c 0
 51 481 17 516 17 585 c 0xf0
 17 659 64 701 136 701 c 0
 229 701 267 643 267 536 c 0xa8
 267 424 233 367 136 367 c 0
 88 367 28 381 28 381 c 1xb0
140 563 m 0xf0
 148 563 159 569 159 569 c 1
 159 596 152 608 140 608 c 0
 130 608 124 599 124 585 c 0
 124 571 132 563 140 563 c 0xf0
EndSplineSet
Substitution2: "'frac' Diagonal Fractions in Latin lookup 1 subtable" ninesuperior
EndChar
StartChar: nine.pnum
Encoding: 65549 -1 203
Width: 522
Flags: MW
HStem: -10 21G<194 319> -10 128<194 274 191.5 319> 190 110<224 261> 399 115<226 279.5>
VStem: 30 138<330.5 370.5 330.5 400.5> 349 138
LayerCount: 2
Back
Fore
SplineSet
52 12 m 1xbc
 64 133 l 1
 64 133 152 118 231 118 c 0
 317 118 348 145 349 216 c 1
 324 205 284 190 238 190 c 0
 99 190 30 238 30 351 c 0
 30 450 112 514 253 514 c 0
 415 514 487 428 487 275 c 0
 487 85 407 -10 231 -10 c 0x7c
 157 -10 52 12 52 12 c 1xbc
250 300 m 0
 309 300 350 323 350 323 c 1
 350 326 l 2
 350 375 306 399 253 399 c 0
 199 399 168 390 168 351 c 0
 168 310 198 300 250 300 c 0
EndSplineSet
Substitution2: "'frac' Diagonal Fractions in Latin lookup 1 subtable" ninesuperior
EndChar
StartChar: one.dnom
Encoding: 65583 -1 433
Width: 280
Flags: MW
HStem: -100 312<130 226 130 226 120 226>
VStem: 120 106<-100 95 95 95>
LayerCount: 2
Back
Fore
SplineSet
24 137 m 1
 130 212 l 1
 226 212 l 1
 226 -100 l 1
 120 -100 l 1
 120 95 l 1
 73 63 l 1
 24 137 l 1
EndSplineSet
Substitution2: "'frac' Diagonal Fractions in Latin lookup 1 subtable" onesuperior
EndChar
StartChar: one.numr
Encoding: 65571 -1 371
Width: 280
Flags: MW
HStem: 378 312<126 222 126 222 116 222>
VStem: 116 106<378 573 573 573>
LayerCount: 2
Back
Fore
SplineSet
20 615 m 1
 126 690 l 1
 222 690 l 1
 222 378 l 1
 116 378 l 1
 116 573 l 1
 69 541 l 1
 20 615 l 1
EndSplineSet
Substitution2: "'frac' Diagonal Fractions in Latin lookup 1 subtable" onesuperior
EndChar
StartChar: one.pnum
Encoding: 65541 -1 195
Width: 393
Flags: MW
HStem: 0 21G<197 335 197 197> 480 20G<207 335 335 335>
VStem: 197 138<0 339 339 339>
LayerCount: 2
Back
Fore
SplineSet
7 372 m 1
 207 500 l 1
 335 500 l 1
 335 0 l 1
 197 0 l 1
 197 339 l 1
 71 262 l 1
 7 372 l 1
EndSplineSet
Substitution2: "'frac' Diagonal Fractions in Latin lookup 1 subtable" onesuperior
EndChar
StartChar: parenleft.cap
Encoding: 65555 -1 284
Width: 284
Flags: MW
HStem: -94 872<140 264 140 264>
VStem: 34 139<238 424 238 441>
LayerCount: 2
Back
Fore
SplineSet
140 778 m 1
 264 778 l 1
 264 778 173 517 173 331 c 0
 173 145 264 -94 264 -94 c 1
 140 -94 l 1
 140 -94 34 111 34 331 c 0
 34 551 140 778 140 778 c 1
EndSplineSet
Position2: "'cpsp' Capital Spacing in Latin lookup 0 subtable" dx=5 dy=0 dh=10 dv=0
EndChar
StartChar: parenright.cap
Encoding: 65556 -1 285
Width: 285
Flags: MW
HStem: -88 872<21 145 21 145>
VStem: 112 139<266 452>
LayerCount: 2
Back
Fore
SplineSet
145 -88 m 1
 21 -88 l 1
 21 -88 112 173 112 359 c 0
 112 545 21 784 21 784 c 1
 145 784 l 1
 145 784 251 579 251 359 c 0
 251 139 145 -88 145 -88 c 1
EndSplineSet
Position2: "'cpsp' Capital Spacing in Latin lookup 0 subtable" dx=5 dy=0 dh=10 dv=0
EndChar
StartChar: periodcentered.cap
Encoding: 65553 -1 272
Width: 236
Flags: MW
HStem: 247 169<50 186 50 186>
VStem: 50 136<247 416 247 416>
LayerCount: 2
Back
Fore
SplineSet
50 247 m 1
 50 416 l 1
 186 416 l 1
 186 247 l 1
 50 247 l 1
EndSplineSet
Position2: "'cpsp' Capital Spacing in Latin lookup 0 subtable" dx=5 dy=0 dh=10 dv=0
EndChar
StartChar: questiondown.cap
Encoding: 65550 -1 267
Width: 407
Flags: MW
HStem: -2 120<212 251.5> 523 167<167 305 167 305>
VStem: 19 142<156 198.5 156 218.5> 167 138<388.5 482 388.5 482 523 690>
LayerCount: 2
Back
Fore
SplineSet
19 181 m 0
 19 256 51 298 127 373 c 0
 154 400 167 419 167 443 c 2
 167 482 l 1
 297 482 l 1
 297 482 305 449 305 415 c 0xd0
 305 362 279 334 218 275 c 0
 177 236 161 216 161 181 c 0
 161 131 187 118 237 118 c 0
 285 118 377 133 377 133 c 1
 391 29 l 1
 391 29 282 -2 221 -2 c 0
 83 -2 19 48 19 181 c 0
305 690 m 1xd0
 305 523 l 1
 167 523 l 1
 167 690 l 1
 305 690 l 1xd0
EndSplineSet
EndChar
StartChar: ring.cap
Encoding: 65567 -1 296
Width: 338
Flags: MW
HStem: 600 86<137 165 137 187.5> 748 86<137 165>
VStem: 19 87<707 726.5 707 758> 195 87<707 726.5>
LayerCount: 2
Back
Fore
SplineSet
282 717 m 0
 282 634 224 600 151 600 c 0
 73 600 19 634 19 717 c 0
 19 799 73 834 151 834 c 0
 224 834 282 798 282 717 c 0
106 717 m 0
 106 697 123 686 151 686 c 0
 179 686 195 697 195 717 c 0
 195 736 179 748 151 748 c 0
 123 748 106 736 106 717 c 0
EndSplineSet
EndChar
StartChar: seven.dnom
Encoding: 65589 -1 439
Width: 280
Flags: MW
HStem: 107 105<26 253 26 128>
VStem: 26 227<111 212 111 212 111 212>
LayerCount: 2
Back
Fore
SplineSet
26 107 m 1
 26 212 l 1
 253 212 l 1
 253 111 l 1
 158 -110 l 1
 37 -91 l 1
 128 94 l 1
 128 107 l 1
 26 107 l 1
EndSplineSet
Substitution2: "'frac' Diagonal Fractions in Latin lookup 1 subtable" sevensuperior
EndChar
StartChar: seven.pnum
Encoding: 65547 -1 201
Width: 452
Flags: MW
HStem: 371 130<24 428 24 286>
VStem: 286 142<344 371 371 371>
LayerCount: 2
Back
Fore
SplineSet
24 371 m 1
 24 501 l 1
 428 501 l 1
 428 344 l 1
 215 -25 l 1
 90 26 l 1
 286 344 l 1
 286 371 l 1
 24 371 l 1
EndSplineSet
Substitution2: "'frac' Diagonal Fractions in Latin lookup 1 subtable" sevensuperior
EndChar
StartChar: six.dnom
Encoding: 65588 -1 438
Width: 280
Flags: MW
HStem: -111 92<132.5 143 132.5 176.5> 23 86<133 195> 130 93<140 167>
VStem: 12 108<5.5 15 5.5 100> 155 107<-4.5 9>
LayerCount: 2
Back
Fore
SplineSet
253 211 m 1
 247 124 l 1
 247 124 181 130 153 130 c 0xb8
 127 130 120 117 120 104 c 1
 130 106 146 109 158 109 c 0xf8
 232 109 262 73 262 4 c 0
 262 -70 210 -111 143 -111 c 0
 51 -111 12 -53 12 44 c 0
 12 156 43 223 149 223 c 0
 185 223 253 211 253 211 c 1
139 23 m 0xf8
 127 23 120 15 120 15 c 1
 120 -4 127 -19 138 -19 c 0
 148 -19 155 -11 155 2 c 0
 155 16 149 23 139 23 c 0xf8
EndSplineSet
Substitution2: "'frac' Diagonal Fractions in Latin lookup 1 subtable" sixsuperior
EndChar
StartChar: six.pnum
Encoding: 65546 -1 200
Width: 541
Flags: MW
HStem: -10 115<252.5 306 252.5 351> 208 110<266 308> 384 128<258 338 213 340.5> 492 20G<213 338>
VStem: 35 138 374 138<137.5 177.5>
LayerCount: 2
Back
Fore
SplineSet
490 490 m 1xdc
 478 369 l 1
 478 369 380 384 301 384 c 0
 215 384 174 363 173 292 c 1
 197 303 238 318 294 318 c 0
 433 318 512 270 512 157 c 0
 512 58 423 -10 279 -10 c 0
 123 -10 35 76 35 229 c 0
 35 419 125 512 301 512 c 0xec
 375 512 490 490 490 490 c 1xdc
282 208 m 0
 223 208 172 185 172 185 c 1
 172 177 173 169 176 162 c 0
 188 128 226 105 279 105 c 0
 333 105 374 118 374 157 c 0
 374 198 334 208 282 208 c 0
EndSplineSet
Substitution2: "'frac' Diagonal Fractions in Latin lookup 1 subtable" sixsuperior
EndChar
StartChar: three.pnum
Encoding: 65543 -1 197
Width: 489
Flags: MW
HStem: -9 129<194.5 255 193 314> 190 120<105 233 105 233> 381 129<190 252>
VStem: 307 135<345.5 361> 319 135<141.5 170>
LayerCount: 2
Back
Fore
SplineSet
40 485 m 1xe8
 40 485 148 510 228 510 c 0
 382 510 442 449 442 368 c 0xf0
 442 323 410 279 367 269 c 1
 417 256 454 211 454 160 c 0
 454 61 387 -9 241 -9 c 0
 148 -9 32 14 32 14 c 1
 45 131 l 1
 45 131 160 120 226 120 c 0
 284 120 319 126 319 157 c 0
 319 183 284 190 233 190 c 2xe8
 105 190 l 1
 105 310 l 1
 233 310 l 2
 273 310 307 313 307 346 c 0
 307 376 276 381 228 381 c 0xf0
 152 381 52 369 52 369 c 1
 40 485 l 1xe8
EndSplineSet
Substitution2: "'frac' Diagonal Fractions in Latin lookup 1 subtable" threesuperior
EndChar
StartChar: tilde.cap
Encoding: 65563 -1 292
Width: 456
Flags: MW
HStem: 779 119<281 306 281 319> 822 118<122.5 154.5>
VStem: 36 360<843 876>
LayerCount: 2
Back
Fore
SplineSet
371 936 m 1xa0
 396 843 l 1
 396 843 343 779 295 779 c 0xa0
 246 779 173 822 136 822 c 0
 109 822 60 783 60 783 c 1
 36 876 l 1
 36 876 87 940 137 940 c 0x60
 196 940 268 898 294 898 c 0
 318 898 371 936 371 936 c 1xa0
EndSplineSet
EndChar
StartChar: two.dnom
Encoding: 65584 -1 434
Width: 280
Flags: MW
HStem: -100 95<163 257 163 257> 121 102<97 187.5>
VStem: 26 231<-100 -10 -10 -10> 145 112<100.5 112>
LayerCount: 2
Back
Fore
SplineSet
257 -100 m 1xe0
 26 -100 l 1
 26 -10 l 1xe0
 99 49 l 2
 133 76 145 91 145 106 c 0
 145 118 133 121 108 121 c 0
 86 121 32 115 32 115 c 1
 28 214 l 1
 28 214 101 223 146 223 c 0
 229 223 257 194 257 123 c 0
 257 78 241 52 201 23 c 2
 163 -5 l 1xd0
 257 -5 l 1
 257 -100 l 1xe0
EndSplineSet
Substitution2: "'frac' Diagonal Fractions in Latin lookup 1 subtable" twosuperior
EndChar
StartChar: two.pnum
Encoding: 65542 -1 196
Width: 487
Flags: MW
HStem: 0 129<255 454 255 454> 378 131<186.5 230.5>
VStem: 275 157<331 356.5>
LayerCount: 2
Back
Fore
SplineSet
454 0 m 1
 40 0 l 1
 40 123 l 1
 128 196 l 2
 193 250 275 319 275 343 c 0
 275 370 263 378 198 378 c 0
 130 378 48 364 48 363 c 2
 40 483 l 1
 40 483 140 509 233 509 c 0
 398 509 432 426 432 353 c 0
 432 284 394 243 338 197 c 2
 255 129 l 1
 454 129 l 1
 454 0 l 1
EndSplineSet
Substitution2: "'frac' Diagonal Fractions in Latin lookup 1 subtable" twosuperior
EndChar
StartChar: zero.pnum
Encoding: 65540 -1 194
Width: 564
Flags: MW
HStem: -9 127<245.5 302.5> 382 127<262.5 320.5>
VStem: 35 148<206.5 285.5 206.5 316.5> 381 148<206.5 285.5>
LayerCount: 2
Back
Fore
SplineSet
281 509 m 0
 411 509 529 461 529 246 c 0
 529 118 474 48 402 15 c 0
 365 -2 323 -9 282 -9 c 0
 170 -9 35 50 35 246 c 0
 35 387 95 458 171 489 c 0
 206 503 244 509 281 509 c 0
283 382 m 0
 208 382 183 325 183 246 c 0
 183 167 208 118 283 118 c 0
 358 118 381 167 381 246 c 0
 381 325 358 382 283 382 c 0
EndSplineSet
Substitution2: "'frac' Diagonal Fractions in Latin lookup 1 subtable" zerosuperior
EndChar
StartChar: zero.slash
Encoding: 65580 -1 411
Width: 485
Flags: MW
HStem: -12 127<236.5 294.5 236.5 346> -2 21G<159 159> 545 127<205.5 249>
VStem: -10 148<310.5 407 310.5 456> 346 148<283.5 349>
LayerCount: 2
Back
Fore
SplineSet
242 672 m 0xb8
 272 672 299 668 325 661 c 1
 380 799 l 1
 472 767 l 1
 410 613 l 1
 463 561 494 471 494 326 c 0
 494 159 450 -12 242 -12 c 0xb8
 211 -12 183 -8 159 -2 c 1x78
 110 -123 l 1
 22 -93 l 1
 76 42 l 1
 9 103 -10 209 -10 326 c 0
 -10 586 88 672 242 672 c 0xb8
243 545 m 0
 168 545 138 488 138 326 c 0
 138 295 137 252 145 213 c 1
 276 540 l 1
 266 543 255 545 243 545 c 0
346 326 m 0
 346 372 344 409 339 439 c 1
 209 120 l 1
 219 117 230 115 243 115 c 0
 346 115 346 241 346 326 c 0
EndSplineSet
EndChar
